<svg width="12" height="12" viewBox="0 0 12 12" fill="none" xmlns="http://www.w3.org/2000/svg">
<path d="M0.765572 1.09915C0.765751 0.807711 0.879715 0.528255 1.08243 0.322173C1.28515 0.116091 1.56004 0.000235476 1.84673 5.41167e-05L10.5164 5.44006e-05C10.803 0.000235735 11.0779 0.116092 11.2807 0.322174C11.4834 0.528256 11.5973 0.807711 11.5975 1.09915L11.5975 9.91269C11.5875 10.1975 11.4692 10.4672 11.2676 10.6652C11.066 10.8633 10.7967 10.9741 10.5164 10.9745C10.236 10.9741 9.96675 10.8633 9.76513 10.6652C9.56352 10.4672 9.44525 10.1975 9.4352 9.91269L9.4352 3.75358L1.84673 11.468C1.64384 11.6743 1.36868 11.7901 1.08176 11.7901C0.794842 11.7901 0.519674 11.6743 0.316792 11.468C0.11391 11.2618 -6.7274e-05 10.982 -6.72721e-05 10.6904C-6.72702e-05 10.3987 0.11391 10.1189 0.316792 9.91269L7.90527 2.19825L1.84673 2.19825C1.56004 2.19807 1.28515 2.08222 1.08243 1.87613C0.879715 1.67005 0.765751 1.3906 0.765572 1.09915Z" fill="white"/>
</svg>
