<svg width="42" height="42" viewBox="0 0 42 42" fill="none" xmlns="http://www.w3.org/2000/svg">
<g clip-path="url(#clip0_2219_703)">
<path fill-rule="evenodd" clip-rule="evenodd" d="M21 0C9.4017 0 0 9.4164 0 21.0357C0 30.3282 6.0165 38.2137 14.3619 40.9941C15.4119 41.1873 15.7941 40.5384 15.7941 39.9798C15.7941 39.4821 15.7773 38.157 15.7668 36.4035C9.9246 37.674 8.6919 33.5832 8.6919 33.5832C7.7385 31.1514 6.3609 30.5046 6.3609 30.5046C4.4541 29.2026 6.5058 29.2278 6.5058 29.2278C8.6121 29.3748 9.7209 31.395 9.7209 31.395C11.5941 34.608 14.637 33.6798 15.8319 33.1422C16.0251 31.7835 16.5669 30.8574 17.1675 30.3324C12.5055 29.8011 7.602 27.9951 7.602 19.9353C7.602 17.64 8.421 15.7605 9.7629 14.2905C9.5466 13.7592 8.8263 11.6193 9.9687 8.7255C9.9687 8.7255 11.7327 8.1585 15.7437 10.8801C17.4568 10.4129 19.2243 10.1749 21 10.1724C22.785 10.1808 24.5805 10.4139 26.2584 10.8801C30.2673 8.1585 32.0271 8.7234 32.0271 8.7234C33.1737 11.6193 32.4513 13.7592 32.2371 14.2905C33.5811 15.7605 34.3959 17.64 34.3959 19.9353C34.3959 28.0161 29.484 29.7948 24.8073 30.3156C25.5612 30.9645 26.2311 32.2476 26.2311 34.2111C26.2311 37.0209 26.2059 39.291 26.2059 39.9798C26.2059 40.5426 26.5839 41.1978 27.6507 40.992C31.8324 39.5894 35.4676 36.9081 38.0425 33.3271C40.6174 29.7461 42.0018 25.4464 42 21.0357C42 9.4164 32.5962 0 21 0Z" fill="white"/>
</g>
<defs>
<clipPath id="clip0_2219_703">
<rect width="42" height="42" fill="white"/>
</clipPath>
</defs>
</svg>
