<svg width="42" height="42" viewBox="0 0 42 42" fill="none" xmlns="http://www.w3.org/2000/svg">
<g clip-path="url(#clip0_2219_719)">
<path fill-rule="evenodd" clip-rule="evenodd" d="M36.4471 8.66552L23.0884 0.793397C22.3123 0.335915 21.4264 0.0944824 20.5237 0.0944824C19.6211 0.0944824 18.7352 0.335915 17.9591 0.793397L4.59778 8.66552C3.80368 9.13593 3.14658 9.80345 2.69111 10.6024C2.23565 11.4014 1.99749 12.3043 2.00008 13.2224V28.9666C1.99517 29.8825 2.22992 30.784 2.68134 31.5828C3.13276 32.3816 3.78538 33.0503 4.5753 33.5235L17.934 41.3956C18.7101 41.8531 19.596 42.0945 20.4986 42.0945C21.4012 42.0945 22.2872 41.8531 23.0633 41.3956L36.4246 33.5235C37.2145 33.0503 37.8671 32.3816 38.3186 31.5828C38.77 30.784 39.0047 29.8825 38.9998 28.9666V13.2224C39.0072 12.3087 38.7761 11.4088 38.3289 10.6102C37.8818 9.81157 37.2339 9.1416 36.4484 8.66552H36.4471ZM26.0999 33.2505V34.3792C26.0991 34.4487 26.0807 34.517 26.0466 34.5777C26.0124 34.6385 25.9635 34.6898 25.9042 34.727L25.2274 35.1115C25.1216 35.1666 25.0317 35.1115 25.0317 34.9632V33.8516C24.5539 34.0847 24.007 34.1374 23.4929 33.9999C23.411 33.9448 23.3792 33.8398 23.4189 33.7374L23.6608 32.7137C23.681 32.6271 23.7282 32.549 23.7957 32.4905C23.8149 32.4716 23.8373 32.4561 23.8618 32.4446C23.8958 32.4314 23.9335 32.4314 23.9675 32.4446C24.4394 32.5704 24.9421 32.5072 25.3675 32.2687C25.6697 32.1222 25.9263 31.8972 26.1102 31.6176C26.294 31.3381 26.3983 31.0143 26.4119 30.6807C26.4119 30.1058 26.0946 29.8669 25.3278 29.8604C24.3575 29.8604 23.4771 29.6766 23.4374 28.2539C23.4485 27.6466 23.5948 27.0492 23.8659 26.5046C24.137 25.96 24.5261 25.4817 25.0053 25.104V23.9596C25.0079 23.8898 25.027 23.8217 25.061 23.7606C25.095 23.6995 25.1429 23.6472 25.2009 23.6078L25.854 23.1957C25.9598 23.1406 26.0496 23.1957 26.0496 23.348V24.4924C26.4497 24.3119 26.8963 24.2587 27.328 24.3402C27.4206 24.3927 27.4576 24.5082 27.4126 24.6027L27.1839 25.6172C27.158 25.7224 27.0928 25.8139 27.0015 25.8731C26.975 25.8889 26.9354 25.8836 26.9037 25.8731C26.4828 25.7817 26.0426 25.853 25.6729 26.0726C25.4032 26.1881 25.1722 26.3774 25.007 26.6185C24.8417 26.8595 24.7489 27.1422 24.7396 27.4337C24.7396 27.9521 25.0145 28.1096 25.9386 28.1293C27.1747 28.1293 27.7061 28.6844 27.7206 29.9168C27.709 30.5541 27.5577 31.1812 27.2774 31.7546C26.997 32.328 26.5943 32.834 26.0972 33.2373L26.0999 33.2505ZM33.0972 31.3474C33.1052 31.3951 33.0998 31.4442 33.0816 31.4891C33.0634 31.534 33.0331 31.5731 32.994 31.602L29.6296 33.6389C29.5979 33.6652 29.5503 33.6691 29.5146 33.6481C29.4789 33.6271 29.4617 33.5825 29.471 33.5431V32.6769C29.4733 32.6306 29.4889 32.5859 29.5161 32.5482C29.5433 32.5105 29.5809 32.4814 29.6243 32.4643L32.9504 30.4864C32.9821 30.4602 33.0297 30.4562 33.0654 30.4772C33.1011 30.4982 33.1183 30.5429 33.1091 30.5822V31.3461L33.0972 31.3474ZM35.4305 11.986L22.7896 19.7374C21.2125 20.664 20.0531 21.6772 20.0531 23.5619V39.02C20.0531 40.1487 20.5198 40.8575 21.2191 41.0937C20.988 41.1366 20.7536 41.1598 20.5185 41.1633C19.776 41.1616 19.0477 40.9617 18.4099 40.5845L5.05122 32.7137C4.40078 32.3262 3.86334 31.777 3.49195 31.1204C3.12055 30.4637 2.92804 29.7223 2.9334 28.9692V13.2224C2.92741 12.4683 3.1196 11.7257 3.491 11.0679C3.8624 10.4101 4.40017 9.8598 5.05122 9.47136L18.4099 1.59925C19.7054 0.838021 21.313 0.838021 22.6085 1.59925L35.9672 9.47136C37.0684 10.1328 37.818 11.2432 38.0189 12.49C37.5853 11.5542 36.5872 11.3088 35.4252 11.9716H35.4291L35.4305 11.986Z" fill="white"/>
</g>
<defs>
<clipPath id="clip0_2219_719">
<rect width="42" height="42" fill="white"/>
</clipPath>
</defs>
</svg>
