<svg width="42" height="42" viewBox="0 0 42 42" fill="none" xmlns="http://www.w3.org/2000/svg">
<path d="M2.75753 31.5079C2.9482 31.8469 3.22361 32.1011 3.56258 32.2918L19.8753 41.6981C20.5532 42.1006 21.3795 42.1006 22.0362 41.6981L38.349 32.2918C39.0269 31.9105 39.4294 31.1902 39.4294 30.4063V11.5937C39.4294 10.8098 39.0269 10.0895 38.349 9.7082L22.0362 0.301892C21.3583 -0.100631 20.5321 -0.100631 19.8753 0.301892L3.56258 9.7082C2.86346 10.0895 2.46094 10.8098 2.46094 11.5937V30.4275C2.46094 30.8088 2.54568 31.169 2.75753 31.5079Z" fill="white"/>
<path d="M15.7228 28.1818C15.7228 29.347 14.7906 30.2791 13.6254 30.2791C12.4602 30.2791 11.5281 29.347 11.5281 28.1818V13.7969C11.5281 12.6741 12.5238 11.7631 13.9008 11.7631C14.8965 11.7631 16.0617 12.1657 16.7609 13.0343L17.3964 13.7969L26.1672 24.2837V13.8393C26.1672 12.6741 27.0993 11.7419 28.2645 11.7419C29.4297 11.7419 30.3619 12.6741 30.3619 13.8393V28.2242C30.3619 29.347 29.3662 30.258 27.9891 30.258C26.9934 30.258 25.8282 29.8554 25.1291 28.9868L15.7228 17.7586V28.1818Z" fill="#161513"/>
</svg>
