<svg width="42" height="42" viewBox="0 0 42 42" fill="none" xmlns="http://www.w3.org/2000/svg">
<path d="M17.3104 29.8659C17.5959 28.9748 17.6091 28.0188 17.3485 27.1202L17.1818 27.2121C15.9821 27.8034 14.8857 28.5843 13.9346 29.5247C12.6969 30.8332 12.3518 32.4752 13.0421 32.8755C13.6813 33.2469 15.1736 32.8059 16.2407 31.6417C16.5829 31.273 16.869 30.856 17.0899 30.4041C17.1328 30.3201 17.1726 30.2326 17.2093 30.1416C17.2461 30.0506 17.2798 29.9587 17.3104 29.8659Z" fill="white"/>
<path fill-rule="evenodd" clip-rule="evenodd" d="M31.2086 5.72175C28.1869 3.70268 24.6342 2.625 21 2.625C16.1266 2.625 11.4529 4.56093 8.00691 8.00691C4.56093 11.4529 2.625 16.1266 2.625 21C2.625 24.6342 3.70268 28.1869 5.72175 31.2086C7.74082 34.2304 10.6106 36.5855 13.9682 37.9763C17.3258 39.367 21.0204 39.7309 24.5848 39.0219C28.1492 38.3129 31.4233 36.5629 33.9931 33.9931C36.5629 31.4233 38.3129 28.1492 39.0219 24.5848C39.7309 21.0204 39.367 17.3258 37.9763 13.9682C36.5855 10.6106 34.2304 7.74082 31.2086 5.72175ZM21.1613 7.97212C26.2826 6.15824 31.6941 7.22662 32.5262 10.4895C33.3439 13.6986 30.5588 17.5376 26.9875 18.9144C24.8159 19.8612 22.4013 20.0999 20.0863 19.5969C19.6382 19.4739 19.2192 19.2626 18.8539 18.9755C18.4885 18.6883 18.1842 18.3311 17.9588 17.9248L17.9553 17.9157C17.8866 17.7362 17.7742 17.4427 17.9588 17.3407C18.0743 17.2777 18.1202 17.2922 18.4299 17.6334C18.9392 18.0596 19.5379 18.3655 20.1816 18.5287C20.8253 18.6918 21.4975 18.7079 22.1483 18.5758C28.0361 17.9156 31.5825 13.3416 30.4616 10.8793C29.6768 9.15599 25.1381 8.37768 19.4681 11.2035C12.5526 14.6527 12.1772 17.4956 12.1181 18.5758C12.0065 20.6297 13.8021 22.0108 15.6055 23.3978C16.41 24.0166 17.2161 24.6366 17.8551 25.3181C17.9036 25.3706 17.9509 25.4231 17.9968 25.4756C18.9263 25.1871 19.8971 25.0541 20.8699 25.0819C24.2194 25.0254 26.1107 27.2383 26.0333 29.2071C26.0016 29.7139 25.817 30.1993 25.504 30.5993C25.191 30.9992 24.7642 31.2949 24.2798 31.4475C24.0868 31.4803 23.9831 31.4856 23.9556 31.3346C23.9359 31.2296 24.0054 31.1824 24.2312 31.0419C24.4953 30.8888 24.7233 30.6806 24.8997 30.4314C25.0761 30.1823 25.1968 29.8981 25.2536 29.5982C25.3744 28.7556 24.7418 26.7435 21.5183 26.3668C20.579 26.24 19.6242 26.2948 18.7056 26.5282C19.0462 27.4501 19.1675 28.4385 19.06 29.4153C18.9525 30.3922 18.619 31.3306 18.0861 32.1562C17.4412 33.1753 16.4935 33.967 15.3759 34.4201C14.2582 34.8732 13.0268 34.9651 11.8543 34.6828C11.0734 34.4662 9.89608 32.8545 10.912 30.6075C11.878 28.4812 15.994 26.3957 16.5557 26.1187V26.1096C16.0777 25.698 15.4282 25.2506 14.7129 24.7579C12.5743 23.2846 9.84709 21.406 9.35532 18.8685C9.17026 17.9091 9.62045 15.6122 12.441 12.9741C14.9906 10.7496 17.9539 9.04988 21.1613 7.97212Z" fill="white"/>
</svg>
