<svg width="42" height="42" viewBox="0 0 42 42" fill="none" xmlns="http://www.w3.org/2000/svg">
<path fill-rule="evenodd" clip-rule="evenodd" d="M14.2803 0H27.7201C31.8935 0 35.2802 3.38669 35.2802 7.56005C35.2802 10.4846 33.617 13.0228 31.1855 14.2799C33.6171 15.5371 35.2802 18.0754 35.2802 20.9999C35.2802 25.1733 31.8935 28.56 27.7201 28.56C25.3462 28.56 23.2267 27.4642 21.8404 25.7511V34.4399C21.8404 38.6133 18.4537 42 14.2803 42C10.1069 42 6.72021 38.6133 6.72021 34.4399C6.72021 31.5153 8.3834 28.9771 10.815 27.7199C8.38339 26.4628 6.72021 23.9245 6.72021 20.9999C6.72021 18.0754 8.38338 15.5371 10.8149 14.2799C8.38338 13.0228 6.72021 10.4846 6.72021 7.56005C6.72021 3.38669 10.1069 0 14.2803 0ZM8.40021 7.56005C8.40021 4.31454 11.0348 1.68 14.2803 1.68H20.16V13.4399H14.2803L14.2621 13.4399C11.0249 13.4301 8.40021 10.7995 8.40021 7.56005ZM20.1604 20.92C20.1601 20.9466 20.16 20.9733 20.16 20.9999C20.16 21.0266 20.1601 21.0533 20.1604 21.0799V26.8798H14.2803C11.0348 26.88 8.40021 24.2455 8.40021 20.9999C8.40021 17.7605 11.025 15.1297 14.2622 15.1199L14.2803 15.1199H20.16L20.1604 20.92ZM21.8404 21.0704V20.9295C21.8781 17.7244 24.485 15.1328 27.696 15.1199H27.7201C27.7261 15.1199 27.7322 15.1199 27.7382 15.1199C30.9754 15.1297 33.6002 17.7605 33.6002 20.9999C33.6002 24.2455 30.9657 26.88 27.7201 26.88C24.4981 26.88 21.8782 24.2835 21.8404 21.0704ZM22.9694 15.1199C22.5546 15.4555 22.176 15.8341 21.8404 16.2488V15.1199H22.9694ZM27.7383 13.4399C27.7323 13.4399 27.7262 13.4399 27.7201 13.4399C27.7109 13.4399 27.7017 13.4399 27.6926 13.4399H21.8404V1.68H27.7201C30.9657 1.68 33.6002 4.31454 33.6002 7.56005C33.6002 10.7995 30.9755 13.4301 27.7383 13.4399ZM14.2803 28.5599C11.0348 28.5599 8.40021 31.1944 8.40021 34.4399C8.40021 37.6855 11.0348 40.32 14.2803 40.32C17.5259 40.32 20.1604 37.6855 20.1604 34.4399V28.5599H14.2803Z" fill="white"/>
</svg>
