<svg width="42" height="42" viewBox="0 0 42 42" fill="none" xmlns="http://www.w3.org/2000/svg">
<g clip-path="url(#clip0_2219_713)">
<path d="M18.5068 41.973C14.5754 41.6897 10.6897 40.7001 8.3066 39.3753C6.94921 38.6207 5.91507 37.6934 5.50927 36.8669L5.26782 36.3751V20.9503V5.52542L5.45887 5.13749C6.31266 3.40409 9.03746 1.84142 12.8411 0.903803C14.1323 0.585503 15.9963 0.268526 17.517 0.108686C19.0697 -0.0545739 23.1855 -0.029735 24.7345 0.152485C28.8512 0.636145 32.3543 1.71894 34.5131 3.17508C35.3456 3.73662 36.1999 4.63514 36.4893 5.25362L36.7375 5.78389L36.7162 21.1621L36.695 36.5403L36.4958 36.945C36.3863 37.1675 36.0554 37.6054 35.7605 37.918C33.9654 39.8209 30.115 41.2285 25.0645 41.8283C24.0351 41.9506 19.5629 42.0492 18.5068 41.973ZM25.7518 28.756C25.7367 28.7166 25.149 28.193 24.4458 27.5925C23.7426 26.9919 23.1369 26.4724 23.0999 26.4379C23.0629 26.4034 23.1928 26.2812 23.3886 26.1665C23.5844 26.0517 23.9596 25.7323 24.2223 25.4569C24.9906 24.6512 25.3531 23.6561 25.3531 22.3525C25.3531 21.0692 24.9622 20.0338 24.1791 19.2435C23.3899 18.4468 22.4838 18.1045 21.1642 18.1045C19.1301 18.1045 17.568 19.2913 17.0694 21.2155C16.8979 21.8774 16.8988 23.2148 17.0712 23.8017C17.5208 25.3325 18.7454 26.4443 20.2695 26.7053C20.7853 26.7937 20.8552 26.8318 21.2068 27.2162C21.4158 27.4447 21.8446 27.9007 22.1597 28.2296L22.7328 28.8276H24.256C25.0938 28.8276 25.7669 28.7954 25.7518 28.756ZM20.5279 24.4909C20.1612 24.2997 20.0225 24.1513 19.8134 23.7262C19.6519 23.3979 19.6243 23.2111 19.6224 22.435C19.6206 21.6464 19.6457 21.476 19.8144 21.1336C20.0903 20.5733 20.4705 20.308 21.0587 20.2655C21.8774 20.2061 22.35 20.6079 22.5977 21.5736C22.9014 22.7575 22.5674 24.0162 21.8388 24.4339C21.4566 24.6531 20.8864 24.6779 20.5279 24.4909ZM13.776 26.6885C15.3731 26.3857 16.2797 25.4569 16.2797 24.1236C16.2797 22.9408 15.6944 22.2515 14.0767 21.5294C13.1507 21.116 12.8152 20.8565 12.8152 20.5533C12.8152 20.302 13.1336 20.0267 13.5041 19.9575C13.8659 19.8899 14.8256 20.0566 15.3922 20.2855L15.8672 20.4774V19.426V18.3745L15.3517 18.2601C15.0331 18.1894 14.3636 18.147 13.5989 18.1492C12.5157 18.1492 12.3036 18.1756 11.896 18.3375C10.7053 18.8101 10.1403 19.6153 10.1493 20.8266C10.1578 21.9604 10.756 22.6677 12.2447 23.304C13.1231 23.6794 13.4752 23.9653 13.4752 24.3031C13.4752 25.021 12.279 25.1094 11.0125 24.485C10.6657 24.3141 10.3541 24.1602 10.3201 24.1432C10.286 24.1261 10.2582 24.6173 10.2582 25.2347C10.2582 26.3521 10.2594 26.3575 10.4617 26.4345C11.2236 26.7242 12.9075 26.8532 13.776 26.6885ZM32.0345 25.6519V24.7034H30.591H29.1474V21.4452V18.187H27.8689H26.5904V22.3938V26.6005H29.3124H32.0345V25.6519ZM23.126 9.02893C25.6667 8.85271 27.5712 8.52 29.2471 7.95966C30.9166 7.40142 31.9029 6.72595 32.1235 5.98963C32.2085 5.70589 32.2024 5.59827 32.0837 5.28717C31.551 3.89246 28.5755 2.82091 24.0287 2.38645C22.0838 2.20057 18.5467 2.26082 16.6922 2.51132C13.8626 2.89364 11.5662 3.60379 10.5451 4.41229C8.47964 6.04789 10.6639 7.84683 15.7435 8.69355C17.946 9.06069 20.7995 9.19033 23.126 9.02893Z" fill="white"/>
</g>
<defs>
<clipPath id="clip0_2219_713">
<rect width="42" height="42" fill="white"/>
</clipPath>
</defs>
</svg>
