<svg width="42" height="42" viewBox="0 0 42 42" fill="none" xmlns="http://www.w3.org/2000/svg">
<path d="M41.208 19.129L22.8704 0.792067C21.8149 -0.264022 20.1021 -0.264022 19.0454 0.792067L15.2375 4.60003L20.068 9.43061C21.1905 9.05129 22.4778 9.30576 23.3726 10.2006C24.2716 11.1011 24.5243 12.3994 24.1358 13.5255L28.7911 18.181C29.9173 17.793 31.2169 18.0441 32.1164 18.9451C33.3737 20.2018 33.3737 22.2387 32.1164 23.4963C30.8589 24.754 28.8221 24.754 27.5639 23.4963C26.6182 22.5496 26.3846 21.1608 26.8633 19.9958L22.5219 15.6543L22.5214 27.0793C22.8361 27.2349 23.1236 27.4405 23.3726 27.688C24.6298 28.9447 24.6298 30.9818 23.3726 32.2403C22.115 33.4974 20.0772 33.4974 18.8215 32.2403C17.5642 30.9818 17.5642 28.9449 18.8215 27.6882C19.1227 27.3867 19.4808 27.148 19.8749 26.9858V15.4543C19.4802 15.2932 19.122 15.0543 18.8215 14.7519C17.8689 13.8007 17.6399 12.403 18.128 11.2334L13.3662 6.47103L0.792423 19.0442C-0.264141 20.1013 -0.264141 21.8143 0.792423 22.8705L19.1304 41.2078C20.1861 42.2641 21.8986 42.2641 22.9557 41.2078L41.2078 22.9557C42.2641 21.8991 42.2642 20.1851 41.208 19.129Z" fill="white"/>
</svg>
