<svg width="42" height="42" viewBox="0 0 42 42" fill="none" xmlns="http://www.w3.org/2000/svg">
<path fill-rule="evenodd" clip-rule="evenodd" d="M4.02637 1.75L6.85553 36.125L21.0014 40.25L35.1472 36.125L37.9764 1.75H4.02637ZM11.8069 21.6875H25.9528L25.2455 27.1875L21.0017 28.5625L16.758 27.1875L16.0507 23.75H11.8069L12.5142 30.625L21.0017 33.375L29.4892 30.625L30.9038 17.5625H22.4163L31.6111 14.125L32.3184 9.31247H10.3923L11.0996 13.4375H22.4163L11.0996 16.875L11.8069 21.6875Z" fill="white"/>
<path d="M21.0017 4.49997H35.1475L32.3184 34.75L21.0017 38.1875V33.375L29.4892 30.625L30.9038 17.5625H22.4163L31.6111 14.125L32.3184 9.31247H21.0017V4.49997Z" fill="white"/>
<path d="M21.0017 13.4375V13.8672L22.4163 13.4375H21.0017Z" fill="white"/>
<path d="M21.0017 21.6875V28.5625L25.2455 27.1875L25.9528 21.6875H21.0017Z" fill="white"/>
</svg>
