<svg width="42" height="42" viewBox="0 0 42 42" fill="none" xmlns="http://www.w3.org/2000/svg">
<path d="M39.4092 19.87C39.3015 19.8622 39.1768 19.8569 39.0508 19.8569C38.4156 19.8569 37.8079 19.975 37.2488 20.1903L37.2829 20.1785C37.1188 20.2441 36.8563 20.2441 36.834 20.4528C36.9246 20.5394 36.9377 20.6825 37.0138 20.8032C37.1674 21.0631 37.3564 21.2836 37.5769 21.4673L37.5808 21.4713C37.8105 21.6511 38.0402 21.8257 38.2817 21.9792C38.7083 22.2417 39.1926 22.3979 39.61 22.6617C39.8475 22.8153 40.0903 23.0108 40.3318 23.1749C40.4513 23.2563 40.5287 23.4046 40.6823 23.4571V23.4243C40.6075 23.3258 40.5838 23.1828 40.5103 23.0738C40.4001 22.9636 40.2912 22.8652 40.1822 22.7575C39.8567 22.331 39.48 21.9661 39.0574 21.6616L39.0417 21.6511C38.6912 21.4122 37.9234 21.0775 37.779 20.6746L37.758 20.651C38.0442 20.6103 38.2988 20.5499 38.5442 20.4685L38.5127 20.4777C38.8855 20.3793 39.2267 20.4003 39.6113 20.3045C39.7845 20.2598 39.9604 20.206 40.1363 20.1509V20.0525C39.9394 19.8556 39.7924 19.5878 39.589 19.4041C39.0522 18.9316 38.4602 18.488 37.8368 18.089L37.7777 18.0535C37.4338 17.8343 36.9968 17.6926 36.6345 17.5062C36.5033 17.4406 36.2841 17.4078 36.208 17.2975C36.0373 17.0547 35.8864 16.7765 35.767 16.4825L35.7565 16.4536C35.4345 15.8288 35.1352 15.1932 34.8587 14.5465C34.6697 14.0438 34.482 13.6317 34.2707 13.2327L34.3009 13.2944C33.2693 11.5632 31.8321 10.172 30.1167 9.22303L30.0602 9.19416C29.6547 8.99334 29.1835 8.83716 28.6887 8.74922L28.6558 8.74397C28.3815 8.73084 28.1085 8.71116 27.8355 8.69934C27.6439 8.57597 27.4785 8.44997 27.3237 8.31084L27.3276 8.31478C26.7042 7.92103 25.0911 7.06791 24.6317 8.19666C24.3364 8.90803 25.0701 9.61022 25.3234 9.97116C25.5255 10.2113 25.7093 10.4804 25.8681 10.7652L25.8812 10.7915C25.9587 10.9818 25.9797 11.1773 26.0571 11.3755C26.2474 11.9688 26.4403 12.4557 26.6595 12.9269L26.6254 12.8455C26.7553 13.1067 26.8905 13.3285 27.0415 13.5385L27.031 13.5228C27.1189 13.6422 27.2698 13.6987 27.3053 13.8955C27.1924 14.1331 27.1045 14.4087 27.0559 14.6962L27.0533 14.7145C26.9115 15.1503 26.8288 15.653 26.8288 16.174C26.8288 16.9891 27.0297 17.7569 27.384 18.4315L27.3709 18.4053C27.5468 18.677 27.9642 19.2807 28.5233 19.0497C29.0155 18.8528 28.9065 18.2294 29.0483 17.6808C29.0811 17.5495 29.0601 17.4629 29.127 17.3737V17.3986C29.2806 17.707 29.4355 18.001 29.5759 18.3095C29.9723 18.8804 30.4435 19.366 30.9816 19.7663L30.9987 19.7782C31.2612 19.975 31.4698 20.3163 31.798 20.437V20.4042H31.773C31.6982 20.3228 31.6155 20.2507 31.525 20.189L31.5197 20.1863C31.3163 19.9868 31.1273 19.7716 30.9567 19.5445L30.9462 19.5301C30.5183 18.9526 30.1114 18.299 29.7583 17.6125L29.7203 17.5325C29.5405 17.1886 29.3895 16.8172 29.2452 16.4772C29.1795 16.346 29.1795 16.1491 29.0693 16.0835C28.875 16.3013 28.7005 16.5442 28.5548 16.8053L28.5443 16.8263C28.3763 17.3159 28.266 17.8816 28.2372 18.4683V18.4827C28.1925 18.4945 28.2148 18.4827 28.1925 18.5063C27.8421 18.421 27.7213 18.0575 27.5901 17.7517C27.4116 17.2713 27.3079 16.7148 27.3079 16.136C27.3079 15.6687 27.3748 15.2172 27.5008 14.7907L27.493 14.8248C27.5704 14.5951 27.8985 13.8706 27.7673 13.6501C27.699 13.4414 27.4825 13.322 27.3617 13.1527C27.2187 12.9505 27.0874 12.7208 26.9785 12.478L26.968 12.4518C26.7055 11.8388 26.5742 11.159 26.2894 10.546C26.1175 10.2258 25.9363 9.95016 25.7329 9.69291L25.7421 9.70472C25.5255 9.45403 25.326 9.17447 25.1528 8.87784L25.1383 8.85159C25.0845 8.73216 25.0071 8.53397 25.0937 8.40272C25.1095 8.32659 25.1698 8.26753 25.2473 8.25572C25.3917 8.13759 25.7985 8.29116 25.9403 8.35678C26.3563 8.51428 26.7147 8.69934 27.0467 8.91722L27.0257 8.90409C27.1793 9.01172 27.346 9.22041 27.5428 9.27422H27.7725C28.123 9.35166 28.5193 9.29784 28.8475 9.39366C29.4499 9.59709 29.971 9.85172 30.4527 10.1641L30.4251 10.147C31.8741 11.0828 33.0343 12.3481 33.8192 13.843L33.8455 13.8968C33.9767 14.1488 34.0345 14.3812 34.1539 14.6437C34.3836 15.1844 34.6671 15.7317 34.9007 16.2541C35.1225 16.8158 35.385 17.3015 35.6974 17.749L35.6817 17.7254C35.8457 17.9551 36.5046 18.0745 36.7999 18.194C37.111 18.3029 37.3603 18.4066 37.6018 18.5234L37.5533 18.5024C37.93 18.7321 38.2975 18.9946 38.6518 19.2466C38.8317 19.3713 39.379 19.6456 39.4118 19.8661L39.4092 19.87ZM24.0214 29.4683C24.0214 29.488 24.0227 29.5103 24.0227 29.5327C24.0227 30.265 23.6959 30.92 23.1788 31.361L23.1748 31.3636C22.6078 31.8256 21.8768 32.1065 21.0801 32.1065C21.0184 32.1065 20.9567 32.1052 20.8963 32.1012H20.9042C19.9343 32.0881 19.0418 31.7731 18.3107 31.2468L18.3238 31.256L18.7123 30.475C19.2754 30.79 19.9448 30.9856 20.6562 31.0132H20.664C20.6995 31.0158 20.7402 31.0171 20.7822 31.0171C21.2179 31.0171 21.6235 30.8806 21.9555 30.6483L21.949 30.6522C22.2495 30.4238 22.4412 30.0668 22.4412 29.6652C22.4412 29.6573 22.4412 29.6508 22.4412 29.6429V29.6442C22.4412 29.1035 22.0645 28.6441 21.378 28.2582C20.7415 27.9091 19.471 27.1807 19.471 27.1807C18.8436 26.7922 18.4328 26.1083 18.4328 25.3287C18.4328 25.3012 18.4328 25.2736 18.4341 25.246V25.25C18.4328 25.225 18.4328 25.1962 18.4328 25.1673C18.4328 24.4913 18.7307 23.885 19.2019 23.4728L19.2045 23.4702C19.7059 23.045 20.3608 22.7864 21.0762 22.7864C21.1221 22.7864 21.1667 22.7877 21.2113 22.789H21.2048C21.2166 22.789 21.231 22.789 21.2455 22.789C22.0842 22.789 22.8651 23.0397 23.5161 23.4715L23.5003 23.4623L23.1512 24.2433C22.638 24.0123 22.0395 23.8732 21.4095 23.8666H21.4069C21.3754 23.864 21.34 23.8627 21.3032 23.8627C20.9357 23.8627 20.5971 23.9913 20.332 24.2065L20.3346 24.2039C20.0865 24.41 19.929 24.7184 19.9277 25.0636C19.9277 25.6017 20.311 26.0637 21.0197 26.4575C21.6642 26.8105 22.9662 27.556 22.9662 27.556C23.6067 27.9327 24.0306 28.6178 24.0306 29.4027C24.0306 29.4263 24.0306 29.4513 24.0293 29.4749V29.471L24.0214 29.4683ZM26.7409 30.1653C26.3826 29.45 26.1739 28.6073 26.1739 27.7162C26.1739 27.5757 26.1792 27.4366 26.1897 27.3001L26.1883 27.3185C26.1883 25.0338 26.8827 23.8911 28.2713 23.8902C28.3054 23.8876 28.3461 23.8863 28.3881 23.8863C29.0115 23.8863 29.5588 24.2118 29.8699 24.7027L29.8738 24.7092C30.2295 25.4206 30.4382 26.2606 30.4382 27.1478C30.4382 27.2843 30.433 27.4195 30.4238 27.5534L30.4251 27.535C30.4251 29.838 29.7308 30.9904 28.3422 30.9922C28.3067 30.9948 28.266 30.9961 28.2253 30.9961C27.6019 30.9961 27.0533 30.6706 26.7422 30.1797L26.7383 30.1732L26.7409 30.1653ZM32.1405 32.2023L30.4737 31.382C30.6259 31.2547 30.7624 31.1208 30.8884 30.9764L30.8923 30.9725C31.5657 30.0642 31.9699 28.921 31.9699 27.6847C31.9699 27.5416 31.9647 27.3998 31.9542 27.2594L31.9555 27.2778C31.9555 24.2765 30.7773 22.775 28.4209 22.7733C28.3684 22.7707 28.3067 22.7693 28.245 22.7693C27.2383 22.7693 26.334 23.2117 25.7185 23.9138L25.7158 23.9178C25.0452 24.826 24.6422 25.9679 24.6422 27.2043C24.6422 27.3434 24.6475 27.4812 24.658 27.6177L24.6567 27.5993C24.6448 27.7319 24.6383 27.8868 24.6383 28.043C24.6383 29.1901 24.9979 30.2532 25.6095 31.126L25.5977 31.109C26.187 31.7363 27.0231 32.1275 27.9484 32.1275C28.035 32.1275 28.1203 32.1235 28.2043 32.117L28.1925 32.1183C28.2043 32.1183 28.2201 32.1183 28.2345 32.1183C28.6427 32.1183 29.0378 32.0592 29.4118 31.9503L29.383 31.9582L31.5565 33.2247L32.1471 32.2049L32.1405 32.2023ZM37.5848 31.9805H33.2706V22.9111H34.7222V30.8662H37.5848V31.9805ZM17.371 25.2893C16.9943 28.0246 16.132 30.4934 14.8707 32.705L14.9232 32.6039C14.4178 33.5765 13.4623 34.2537 12.3402 34.3627L12.327 34.364C11.9871 34.3456 11.6708 34.2642 11.3833 34.1317L11.3991 34.1382V33.3284C11.5789 33.356 11.7863 33.3717 11.9976 33.3717C12.0094 33.3717 12.0212 33.3717 12.0343 33.3717C12.0553 33.373 12.0777 33.373 12.1013 33.373C12.4806 33.373 12.8284 33.2352 13.0962 33.0055L13.0935 33.0068C13.3823 32.7693 13.5673 32.4149 13.5778 32.0159C13.5083 31.441 13.3757 30.916 13.1854 30.4212L13.2012 30.4658L11.5382 25.2893H13.0305L14.2236 29.1599C14.4362 29.7059 14.5596 30.3385 14.5596 30.9987C14.5596 31 14.5596 31.0013 14.5596 31.0013C15.1922 29.345 15.6726 27.413 15.9167 25.4088L15.9285 25.288L17.371 25.2893ZM10.7822 31.9805H9.26234C9.21947 29.5646 9.07203 27.1535 8.82003 24.7473H8.8069L6.49428 31.9805H5.33797L3.04109 24.7473H3.02534C2.84597 27.1544 2.73922 29.5655 2.70509 31.9805H1.31909C1.40922 28.7561 1.63322 25.7325 1.99109 22.9098H3.87715L6.0664 29.576H6.07953L8.28847 22.9098H10.084C10.4812 26.2147 10.7153 29.2382 10.7862 31.9805H10.7822ZM28.2253 10.3413C28.2227 10.3413 28.2188 10.3413 28.2148 10.3413C28.0587 10.3413 27.9077 10.361 27.7633 10.3977L27.7765 10.3951V10.4161H27.7988C27.9117 10.5841 28.0272 10.7298 28.1518 10.8663L28.1492 10.8637C28.2372 11.0395 28.3133 11.2141 28.4012 11.3887L28.4235 11.3637C28.5666 11.2508 28.6572 11.0776 28.6572 10.8833C28.6572 10.8597 28.6558 10.8374 28.6532 10.8138V10.8164C28.5876 10.739 28.5784 10.6628 28.522 10.5867C28.4563 10.4765 28.3159 10.4227 28.2267 10.336L28.2253 10.3413Z" fill="white"/>
</svg>
