<svg width="42" height="42" viewBox="0 0 42 42" fill="none" xmlns="http://www.w3.org/2000/svg">
<path d="M24.5878 21.0035C24.5878 22.9848 22.9817 24.591 21.0003 24.591C19.019 24.591 17.4128 22.9848 17.4128 21.0035C17.4128 19.0222 19.019 17.416 21.0003 17.416C22.9817 17.416 24.5878 19.0222 24.5878 21.0035Z" fill="white"/>
<path fill-rule="evenodd" clip-rule="evenodd" d="M33.1708 11.9524C33.0528 12.6891 32.8926 13.4582 32.6914 14.2534C33.4807 14.4769 34.2269 14.7227 34.9239 14.9888C36.7241 15.6762 38.2412 16.516 39.3236 17.493C40.4058 18.47 41.125 19.6548 41.125 21.0035C41.125 22.3522 40.4058 23.5369 39.3236 24.5139C38.2412 25.491 36.7241 26.3308 34.9239 27.0182C34.2269 27.2843 33.4807 27.5301 32.6914 27.7535C32.8926 28.5488 33.0528 29.3179 33.1708 30.0546C33.4757 31.9573 33.5069 33.691 33.2019 35.1169C32.897 36.5427 32.2305 37.7579 31.0625 38.4322C29.8945 39.1066 28.5089 39.0762 27.1216 38.6274C25.7343 38.1786 24.2485 37.2846 22.7531 36.0693C22.1741 35.5987 21.5881 35.0754 21 34.5036C20.4119 35.0754 19.8259 35.5987 19.2469 36.0693C17.7515 37.2846 16.2657 38.1786 14.8784 38.6274C13.4911 39.0762 12.1055 39.1066 10.9375 38.4322C9.76952 37.7579 9.10304 36.5427 8.79808 35.1169C8.49309 33.691 8.52434 31.9573 8.82918 30.0546C8.94721 29.3179 9.10741 28.5488 9.30856 27.7535C8.51928 27.5301 7.77309 27.2843 7.07608 27.0182C5.27589 26.3308 3.75881 25.491 2.67644 24.5139C1.59417 23.5369 0.875 22.3522 0.875 21.0035C0.875 19.6548 1.59417 18.47 2.67644 17.493C3.75881 16.516 5.27589 15.6762 7.07608 14.9888C7.77309 14.7227 8.51928 14.4769 9.30856 14.2534C9.10741 13.4582 8.94721 12.6891 8.82918 11.9524C8.52434 10.0497 8.49309 8.31595 8.79808 6.89005C9.10304 5.46427 9.76952 4.24906 10.9375 3.57473C12.1055 2.90039 13.4911 2.93081 14.8784 3.37959C16.2657 3.82841 17.7515 4.72234 19.2469 5.93768C19.8259 6.40825 20.4119 6.93156 21 7.50337C21.5881 6.93156 22.1741 6.40824 22.7531 5.93768C24.2485 4.72234 25.7343 3.82841 27.1216 3.37959C28.5089 2.93081 29.8945 2.90039 31.0625 3.57473C32.2305 4.24906 32.897 5.46427 33.2019 6.89005C33.5069 8.31594 33.4757 10.0497 33.1708 11.9524ZM15.3925 17.766C16.0197 16.6795 16.672 15.643 17.3397 14.6636C18.5217 14.5751 19.7455 14.5285 21 14.5285C22.2545 14.5285 23.4783 14.5751 24.6603 14.6636C25.328 15.643 25.9803 16.6795 26.6075 17.766C27.2348 18.8524 27.8063 19.9356 28.3207 21.0035C27.8063 22.0714 27.2348 23.1545 26.6075 24.241C25.9803 25.3274 25.328 26.364 24.6603 27.3434C23.4783 27.4319 22.2545 27.4785 21 27.4785C19.7455 27.4785 18.5217 27.4319 17.3397 27.3434C16.672 26.364 16.0197 25.3274 15.3925 24.241C14.7652 23.1545 14.1937 22.0714 13.6793 21.0035C14.1937 19.9356 14.7652 18.8524 15.3925 17.766ZM13.8769 16.891C14.2731 16.2047 14.6798 15.5363 15.0949 14.8875C13.8229 15.0471 12.6136 15.2565 11.4833 15.509C11.8298 16.6142 12.253 17.7661 12.7508 18.9475C13.1052 18.2637 13.4807 17.5772 13.8769 16.891ZM21 12.7785C20.2076 12.7785 19.4253 12.7965 18.6559 12.8315C19.4302 11.8097 20.2162 10.8672 21 10.0146C21.7838 10.8672 22.5698 11.8097 23.3441 12.8315C22.5747 12.7965 21.7924 12.7785 21 12.7785ZM16.3725 12.9884C17.4791 11.4246 18.6267 10.0036 19.7791 8.75711C19.2274 8.22075 18.6804 7.73236 18.1432 7.29572C16.7448 6.15925 15.4495 5.40366 14.3397 5.04463C13.2298 4.68556 12.4022 4.74978 11.8125 5.09027C11.2228 5.43076 10.7534 6.11531 10.5094 7.25608C10.2654 8.39672 10.2721 9.8963 10.5571 11.6755C10.6667 12.3591 10.8161 13.077 11.0048 13.823C12.6604 13.4482 14.4649 13.1648 16.3725 12.9884ZM25.6275 12.9884C24.5209 11.4246 23.3733 10.0036 22.2209 8.75711C22.7726 8.22075 23.3196 7.73236 23.8568 7.29572C25.2552 6.15925 26.5505 5.40366 27.6603 5.04463C28.7702 4.68556 29.5978 4.74978 30.1875 5.09027C30.7772 5.43076 31.2466 6.11531 31.4906 7.25608C31.7346 8.39672 31.7279 9.8963 31.4429 11.6755C31.3333 12.3591 31.1839 13.077 30.9952 13.823C29.3396 13.4482 27.5351 13.1648 25.6275 12.9884ZM26.9051 14.8875C28.1771 15.0471 29.3864 15.2565 30.5167 15.509C30.1702 16.6142 29.747 17.7661 29.2492 18.9475C28.8948 18.2637 28.5193 17.5772 28.1231 16.891C27.7269 16.2047 27.3202 15.5363 26.9051 14.8875ZM32.2161 15.9376C31.7128 17.5588 31.056 19.2633 30.255 21.0035C31.056 22.7437 31.7128 24.4482 32.2161 26.0693C32.9565 25.8597 33.6529 25.6302 34.2997 25.3833C35.9831 24.7405 37.2851 23.9965 38.1509 23.2149C39.0169 22.4332 39.375 21.6845 39.375 21.0035C39.375 20.3225 39.0169 19.5737 38.1509 18.792C37.2851 18.0104 35.9831 17.2664 34.2997 16.6237C33.6529 16.3767 32.9565 16.1473 32.2161 15.9376ZM28.1231 25.116C28.5193 24.4297 28.8948 23.7433 29.2492 23.0595C29.747 24.2409 30.1702 25.3928 30.5167 26.4979C29.3864 26.7504 28.1771 26.9599 26.9051 27.1195C27.3202 26.4707 27.7269 25.8022 28.1231 25.116ZM25.6275 29.0185C27.5351 28.8421 29.3396 28.5587 30.9952 28.184C31.1839 28.93 31.3333 29.6479 31.4429 30.3315C31.7279 32.1107 31.7346 33.6103 31.4906 34.7509C31.2466 35.8917 30.7772 36.5762 30.1875 36.9167C29.5978 37.2572 28.7702 37.3214 27.6603 36.9623C26.5505 36.6033 25.2552 35.8477 23.8568 34.7113C23.3196 34.2746 22.7726 33.7862 22.2209 33.2499C23.3733 32.0034 24.5209 30.5824 25.6275 29.0185ZM23.3441 29.1755C22.5698 30.1973 21.7838 31.1398 21 31.9924C20.2162 31.1398 19.4302 30.1973 18.6559 29.1755C19.4253 29.2105 20.2076 29.2285 21 29.2285C21.7924 29.2285 22.5747 29.2105 23.3441 29.1755ZM13.8769 25.116C14.2731 25.8022 14.6798 26.4707 15.0949 27.1195C13.8229 26.9599 12.6136 26.7504 11.4833 26.4979C11.8298 25.3928 12.253 24.2409 12.7508 23.0595C13.1052 23.7433 13.4807 24.4297 13.8769 25.116ZM16.3725 29.0185C14.4649 28.8421 12.6604 28.5587 11.0048 28.184C10.8161 28.93 10.6667 29.6479 10.5571 30.3315C10.2721 32.1107 10.2654 33.6103 10.5094 34.7509C10.7534 35.8917 11.2228 36.5762 11.8125 36.9167C12.4022 37.2572 13.2298 37.3214 14.3397 36.9623C15.4495 36.6033 16.7448 35.8477 18.1432 34.7113C18.6804 34.2746 19.2274 33.7862 19.7791 33.2499C18.6267 32.0034 17.4791 30.5824 16.3725 29.0185ZM7.70031 25.3833C8.34707 25.6302 9.04351 25.8597 9.78387 26.0693C10.2872 24.4482 10.944 22.7437 11.745 21.0035C10.944 19.2633 10.2872 17.5588 9.78387 15.9376C9.04351 16.1473 8.34707 16.3767 7.70031 16.6237C6.01693 17.2664 4.71492 18.0104 3.84908 18.792C2.98315 19.5737 2.625 20.3225 2.625 21.0035C2.625 21.6845 2.98315 22.4332 3.84908 23.2149C4.71492 23.9965 6.01693 24.7405 7.70031 25.3833Z" fill="white"/>
</svg>
