<svg width="42" height="42" viewBox="0 0 42 42" fill="none" xmlns="http://www.w3.org/2000/svg">
<g clip-path="url(#clip0_2219_687)">
<path d="M19.6036 0.0112919C19.5133 0.0194942 19.2262 0.0482023 18.9679 0.0687081C13.0089 0.60596 7.4272 3.82127 3.892 8.76317C1.92345 11.511 0.664388 14.6278 0.188653 17.9293C0.0205058 19.0817 0 19.4221 0 20.9846C0 22.5472 0.0205058 22.8876 0.188653 24.04C1.32878 31.9183 6.93507 38.5376 14.5386 40.9901C15.9002 41.4289 17.3356 41.7283 18.9679 41.9088C19.6036 41.9785 22.3513 41.9785 22.987 41.9088C25.8045 41.5971 28.1914 40.8999 30.5455 39.6982C30.9064 39.5137 30.9761 39.4645 30.9269 39.4235C30.8941 39.3989 29.3561 37.336 27.5106 34.8425L24.1558 30.3107L19.9522 24.0892C17.6391 20.6688 15.7362 17.8719 15.7198 17.8719C15.7033 17.8678 15.6869 20.6319 15.6787 24.0072C15.6664 29.917 15.6623 30.1548 15.5885 30.2943C15.4819 30.4952 15.3999 30.5773 15.2276 30.6675C15.0964 30.7331 14.9815 30.7454 14.3623 30.7454H13.6528L13.4641 30.6265C13.3411 30.5485 13.2509 30.446 13.1893 30.3271L13.1032 30.1425L13.1114 21.9197L13.1237 13.6928L13.2509 13.5328C13.3165 13.4467 13.4559 13.336 13.5543 13.2827C13.7225 13.2006 13.7881 13.1924 14.4976 13.1924C15.3342 13.1924 15.4737 13.2252 15.691 13.4631C15.7526 13.5287 18.0287 16.9573 20.7519 21.0872C23.4751 25.217 27.1989 30.8561 29.028 33.6244L32.35 38.6565L32.5181 38.5458C34.0068 37.5779 35.5817 36.1999 36.8284 34.7645C39.4819 31.7174 41.1921 28.0017 41.7662 24.04C41.9344 22.8876 41.9549 22.5472 41.9549 20.9846C41.9549 19.4221 41.9344 19.0817 41.7662 17.9293C40.6261 10.0509 35.0198 3.43166 27.4163 0.979166C26.0752 0.544443 24.648 0.245058 23.0485 0.064607C22.6548 0.0235954 19.944 -0.0215174 19.6036 0.0112919ZM28.1914 12.7003C28.3882 12.7987 28.5482 12.9874 28.6056 13.1842C28.6384 13.2909 28.6466 15.5711 28.6384 20.7099L28.6261 28.0837L27.326 26.0906L26.0219 24.0974V18.7372C26.0219 15.2717 26.0383 13.3237 26.0629 13.2293C26.1285 12.9997 26.272 12.8192 26.4689 12.7126C26.637 12.6265 26.6986 12.6183 27.3424 12.6183C27.9494 12.6183 28.0561 12.6265 28.1914 12.7003Z" fill="white"/>
</g>
<defs>
<clipPath id="clip0_2219_687">
<rect width="42" height="42" fill="white"/>
</clipPath>
</defs>
</svg>
