<svg width="42" height="42" viewBox="0 0 42 42" fill="none" xmlns="http://www.w3.org/2000/svg">
<path d="M28.5056 7.91177L27.604 11.0447C27.5027 11.3969 27.8082 11.7321 28.1673 11.6627L31.9886 10.9234C32.3873 10.8462 32.7011 11.2612 32.5191 11.6252L21.6539 33.3623L21.4573 33.6669C21.1629 34.123 20.4571 33.8329 20.5667 33.3009L22.3195 24.7963C22.3947 24.4317 22.0532 24.1192 21.6977 24.2274L19.4048 24.9257C19.0498 25.0338 18.7085 24.7222 18.7827 24.3578L19.8857 18.9436C19.9571 18.5934 19.6432 18.2867 19.2959 18.367L15.5835 19.2259C15.2651 19.2995 14.9654 19.0457 14.9847 18.7186L15.6016 8.27411L2.90398 5.99887C2.08651 5.85239 1.46965 6.72835 1.88102 7.45152L20.2563 39.7547C20.6339 40.4184 21.5897 40.4144 21.9617 39.7476L39.9798 7.44841C40.3839 6.72381 39.7641 5.85464 38.9494 6.0035L28.5056 7.91177Z" fill="white"/>
<path d="M29.5728 1.25098C30.2401 1.21064 30.7699 1.85029 30.5786 2.51562L28.0884 11.168L31.894 10.4326L32.0425 10.4141C32.7768 10.3798 33.3096 11.1619 32.9663 11.8486L22.1011 33.5859L22.0894 33.6104L22.0737 33.6338L21.8774 33.9375C21.2797 34.8637 19.8569 34.268 20.0767 33.2002L21.8257 24.7109L19.5503 25.4043C18.8306 25.6232 18.1431 24.991 18.2925 24.2578L19.3931 18.8574L15.6958 19.7129C15.0506 19.8618 14.4473 19.3477 14.4858 18.6895L15.3062 4.80176L15.3296 4.63672C15.4161 4.26204 15.715 3.96398 16.103 3.8877L29.437 1.26855L29.5728 1.25098Z" stroke="white"/>
</svg>
