<svg width="42" height="42" viewBox="0 0 42 42" fill="none" xmlns="http://www.w3.org/2000/svg">
<path d="M40.5273 9.5826C40.5423 9.63826 40.55 9.69564 40.5502 9.75328V18.7136C40.5502 18.8286 40.5198 18.9416 40.4622 19.0411C40.4045 19.1406 40.3216 19.2232 40.2219 19.2804L32.7013 23.6103V32.1925C32.7013 32.4261 32.5772 32.6417 32.3746 32.7593L16.6761 41.7964C16.6401 41.8168 16.601 41.8298 16.5618 41.8437C16.5471 41.8486 16.5332 41.8576 16.5177 41.8617C16.4079 41.8906 16.2926 41.8906 16.1828 41.8617C16.1649 41.8568 16.1485 41.847 16.1314 41.8405C16.0954 41.8274 16.0579 41.816 16.0236 41.7964L0.328295 32.7593C0.228588 32.702 0.145741 32.6194 0.0881044 32.5199C0.0304681 32.4204 7.90026e-05 32.3075 0 32.1925L0 5.3115C0 5.2527 0.00816655 5.19554 0.0228663 5.14C0.0277662 5.12122 0.0391994 5.10407 0.0457326 5.08529C0.0579825 5.05099 0.0694156 5.01587 0.087382 4.98402C0.0996318 4.96279 0.117598 4.94564 0.132298 4.92604C0.151081 4.89991 0.168231 4.87296 0.19028 4.85009C0.209064 4.83131 0.233563 4.81742 0.254796 4.80109C0.278479 4.78149 0.299712 4.76026 0.326662 4.74474L8.17553 0.226193C8.2749 0.169011 8.38754 0.138916 8.50219 0.138916C8.61684 0.138916 8.72948 0.169011 8.82885 0.226193L16.6769 4.74474H16.6785C16.7047 4.76107 16.7267 4.78149 16.7504 4.80027C16.7716 4.81661 16.7953 4.83131 16.8141 4.84927C16.837 4.87296 16.8533 4.89991 16.8729 4.92604C16.8868 4.94564 16.9056 4.96279 16.917 4.98402C16.9358 5.01669 16.9464 5.05099 16.9595 5.08529C16.966 5.10407 16.9774 5.12122 16.9823 5.14082C16.9974 5.19647 17.0051 5.25385 17.0052 5.3115V22.1011L23.545 18.3355V9.75247C23.545 9.6953 23.5531 9.63732 23.5678 9.5826C23.5735 9.563 23.5842 9.54585 23.5907 9.52707C23.6038 9.49277 23.6152 9.45765 23.6332 9.4258C23.6454 9.40457 23.6634 9.38742 23.6773 9.36782C23.6969 9.34169 23.7132 9.31474 23.7361 9.29187C23.7548 9.27309 23.7785 9.25921 23.7998 9.24287C23.8243 9.22327 23.8455 9.20204 23.8716 9.18653L31.7213 4.66798C31.8206 4.61072 31.9333 4.58057 32.048 4.58057C32.1626 4.58057 32.2753 4.61072 32.3746 4.66798L40.2227 9.18653C40.2504 9.20286 40.2717 9.22328 40.2962 9.24206C40.3166 9.25839 40.3403 9.27309 40.3591 9.29106C40.3819 9.31474 40.3983 9.34169 40.4179 9.36782C40.4326 9.38742 40.4505 9.40457 40.462 9.4258C40.4807 9.45765 40.4914 9.49277 40.5044 9.52707C40.5118 9.54585 40.5224 9.563 40.5273 9.5826ZM39.2419 18.3355V10.8844L36.4955 12.4654L32.7013 14.6499V22.1011L39.2427 18.3355H39.2419ZM31.3938 31.8144V24.3583L27.6617 26.4898L17.0044 32.5722V40.0985L31.3938 31.8144ZM1.30828 6.44257V31.8144L15.6961 40.0977V32.5731L8.17961 28.3191L8.17716 28.3175L8.17389 28.3158C8.14858 28.3011 8.12734 28.2799 8.10366 28.2619C8.08325 28.2456 8.05956 28.2325 8.0416 28.2146L8.03996 28.2121C8.01873 28.1917 8.00403 28.1664 7.98606 28.1435C7.96973 28.1215 7.95013 28.1027 7.93706 28.0798L7.93625 28.0774C7.92155 28.0529 7.91256 28.0235 7.90195 27.9957C7.89133 27.9712 7.87745 27.9483 7.87091 27.9222C7.86275 27.8912 7.86111 27.8577 7.85785 27.8258C7.85458 27.8013 7.84805 27.7768 7.84805 27.7523V10.2082L4.05469 8.02279L1.30828 6.44257ZM8.50301 1.54754L1.96405 5.3115L8.50137 9.07546L15.0395 5.31068L8.50137 1.54754H8.50301ZM11.9036 25.0378L15.6969 22.8541V6.44257L12.9505 8.02361L9.15633 10.2082V26.6196L11.9036 25.0378ZM32.048 5.98932L25.5098 9.75328L32.048 13.5172L38.5853 9.75247L32.048 5.98932ZM31.3938 14.6499L27.5997 12.4654L24.8532 10.8844V18.3355L28.6466 20.5192L31.3938 22.1011V14.6499ZM16.3494 31.4412L25.9394 25.9663L30.7332 23.2305L24.1999 19.469L16.6777 23.7997L9.8219 27.7466L16.3494 31.4412Z" fill="white"/>
</svg>
