<svg width="42" height="42" viewBox="0 0 42 42" fill="none" xmlns="http://www.w3.org/2000/svg">
<path d="M17.1791 40.39C16.6606 40.39 16.1457 40.2543 15.6911 39.9931L10.9547 37.1946C10.2473 36.7997 10.5925 36.6601 10.8258 36.5796C11.7691 36.25 11.9605 36.1756 12.9673 35.605C13.0731 35.5447 13.2116 35.566 13.3199 35.6298L16.9586 37.7847C17.09 37.8556 17.2764 37.8556 17.3983 37.7847L31.5858 29.6118C31.7172 29.5373 31.8024 29.3849 31.8024 29.229V12.8903C31.8024 12.7272 31.7172 12.5819 31.5829 12.5004L17.4011 4.3346C17.2697 4.25663 17.0957 4.25663 16.9643 4.3346L2.7853 12.5004C2.64786 12.5784 2.5605 12.7308 2.5605 12.8867V29.2255C2.5605 29.3814 2.64573 29.5302 2.78068 29.6047L6.66582 31.8446C8.7753 32.8972 10.0644 31.6568 10.0644 30.4092V14.2831C10.0644 14.0528 10.2455 13.8756 10.4764 13.8756H12.2733C12.4971 13.8756 12.6818 14.0528 12.6818 14.2831V30.4163C12.6818 33.2233 11.1476 34.8359 8.48055 34.8359C7.66019 34.8359 7.01385 34.8359 5.20978 33.9499L1.488 31.8092C0.568211 31.2775 0 30.2852 0 29.2255V12.8867C0 11.8235 0.568211 10.8311 1.488 10.3066L15.6897 2.13011C16.5882 1.6233 17.7814 1.6233 18.6728 2.13011L32.8568 10.3101C33.773 10.8382 34.3448 11.827 34.3448 12.8903V29.229C34.3448 30.2887 33.773 31.2775 32.8568 31.8092L18.6728 39.9856C18.2183 40.2479 17.7033 40.3826 17.1777 40.3826" fill="white"/>
<path d="M21.5615 29.1315C15.3538 29.1315 14.0522 26.2877 14.0522 23.9024C14.0522 23.6756 14.2355 23.4948 14.4631 23.4948H16.2956C16.498 23.4948 16.6685 23.6419 16.7004 23.8415C16.9774 25.705 17.8013 26.6449 21.5551 26.6449C24.5453 26.6449 25.8167 25.9708 25.8167 24.3883C25.8167 23.4775 25.4544 22.8005 20.8093 22.3469C16.9242 21.9641 14.5235 21.11 14.5235 18.0088C14.5235 15.1522 16.9384 13.451 20.9833 13.451C25.5254 13.451 27.777 15.0246 28.0611 18.4057C28.0717 18.5227 28.0291 18.6361 27.951 18.7212C27.8729 18.8027 27.7628 18.8523 27.6491 18.8523H25.806C25.6142 18.8523 25.4473 18.7176 25.4083 18.5333C24.9643 16.5734 23.8918 15.9461 20.9762 15.9461C17.7126 15.9461 17.3326 17.0802 17.3326 17.9308C17.3326 18.9622 17.78 19.2634 22.1837 19.8447C26.5447 20.4224 28.6151 21.2375 28.6151 24.2962C28.6151 27.3796 26.0368 29.1482 21.5409 29.1482M38.8216 11.8206H39.2974C39.6881 11.8206 39.7627 11.5477 39.7627 11.3882C39.7627 10.97 39.475 10.97 39.3152 10.97H38.8251L38.8216 11.8206ZM38.2427 10.4809H39.2974C39.6597 10.4809 40.37 10.4809 40.37 11.289C40.37 11.8525 40.0077 11.9695 39.7911 12.0404C40.2137 12.0687 40.2421 12.3452 40.2989 12.735C40.3273 12.9796 40.3735 13.4013 40.4587 13.5431H39.8088C39.7911 13.4013 39.6916 12.6216 39.6916 12.5791C39.649 12.4054 39.5887 12.3204 39.372 12.3204H38.8358V13.5467H38.2427V10.4809ZM36.9749 12.0049C36.9749 13.2738 38.0012 14.3016 39.2619 14.3016C40.5333 14.3016 41.5596 13.2525 41.5596 12.0049C41.5596 10.7326 40.5191 9.72247 39.2584 9.72247C38.0154 9.72247 36.9713 10.7184 36.9713 12.0014M42 12.012C42 13.5148 40.7677 14.741 39.2655 14.741C37.7739 14.741 36.531 13.5289 36.531 12.012C36.531 10.4667 37.8023 9.28299 39.2655 9.28299C40.7393 9.28299 41.9964 10.4703 41.9964 12.012" fill="white"/>
</svg>
