<svg width="42" height="42" viewBox="0 0 42 42" fill="none" xmlns="http://www.w3.org/2000/svg">
<g clip-path="url(#clip0_2219_710)">
<path d="M35.315 37.7126H29.645L30.0475 32.9351H27.265L26.8625 37.7126H15.1375L14.735 32.9351H11.9525L12.355 37.7126H6.685L3.5 17.0276L11.4625 4.2876H30.5375L38.5 17.0276L35.315 37.7126ZM28.9625 10.6576H23.835L24.185 13.0376H17.815L18.165 10.6576H13.0375L9.87 17.0276L11.4625 29.7501H30.5375L32.13 17.0276L28.9625 10.6576ZM26.25 25.5326C25.8125 25.5326 25.4625 24.2026 25.4625 22.5751C25.4625 20.9476 25.8125 19.6001 26.25 19.6001C26.6875 19.6001 27.055 20.9301 27.055 22.5751C27.055 24.2201 26.705 25.5326 26.25 25.5326ZM16.2225 25.7776C15.75 25.7776 15.33 24.5001 15.33 22.7501C15.33 21.0001 15.68 19.7926 16.135 19.7926C16.59 19.7926 16.9225 21.1051 16.9225 22.7501C16.9225 24.3951 16.5725 25.7776 16.135 25.7776H16.2225Z" fill="white"/>
</g>
<defs>
<clipPath id="clip0_2219_710">
<rect width="42" height="42" fill="white"/>
</clipPath>
</defs>
</svg>
