<svg width="42" height="42" viewBox="0 0 42 42" fill="none" xmlns="http://www.w3.org/2000/svg">
<g clip-path="url(#clip0_2219_696)">
<path d="M27.6924 0C27.447 0 27.2002 0.06825 26.9889 0.198187C26.3326 0.588 25.2393 1.68919 23.9334 3.28913L23.6604 3.62381C23.31 4.05431 22.9477 4.52025 22.5789 5.01113C21.3294 6.68588 20.1534 8.42231 19.0522 10.2073L19.0168 10.269L18.9341 10.3989C17.8618 12.1485 16.8643 13.9545 15.9468 15.792C15.2223 17.2476 14.5805 18.7386 14.0201 20.2637C13.8626 20.7008 13.7195 21.1247 13.583 21.5355C13.4728 21.8833 13.3717 22.2324 13.2746 22.5803C13.0423 23.394 12.8375 24.2143 12.6721 25.0281L12.6511 25.137C12.453 26.1148 12.3243 27.0992 12.2416 28.098L12.2351 28.1991C11.7508 27.4129 10.4383 26.649 10.4383 26.6543C11.382 28.0153 12.092 29.3685 12.1957 30.6954C11.697 30.7991 11.0053 30.6482 10.206 30.3542C11.0407 31.1194 11.6615 31.3307 11.9017 31.3871C11.1418 31.4344 10.349 31.9607 9.5497 32.5618C10.7191 32.0841 11.6615 31.8937 12.3388 32.0486C11.1903 35.3364 10.1088 38.6597 9.11133 42.0026C9.41977 41.9134 9.65864 41.6811 9.74658 41.3818C9.94608 40.7374 11.2166 36.5059 13.2129 30.9435L13.3822 30.4644L13.4308 30.3345C13.6421 29.7531 13.8613 29.1585 14.087 28.5495L14.238 28.1334L14.2445 28.1269C14.4493 27.5743 14.6606 27.0073 14.8798 26.4377L14.9756 26.2001L15.0635 25.9599L15.1383 25.7814L15.0635 25.9665L14.9756 26.2001L14.8798 26.4377C14.6606 27.0073 14.4493 27.5743 14.2445 28.1269L14.4283 28.4878L14.5923 28.4681L14.6133 28.4196C14.8798 27.6885 15.1383 26.9771 15.4061 26.2881L15.4126 26.2605C15.1383 26.9784 14.8719 27.7029 14.6133 28.4196L14.5923 28.4681L14.4755 28.7884C14.2708 29.3554 14.0595 29.9368 13.8547 30.5248L13.8481 30.5524L13.7589 30.8057C13.6158 31.2008 13.4925 31.563 13.2195 32.3767C13.6762 32.5881 14.045 33.1433 14.3955 33.7641C14.36 33.1013 14.066 32.4844 13.5817 32.0355C15.851 32.1366 17.8066 31.563 18.8173 29.9093C18.9065 29.7583 18.9892 29.6008 19.064 29.4367C18.606 30.0182 18.0311 30.2649 16.9575 30.2032C18.5377 29.4984 19.3305 28.8225 20.0274 27.6938C20.2059 27.4142 20.37 27.1202 20.5209 26.8183C19.1401 28.2345 17.5455 28.6361 15.8576 28.3303L15.7841 28.3159C17.2948 28.1308 19.3029 27.0034 20.6023 25.6082C21.1968 24.9664 21.7455 24.2064 22.2442 23.3244C22.6209 22.6616 22.9687 21.9292 23.3034 21.1234C23.5974 20.4133 23.8796 19.6481 24.1447 18.8199C23.6998 19.0457 23.222 19.1966 22.7285 19.2714C22.6458 19.2859 22.5658 19.2977 22.491 19.3121L22.4962 19.3056C22.571 19.299 22.6537 19.2859 22.7285 19.2728C22.8033 19.2596 22.886 19.2452 22.9608 19.2242L22.7285 19.2728L22.4962 19.3056C23.9045 18.7661 24.7865 17.7201 25.4296 16.443C24.9165 16.7987 24.3429 17.0428 23.7405 17.1872C23.6394 17.2082 23.5423 17.2292 23.4412 17.2436L23.3664 17.2489H23.3782L23.4412 17.2436C23.5291 17.2226 23.6184 17.2082 23.7142 17.1872L23.7339 17.1806L23.7076 17.1872L23.3716 17.2489C23.8586 17.0441 24.2681 16.8118 24.6225 16.5454C24.8836 16.3406 25.1278 16.1149 25.3404 15.8616C25.4835 15.6988 25.6147 15.5137 25.7381 15.3221L25.8483 15.1371L25.9848 14.8706C26.2224 14.3863 26.4416 13.8876 26.6266 13.3809L26.6805 13.23C26.7277 13.0791 26.7763 12.9426 26.8025 12.8258C26.8511 12.6538 26.8773 12.5173 26.8983 12.4163C26.8445 12.4569 26.7894 12.4989 26.7343 12.5252C26.3038 12.7864 25.5793 13.0121 24.9913 13.1198L24.8141 13.1408L20.849 13.5778L20.828 13.6185L20.6915 13.8981L20.282 14.7538C20.4185 14.4598 20.555 14.1724 20.6915 13.8981L20.828 13.6185C20.8346 13.6041 20.8425 13.5923 20.849 13.5778L20.6981 13.5922L20.5826 13.3599C20.3568 13.8049 20.1376 14.2485 19.9198 14.6934L19.5641 15.4376C18.9013 16.8328 18.266 18.2346 17.657 19.6494C17.0008 21.1601 16.3708 22.6774 15.7631 24.2012L15.914 23.8245C16.4745 22.4228 17.0546 21.0302 17.657 19.6494C18.266 18.2332 18.9013 16.8249 19.5641 15.4376L19.9198 14.6934C20.1311 14.2682 20.3358 13.8442 20.5485 13.4282L20.5826 13.3599C20.9173 12.6971 21.2546 12.0474 21.5958 11.4056C21.9646 10.7284 22.3348 10.0577 22.7036 9.40931C23.0855 8.75306 23.4753 8.09681 23.8796 7.455L23.9544 7.33819C24.3429 6.72394 24.7406 6.1215 25.1356 5.5545C25.9428 4.38506 26.8314 3.27075 27.8026 2.23125L27.699 2.3415C27.4194 2.64994 26.5715 3.633 25.2931 5.60175C26.523 5.54006 28.4169 5.28806 29.9551 5.02031C30.4211 2.44913 29.5102 1.27575 29.5102 1.27575C29.5102 1.27575 28.7319 0.0170625 27.699 0.0039375L27.6924 0ZM24.8154 13.1394C25.9704 12.6052 26.4836 12.1275 26.9889 11.4293C27.1188 11.2389 27.2553 11.0408 27.384 10.8294C27.7948 10.1929 28.1911 9.49594 28.5455 8.79769C28.896 8.12175 29.1965 7.45894 29.4275 6.8565C29.5653 6.51525 29.6808 6.15956 29.7845 5.80256C29.8528 5.52956 29.9145 5.271 29.9538 5.01638C28.409 5.28413 26.5151 5.53612 25.2853 5.58994C24.8613 6.23962 24.4597 6.89587 24.0686 7.55869C23.7129 8.16112 23.3296 8.82394 22.928 9.54844C22.2035 10.8675 21.5053 12.2141 20.8425 13.5686L24.8075 13.1381L24.8154 13.1394ZM31.1587 3.84825V3.96506H31.4317V4.73025H31.5616V3.96506H31.8346V3.84825H31.1587ZM31.9725 3.84825V4.73025H32.088V4.03331L32.3885 4.641H32.4712L32.7718 4.03331V4.73025H32.8807V3.84825H32.7298L32.4292 4.46381L32.1208 3.84825H31.9725ZM24.9585 13.125L24.78 13.1526L24.9585 13.1171V13.125ZM19.8174 15.7146L19.5851 16.2146C19.0325 17.4234 18.4918 18.6401 17.9733 19.8647C17.3709 21.2861 16.7908 22.7089 16.229 24.1434C15.9705 24.8063 15.704 25.4822 15.4428 26.1804L15.4284 26.208C16.6871 22.8231 18.0678 19.488 19.5851 16.2133L19.8174 15.7146Z" fill="white"/>
</g>
<defs>
<clipPath id="clip0_2219_696">
<rect width="42" height="42" fill="white"/>
</clipPath>
</defs>
</svg>
