<svg width="42" height="42" viewBox="0 0 42 42" fill="none" xmlns="http://www.w3.org/2000/svg">
<g clip-path="url(#clip0_2219_681)">
<path fill-rule="evenodd" clip-rule="evenodd" d="M4.10156 0H37.8984C40.1637 0 42 1.83633 42 4.10156V37.8984C42 40.1637 40.1637 42 37.8984 42H4.10156C1.83633 42 0 40.1637 0 37.8984V4.10156C0 1.83633 1.83633 0 4.10156 0ZM25.9989 37.5281V33.4215C26.7435 34.0461 27.5523 34.5145 28.4253 34.8267C29.2984 35.139 30.1799 35.2951 31.07 35.2951C31.5921 35.2951 32.0478 35.2481 32.4373 35.1539C32.8267 35.0598 33.1519 34.9294 33.413 34.7625C33.674 34.5957 33.8687 34.399 33.9971 34.1723C34.1255 33.9455 34.1897 33.6996 34.1897 33.4344C34.1897 33.075 34.087 32.7542 33.8816 32.4719C33.6761 32.1896 33.3958 31.9286 33.0406 31.6891C32.6855 31.4496 32.264 31.2186 31.7761 30.9961C31.2883 30.7736 30.7619 30.547 30.197 30.316C28.7591 29.7171 27.6871 28.9856 26.9811 28.1215C26.2749 27.2574 25.9219 26.2137 25.9219 24.9902C25.9219 24.032 26.1145 23.2086 26.4996 22.52C26.8848 21.8312 27.4089 21.2645 28.0722 20.8195C28.7356 20.3747 29.5038 20.0475 30.3767 19.8379C31.2497 19.6283 32.1741 19.5234 33.1498 19.5234C34.1083 19.5234 34.9579 19.5812 35.6982 19.6967C36.4385 19.8122 37.1211 19.9897 37.7459 20.2292V24.0663C37.4378 23.8524 37.1018 23.6642 36.7381 23.5016C36.3743 23.3391 35.9999 23.2043 35.6148 23.0974C35.2296 22.9905 34.8465 22.9113 34.4657 22.86C34.0848 22.8087 33.7232 22.783 33.3809 22.783C32.9101 22.783 32.4822 22.8279 32.097 22.9177C31.7119 23.0076 31.3867 23.1338 31.1213 23.2963C30.8561 23.4589 30.6507 23.6535 30.5051 23.8802C30.3596 24.1069 30.2868 24.3615 30.2868 24.6437C30.2868 24.9518 30.3682 25.2276 30.5308 25.4715C30.6934 25.7153 30.9245 25.9463 31.224 26.1645C31.5236 26.3826 31.8874 26.5965 32.3153 26.8062C32.7433 27.0158 33.2268 27.2317 33.766 27.4542C34.5021 27.7622 35.1633 28.0894 35.7495 28.4359C36.3358 28.7824 36.8387 29.1738 37.258 29.6102C37.6774 30.0465 37.9984 30.5448 38.2209 31.1052C38.4435 31.6655 38.5547 32.3179 38.5547 33.0622C38.5547 34.0888 38.3599 34.9507 37.9705 35.648C37.5811 36.3453 37.0526 36.91 36.385 37.3419C35.7175 37.774 34.9407 38.0842 34.0549 38.2723C33.169 38.4606 32.234 38.5547 31.2497 38.5547C30.2398 38.5547 29.2791 38.4691 28.3676 38.298C27.456 38.1269 26.6665 37.8703 25.9989 37.5281ZM24.3633 23.3036H19.0952V38.3086H14.922V23.3036H9.67969V19.9336H24.3633V23.3036Z" fill="white"/>
</g>
<defs>
<clipPath id="clip0_2219_681">
<rect width="42" height="42" fill="white"/>
</clipPath>
</defs>
</svg>
