<svg width="42" height="42" viewBox="0 0 42 42" fill="none" xmlns="http://www.w3.org/2000/svg">
<g clip-path="url(#clip0_2219_680)">
<path fill-rule="evenodd" clip-rule="evenodd" d="M0 0H42V42H0V0ZM32.1068 35.2093C30.1602 35.2093 29.0595 34.194 28.2135 32.8127L25.0062 34.676C26.1648 36.9653 28.5328 38.712 32.1982 38.712C35.9468 38.712 38.7382 36.7653 38.7382 33.212C38.7382 29.916 36.8448 28.45 33.4915 27.012L32.5048 26.5893C30.8115 25.856 30.0782 25.3767 30.0782 24.1927C30.0782 23.2347 30.8108 22.5013 31.9668 22.5013C33.1002 22.5013 33.8302 22.9793 34.5068 24.1927L37.5802 22.2193C36.2802 19.9327 34.4762 19.0593 31.9668 19.0593C28.4422 19.0593 26.1868 21.3127 26.1868 24.2727C26.1868 27.486 28.0788 29.006 30.9268 30.2193L31.9135 30.6427C33.7135 31.43 34.7868 31.9093 34.7868 33.2627C34.7868 34.392 33.7422 35.2093 32.1068 35.2093ZM16.8115 35.1847C15.4555 35.1847 14.8915 34.2547 14.2715 33.1547L11.0588 35.0997C11.9895 37.0693 13.8195 38.7047 16.9795 38.7047C20.4768 38.7047 22.8728 36.8447 22.8728 32.758V19.2847H18.9262V32.7047C18.9262 34.6773 18.1082 35.1847 16.8115 35.1847Z" fill="white"/>
</g>
<defs>
<clipPath id="clip0_2219_680">
<rect width="42" height="42" fill="white"/>
</clipPath>
</defs>
</svg>
