<svg width="42" height="42" viewBox="0 0 42 42" fill="none" xmlns="http://www.w3.org/2000/svg">
<path d="M27.3052 29.6794C23.4031 29.7346 19.6822 30.4315 16.2172 31.6666L16.4574 31.5918C11.7534 33.193 11.6169 33.8033 7.35387 33.3019C5.09899 32.9568 3.06856 32.3176 1.18774 31.4172L1.31899 31.4736C3.54499 33.2665 6.28681 34.5081 9.28718 34.9518L9.37774 34.9623C12.5855 34.7667 15.557 33.9319 18.2253 32.584L18.0954 32.6431C21.0026 31.6272 24.3534 31.0392 27.842 31.0392C28.0218 31.0392 28.2003 31.0405 28.3788 31.0444H28.3526C32.8636 31.3279 37.0741 32.0459 41.1192 33.1628L40.6835 33.0604C38.3328 31.9383 35.5792 30.9696 32.7114 30.295L32.4279 30.2386C30.9224 29.8842 29.1939 29.6808 27.4181 29.6808C27.3787 29.6808 27.3393 29.6808 27.2999 29.6808H27.3065L27.3052 29.6794ZM37.4954 22.9909L8.10331 27.9916C9.58249 28.5153 10.6246 29.9013 10.6246 31.5314C10.6246 31.5865 10.6233 31.6416 10.6207 31.6954V31.6876C10.6062 32.0498 10.5446 32.3911 10.4396 32.7153L10.4474 32.689C13.4216 31.3227 16.8997 30.1716 20.5209 29.4104L20.849 29.3526C22.7889 28.9116 25.0162 28.6596 27.3026 28.6596C28.661 28.6596 29.9997 28.7489 31.3109 28.9221L31.1574 28.9051C32.3491 26.1239 34.6158 23.995 37.4206 23.0133L37.4954 22.9909ZM13.1932 7.07951C13.1932 7.07951 17.1399 8.82776 18.6479 16.1778C18.9577 17.3065 19.1362 18.6033 19.1362 19.9407C19.1362 22 18.7149 23.9609 17.9523 25.7419L17.9891 25.6461C20.1521 23.5986 23.0789 22.3413 26.2998 22.3413C27.4207 22.3413 28.5048 22.4935 29.5351 22.7783L29.4498 22.7586C28.8434 19.0049 27.2501 15.7 24.9466 13.0225L24.9689 13.0488C22.1759 9.53914 17.9681 7.25932 13.2221 7.07951H13.1932ZM10.2781 7.01913C12.3138 9.93157 13.6329 13.4819 13.9098 17.3209L13.9137 17.3879C13.9571 17.8919 13.9807 18.4773 13.9807 19.0692C13.9807 21.5538 13.5528 23.9386 12.7653 26.1528L12.8112 26.0044C14.0004 24.5922 15.7184 23.6577 17.657 23.5081L17.6806 23.5068C17.762 23.5002 17.8434 23.4963 17.9234 23.4936C18.0324 22.7022 18.0941 21.7874 18.0941 20.8581C18.0941 17.8446 17.4404 14.9834 16.2684 12.4096L16.3209 12.5369C15.1856 9.9132 13.0186 7.9182 10.3464 7.03751L10.2768 7.01782L10.2781 7.01913Z" fill="white"/>
</svg>
