<svg width="42" height="42" viewBox="0 0 42 42" fill="none" xmlns="http://www.w3.org/2000/svg">
<path d="M41.5854 18.2275C41.4715 18.1381 40.4066 17.345 38.1603 17.345C37.567 17.3476 36.9754 17.3975 36.3908 17.4948C35.9561 14.5553 33.5696 13.174 33.4591 13.11L32.8562 12.7665L32.4591 13.3309C31.9622 14.0899 31.5231 14.8734 31.3101 15.7525C30.9078 17.4308 31.1524 19.0067 32.0165 20.3538C30.9718 20.9278 29.1918 20.9787 28.8535 20.9909H1.31763C0.593692 20.9918 0.00648003 21.5694 0.00209785 22.2828C-0.0303303 24.6781 0.311479 27.1496 1.14672 29.3986C2.10116 31.8684 3.52186 33.6878 5.36939 34.8009C7.43953 36.0516 10.8033 36.7668 14.6167 36.7668C16.3389 36.772 18.0584 36.6186 19.7517 36.3075C22.1058 35.8807 24.3714 35.0691 26.4538 33.9061C28.1699 32.9253 29.7141 31.6782 31.0279 30.2119C33.2234 27.7596 34.531 25.0295 35.5039 22.6027C35.6345 22.6027 35.765 22.6027 35.8912 22.6027C38.2953 22.6027 39.773 21.6535 40.5881 20.8586C41.1297 20.3511 41.553 19.7332 41.8273 19.0487L42 18.5509L41.5854 18.2275Z" fill="white"/>
<path d="M6.94259 20.1145H4.31328C3.82949 20.1145 3.43685 19.7218 3.43685 19.2381V16.6087C3.43685 16.125 3.82949 15.7323 4.31328 15.7323H6.94259C7.42638 15.7323 7.81902 16.125 7.81902 16.6087V19.2381C7.81902 19.7218 7.42638 20.1145 6.94259 20.1145Z" fill="white"/>
<path d="M12.2012 20.1145H9.57189C9.0881 20.1145 8.69546 19.7218 8.69546 19.2381V16.6087C8.69546 16.125 9.0881 15.7323 9.57189 15.7323H12.2012C12.685 15.7323 13.0776 16.125 13.0776 16.6087V19.2381C13.0776 19.7218 12.685 20.1145 12.2012 20.1145Z" fill="white"/>
<path d="M17.4598 20.1145H14.8305C14.3467 20.1145 13.9541 19.7218 13.9541 19.2381V16.6087C13.9541 16.125 14.3467 15.7323 14.8305 15.7323H17.4598C17.9436 15.7323 18.3362 16.125 18.3362 16.6087V19.2381C18.3362 19.7218 17.9436 20.1145 17.4598 20.1145Z" fill="white"/>
<path d="M22.7184 20.1145H20.0891C19.6053 20.1145 19.2127 19.7218 19.2127 19.2381V16.6087C19.2127 16.125 19.6053 15.7323 20.0891 15.7323H22.7184C23.2022 15.7323 23.5949 16.125 23.5949 16.6087V19.2381C23.5949 19.7218 23.2022 20.1145 22.7184 20.1145Z" fill="white"/>
<path d="M12.2012 14.8559H9.57189C9.0881 14.8559 8.69546 14.4632 8.69546 13.9794V11.3501C8.69546 10.8663 9.0881 10.4737 9.57189 10.4737H12.2012C12.685 10.4737 13.0776 10.8663 13.0776 11.3501V13.9794C13.0776 14.4632 12.685 14.8559 12.2012 14.8559Z" fill="white"/>
<path d="M17.4598 14.8559H14.8305C14.3467 14.8559 13.9541 14.4632 13.9541 13.9794V11.3501C13.9541 10.8663 14.3467 10.4737 14.8305 10.4737H17.4598C17.9436 10.4737 18.3362 10.8663 18.3362 11.3501V13.9794C18.3362 14.4632 17.9436 14.8559 17.4598 14.8559Z" fill="white"/>
<path d="M22.7184 14.8559H20.0891C19.6053 14.8559 19.2127 14.4632 19.2127 13.9794V11.3501C19.2127 10.8663 19.6053 10.4737 20.0891 10.4737H22.7184C23.2022 10.4737 23.5949 10.8663 23.5949 11.3501V13.9794C23.5949 14.4632 23.2022 14.8559 22.7184 14.8559Z" fill="white"/>
<path d="M22.7184 9.59726H20.0891C19.6053 9.59726 19.2127 9.20462 19.2127 8.72083V6.09152C19.2127 5.60773 19.6053 5.21509 20.0891 5.21509H22.7184C23.2022 5.21509 23.5949 5.60773 23.5949 6.09152V8.72083C23.5949 9.20462 23.2022 9.59726 22.7184 9.59726Z" fill="white"/>
<path d="M27.977 20.1145H25.3477C24.8639 20.1145 24.4713 19.7218 24.4713 19.2381V16.6087C24.4713 16.125 24.8639 15.7323 25.3477 15.7323H27.977C28.4608 15.7323 28.8535 16.125 28.8535 16.6087V19.2381C28.8535 19.7218 28.4608 20.1145 27.977 20.1145Z" fill="white"/>
</svg>
