<svg width="42" height="42" viewBox="0 0 42 42" fill="none" xmlns="http://www.w3.org/2000/svg">
<path d="M3.32357 14.9392H9.55236C11.3806 14.9546 12.7053 15.4817 13.5267 16.5196C14.3481 17.5576 14.6191 18.9754 14.3402 20.7729C14.2318 21.5942 13.9915 22.3998 13.6197 23.19C13.2631 23.9803 12.7676 24.6929 12.1322 25.3283C11.3573 26.1338 10.5285 26.6452 9.64533 26.8622C8.76214 27.0793 7.84782 27.1876 6.9028 27.1876H4.11379L3.2306 31.6035H0L3.32357 14.9392ZM6.04285 17.5888L4.64835 24.5613C4.74132 24.5766 4.83428 24.5845 4.92725 24.5845C5.03557 24.5845 5.14432 24.5845 5.25264 24.5845C6.74011 24.5999 7.97981 24.453 8.97132 24.1429C9.96282 23.8176 10.6294 22.6866 10.9701 20.7496C11.249 19.1227 10.9701 18.1852 10.1334 17.9374C9.31205 17.6896 8.28196 17.5734 7.04225 17.5888C6.85632 17.6041 6.67828 17.612 6.50769 17.612C6.35289 17.612 6.1902 17.612 6.01961 17.612L6.04285 17.5888Z" fill="white"/>
<path d="M18.0202 10.5H21.2275L20.3211 14.9392H23.2031C24.7835 14.9703 25.9609 15.2957 26.7358 15.9153C27.526 16.535 27.7584 17.7128 27.4331 19.4481L25.8759 27.1876H22.622L24.1095 19.7967C24.2643 19.0218 24.2178 18.4719 23.97 18.1465C23.7223 17.8212 23.1877 17.6585 22.3664 17.6585L19.7865 17.6352L17.8807 27.1876H14.6733L18.0202 10.5Z" fill="white"/>
<path d="M30.8773 14.9392H37.1061C38.9343 14.9546 40.2591 15.4817 41.0804 16.5196C41.9018 17.5576 42.1728 18.9754 41.8939 20.7729C41.7856 21.5942 41.5452 22.3998 41.1734 23.19C40.8169 23.9803 40.3213 24.6929 39.6859 25.3283C38.911 26.1338 38.0822 26.6452 37.199 26.8622C36.3159 27.0793 35.4015 27.1876 34.4565 27.1876H31.6675L30.7843 31.6035H27.5537L30.8773 14.9392ZM33.5966 17.5888L32.2021 24.5613C32.295 24.5766 32.388 24.5845 32.481 24.5845C32.5893 24.5845 32.698 24.5845 32.8063 24.5845C34.2938 24.5999 35.5335 24.453 36.525 24.1429C37.5165 23.8176 38.1831 22.6866 38.5238 20.7496C38.8027 19.1227 38.5238 18.1852 37.6871 17.9374C36.8658 17.6896 35.8357 17.5734 34.596 17.5888C34.41 17.6041 34.232 17.612 34.0614 17.612C33.9066 17.612 33.7439 17.612 33.5733 17.612L33.5966 17.5888Z" fill="white"/>
</svg>
