<svg width="42" height="42" viewBox="0 0 42 42" fill="none" xmlns="http://www.w3.org/2000/svg">
<path d="M29.1544 0C29.0324 0 28.9563 0.0616875 28.867 0.164062C28.6898 0.375375 28.6413 0.662813 28.7449 0.914813C29.0796 1.63406 29.3802 2.37038 29.6676 3.10275C29.6886 3.14475 29.7096 3.17756 29.7359 3.22744C29.6676 3.22088 29.6466 3.18544 29.6269 3.15262C29.1072 2.60531 28.4916 2.17481 27.884 1.74431C27.0558 1.15631 26.1462 0.693 25.2524 0.2205C25.1356 0.158812 25.0056 0.116812 24.8757 0.105L24.205 0.03675C23.8493 -0.0118125 23.5842 0.192937 23.5842 0.547312C23.5842 0.732375 23.5015 0.773063 23.344 0.7875C23.2075 0.794063 23.0146 0.99225 23.0028 1.13006C22.9463 1.533 23.0973 1.93463 23.3978 2.21025C24.1761 2.93475 24.9295 3.6855 25.6816 4.43756L25.7078 4.452C25.7288 4.473 25.7433 4.49269 25.7564 4.52025C25.742 4.52681 25.7288 4.52681 25.721 4.52681C25.7013 4.52025 25.6737 4.50581 25.6593 4.48481C25.6527 4.48481 25.6527 4.47956 25.6527 4.473C25.5438 4.41131 25.427 4.34831 25.3259 4.28006C24.7996 3.93225 24.2864 3.57656 23.7601 3.23531C23.5199 3.06337 23.2403 2.961 22.9529 2.94131C22.6943 2.90587 22.4397 2.99512 22.2638 3.18675C22.1391 3.30356 22.0853 3.46631 22.1129 3.63169C22.1391 3.885 22.3111 4.04775 22.5014 4.179C23.3768 4.767 24.1643 5.46394 24.8954 6.23044C24.9571 6.29869 25.0253 6.3735 25.0936 6.42862C25.2983 6.60056 25.4283 6.81844 25.5516 7.04944C25.6133 7.15969 25.5844 7.18069 25.4768 7.18069C24.7313 7.18069 24.0134 7.38544 23.2941 7.53638C23.0014 7.60463 22.7127 7.69913 22.6051 8.02856C22.4948 8.39738 22.441 8.60213 22.8846 8.71238C23.7811 8.94338 24.6486 9.24394 25.4952 9.61406C25.5634 9.65606 25.6383 9.69675 25.7013 9.75056C25.906 9.93562 26.0963 10.1338 26.33 10.2847C27.0006 10.7152 27.6753 11.1195 28.4706 11.3033C28.5586 11.3243 28.6399 11.3715 28.7292 11.3925C28.8184 11.4188 28.8801 11.4673 28.8933 11.5566C28.9471 11.8624 29.1387 12.0409 29.4248 12.1301C29.4668 12.1446 29.4931 12.1629 29.5351 12.1839C29.6243 12.2115 29.665 12.2798 29.6991 12.3677C29.8146 12.7929 29.9367 13.209 30.068 13.6185C30.1152 13.7616 30.0679 13.797 29.9433 13.8377C29.2936 14.0228 28.6452 14.2209 27.9955 14.4191C27.7632 14.4874 27.7632 14.4939 27.88 14.7066L29.4721 17.5639C29.6913 17.9681 29.6978 17.9681 30.1073 17.7621C30.148 17.7424 30.211 17.6676 30.2438 17.7358C30.2858 17.7975 30.3541 17.8933 30.2858 17.9616C30.0863 18.1873 29.9564 18.4538 29.7858 18.7005C29.7319 18.7753 29.732 18.8304 29.7805 18.9053C29.9577 19.1927 30.1362 19.4867 30.3055 19.7807C30.3265 19.8135 30.362 19.8555 30.3541 19.8817L30.1428 20.5262C30.0181 20.0812 29.8343 19.656 29.5876 19.2754C29.2726 18.7701 28.8696 18.3251 28.5008 17.8526C28.447 17.7844 28.3788 17.7161 28.3105 17.6544C27.9601 17.2922 27.5112 17.073 27.0859 16.8131C26.9022 16.7042 26.704 16.6294 26.4927 16.5939C25.8364 16.4509 25.1868 16.4036 24.5305 16.6005C24.3993 16.6425 24.3245 16.6071 24.2483 16.4994C24.0856 16.2737 23.9543 16.0204 23.743 15.8432C23.218 15.4245 22.6628 15.0439 22.0145 14.8247C21.5301 14.6528 21.017 14.5504 20.5038 14.5307C20.2295 14.5241 19.963 14.5372 19.69 14.5569C18.9983 14.6134 18.3093 14.6882 17.6937 15.0701C17.5782 15.1449 17.4351 15.1948 17.3118 15.2631C16.6818 15.6043 16.061 15.939 15.5333 16.4509C14.9781 16.9772 14.461 17.5258 13.9596 18.1059C13.3992 18.7766 12.9687 19.5339 12.5933 20.3201C12.5671 20.3766 12.5526 20.4448 12.4713 20.4842L12.26 19.1861C12.2455 19.1034 12.3006 19.1113 12.3545 19.1179C12.5054 19.1389 12.655 19.1454 12.8125 19.1651C12.9293 19.1861 12.9976 19.1586 13.0238 19.0221C13.0658 18.8449 13.1065 18.6664 13.1406 18.4826C13.2837 17.7844 13.4885 17.1137 13.6722 16.4312C13.7076 16.2999 13.6788 16.2592 13.5501 16.2264C12.8795 16.0689 12.2101 15.8839 11.5486 15.7264C11.4173 15.7001 11.3556 15.6516 11.3976 15.5151C11.5486 14.9953 11.6168 14.4493 11.8216 13.944C11.8426 13.8823 11.8754 13.8337 11.9161 13.7931C12.088 13.6566 12.2166 13.5056 12.1983 13.2589C12.1917 13.0817 12.2731 12.9649 12.4437 12.8901C12.7653 12.7391 13.0737 12.5632 13.3743 12.3847C13.6118 12.2482 13.8113 12.0435 13.9478 11.8033C14.5083 10.7441 14.9781 9.62981 15.6554 8.63231C15.7171 8.54306 15.7656 8.44725 15.8339 8.37112C16.2788 7.90781 16.6883 7.42087 17.1792 7.00481C17.3367 6.87487 17.3787 6.69637 17.3853 6.50606C17.3853 6.28687 17.254 6.12938 17.1175 5.97188C16.9876 5.82094 16.859 5.69231 16.6332 5.71987C16.5846 5.71987 16.5295 5.69887 16.4757 5.69231C16.5111 5.62406 16.565 5.60963 16.6122 5.57681C17.2068 5.20013 17.7948 4.81031 18.3906 4.42706C19.1086 3.96375 19.8186 3.49781 20.5431 3.03975C20.639 2.97806 20.6796 2.93081 20.5786 2.84156C20.551 2.82056 20.5366 2.79431 20.5169 2.76675C20.366 2.59481 20.366 2.59481 20.1665 2.7195L14.1447 6.46406C13.9662 6.57431 13.9662 6.57431 13.8783 6.37612C13.6788 5.91806 13.5633 5.43244 13.4202 4.95994C13.3848 4.851 13.4136 4.788 13.495 4.71975C14.0003 4.31681 14.4663 3.85875 14.9296 3.42169C15.1146 3.24975 15.2301 3.01875 15.259 2.772C15.2918 2.478 15.1015 2.3205 14.8285 2.43075C14.6973 2.48456 14.5673 2.54625 14.4453 2.6145C13.2548 3.27075 11.9843 3.72225 10.685 4.09894C10.6101 4.11994 10.5419 4.14619 10.4736 4.0635C10.3437 3.906 10.1534 3.81806 9.98933 3.70125C9.96176 3.675 9.92108 3.66844 9.87908 3.675C9.70976 3.72225 9.52339 3.7695 9.41576 3.927C9.1362 4.33781 8.78576 4.70006 8.5272 5.124C8.2332 5.61619 7.94576 6.10706 7.61239 6.573C7.54939 6.66225 7.52314 6.67406 7.46145 6.573L6.34714 4.61869C6.23033 4.40738 6.10039 4.20787 5.95733 4.02412C5.79326 3.81937 5.59508 3.71569 5.33651 3.74456C5.28795 3.75112 5.22626 3.738 5.21183 3.81281C5.17901 4.00312 5.08189 4.20131 5.11076 4.39425C5.17245 4.86544 5.25383 5.33794 5.36933 5.80125C5.57539 6.60319 5.79983 7.39594 6.04001 8.18869C6.27233 8.967 6.5322 9.72694 6.78551 10.5052C6.80651 10.5669 6.83933 10.6273 6.75008 10.6838C6.62801 10.752 6.44426 10.7848 6.42326 10.9029C6.40226 11.025 6.51251 11.1694 6.55976 11.298L6.5742 11.3256C6.61489 11.4266 6.63589 11.5776 6.7107 11.6196C6.81439 11.6668 6.90101 11.5303 6.99814 11.4765C7.08083 11.4201 7.11364 11.4345 7.14908 11.5237C7.36826 12.0369 7.59401 12.5422 7.81189 13.0554C7.8447 13.1302 7.85258 13.2195 7.82633 13.2956C7.67539 13.7051 7.56514 14.1291 7.49033 14.5596C7.47064 14.6843 7.42208 14.6843 7.33283 14.6554C6.84851 14.5333 6.36289 14.4086 5.86939 14.2866C5.65808 14.2328 5.65808 14.2328 5.63183 14.4506V14.4651C5.52814 15.6345 5.42708 16.7961 5.31026 17.9576C5.3037 18.0587 5.31683 18.1086 5.43233 18.1151C5.77489 18.1558 6.10958 18.2096 6.44558 18.2661C6.50726 18.2726 6.56108 18.2779 6.54664 18.3671C6.47183 18.7648 6.41014 19.1599 6.32745 19.5576C6.3012 19.6534 6.32089 19.7623 6.38126 19.8371C6.50595 19.9946 6.61358 20.1456 6.7317 20.3031C6.81439 20.412 6.87476 20.5551 6.79995 20.6653C6.75795 20.727 6.73826 20.8018 6.74351 20.8766C6.75008 21.6011 6.75008 22.3256 6.78551 23.0567C6.80651 23.4045 6.79995 23.7602 6.80651 24.108C6.8262 25.0464 6.88133 25.9823 6.91545 26.9181C6.92989 27.3761 6.8472 27.8263 6.87476 28.2844C6.87476 28.4012 6.90101 28.4629 7.01783 28.4957C7.29739 28.5849 7.56383 28.7004 7.84339 28.7897C7.98645 28.8251 8.11114 28.9262 8.17283 29.0627C8.22664 29.1795 8.24764 29.316 8.23451 29.4459C8.23451 29.5706 8.2752 29.6454 8.37758 29.7189C8.80808 30.0274 9.23858 30.3489 9.67564 30.6692C10.811 31.5105 11.945 32.3505 13.0934 33.1853C13.1971 33.2679 13.2246 33.3283 13.1616 33.4438C13.1 33.5541 13.0671 33.6761 13.0055 33.7864C12.949 33.8874 12.9635 33.9491 13.0593 34.0239C13.2023 34.1198 13.3388 34.2352 13.4688 34.3534C13.5856 34.4492 13.5856 34.6001 13.5515 34.7156C13.5305 34.8049 13.4005 34.7222 13.3257 34.7156C13.2719 34.7156 13.2168 34.6946 13.1616 34.6881C12.6156 34.6054 12.0815 34.4623 11.5289 34.4151C10.6535 34.3468 9.77145 34.272 8.88289 34.2996C8.8422 34.2996 8.76739 34.251 8.76083 34.3468C8.74639 34.4216 8.72539 34.5043 8.80808 34.5516C8.85533 34.5791 8.89733 34.6001 8.94458 34.6132C9.44333 34.7917 9.90139 35.0385 10.3608 35.2971C10.6548 35.469 10.9422 35.6528 11.2638 35.7696C11.3255 35.7893 11.3858 35.8378 11.4541 35.7696C10.9698 35.3863 10.4828 34.9965 9.99851 34.6054C10.0668 34.5581 10.1206 34.5791 10.1678 34.5857C10.7506 34.6264 11.332 34.7078 11.899 34.8443C13.1498 35.1383 14.3875 35.4743 15.6173 35.8418C16.0124 35.9664 16.4429 36.0268 16.8051 36.2736C16.8944 36.3274 16.9508 36.3891 16.9364 36.498C16.9561 36.519 16.9836 36.5544 16.9561 36.5728C16.9233 36.5938 16.8878 36.5531 16.8681 36.5321C16.5807 36.5111 16.292 36.4914 16.0124 36.4573C15.2 36.3746 14.3941 36.267 13.5803 36.2933C12.9648 36.3077 12.3505 36.267 11.7415 36.3077C10.874 36.3694 10.013 36.4796 9.14933 36.5741C9.10208 36.5741 9.04039 36.5689 9.04039 36.6227C9.04039 36.6844 9.06139 36.7526 9.14408 36.7736C9.21233 36.7881 9.27401 36.7933 9.34226 36.7933C9.77933 36.8078 10.2098 36.8077 10.6482 36.8143C11.735 36.8419 12.8217 36.7933 13.9019 36.8826C14.2996 36.918 14.6894 36.9036 15.0713 36.9718C16.8773 37.3065 18.6676 37.6635 20.4578 38.052C20.6691 38.1006 20.8831 38.1347 21.0878 38.2371C20.992 38.3197 20.8686 38.346 20.8148 38.4746C20.4316 39.3566 20.1783 40.2924 19.8843 41.2099C19.837 41.3674 19.9407 41.5446 20.0956 41.5866C20.3778 41.6692 20.6639 41.4908 20.7111 41.1968C20.744 41.013 20.7794 40.8201 20.807 40.6297C20.8135 40.5681 20.8332 40.5339 20.8949 40.5129C21.1272 40.4184 21.353 40.3226 21.5866 40.2334C21.9278 40.1034 22.2428 39.9131 22.5093 39.6598C22.7416 39.4406 22.9398 39.1821 22.9463 38.8395C22.9463 38.7384 22.9739 38.6702 23.0566 38.6085C23.4398 38.3079 23.7876 37.9641 24.1223 37.6162C24.4518 37.2816 24.8061 36.9744 25.1763 36.687C25.2169 36.6516 25.2511 36.5978 25.3193 36.6253L26.2958 37.0138C25.6396 37.4115 25.0188 37.7948 24.4019 38.1701C24.3691 38.1819 24.3336 38.1898 24.3074 38.2029C24.0816 38.2712 23.8821 38.388 23.7194 38.5507C23.0631 39.2004 22.7206 39.9801 22.7626 40.9172C22.7888 41.5459 23.1458 41.8399 23.7601 41.7034C24.8403 41.4514 25.7564 40.4184 25.9191 39.2897C25.9611 38.976 26.0084 38.661 25.7826 38.388C25.6881 38.2712 25.5779 38.1557 25.469 38.0454C25.5018 38.0257 25.5228 38.0192 25.5372 38.0047C26.897 37.191 28.3814 36.645 29.8698 36.1318C31.6876 35.5018 33.5487 35.0031 35.4072 34.5253L35.2773 34.4978C35.1552 34.5043 35.0371 34.5188 34.915 34.5306C34.4018 34.566 33.8899 34.6408 33.3912 34.7629L33.3636 34.7773C33.3098 34.7983 33.2547 34.8049 33.2009 34.8049C33.1733 34.8049 33.1445 34.8049 33.1116 34.8049C33.2271 34.6946 33.5566 34.3389 33.6458 34.3678V34.3613H33.6576C33.6576 34.3468 33.6931 34.3193 33.6931 34.3193C33.7206 34.272 33.7613 34.2366 33.8151 34.2366C33.9109 34.1001 34.0264 33.9911 34.1629 33.9019C34.2522 33.8546 34.3414 33.7982 34.4451 33.7509C34.7247 33.7509 34.9977 33.4162 35.2917 33.2929C35.2917 33.2876 35.2707 33.2811 35.2707 33.2666C34.8468 33.3283 34.4373 33.3887 34.033 33.5462C33.172 33.8612 32.2835 34.1132 31.4435 34.482C30.1454 35.049 28.8447 35.6173 27.6004 36.2933C27.5532 36.3143 27.5125 36.3352 27.4639 36.3549L27.3695 35.4742C27.3629 35.4112 27.3891 35.3916 27.4443 35.364C28.5428 34.776 29.6506 34.1946 30.8056 33.7247C31.7558 33.327 32.7008 32.8965 33.6563 32.5067C33.6563 32.5001 33.6629 32.4923 33.6708 32.4923H33.6773C33.6839 32.4923 33.6839 32.4988 33.6918 32.4988C33.6983 32.5198 33.6918 32.5342 33.6773 32.5408C33.6773 32.5474 33.6708 32.5474 33.6629 32.5553H33.6563C33.3978 32.9109 33.1786 33.2994 33.0066 33.7103C33.0749 33.7247 33.0959 33.7037 33.1234 33.6748C33.3216 33.4635 33.5185 33.2653 33.7114 33.054C34.0855 32.6432 34.4832 32.2468 34.9413 31.9318C34.9741 31.9108 35.024 31.8911 35.003 31.8426C34.9754 31.7953 34.9203 31.8229 34.8874 31.8308C34.4504 31.9187 34.0173 31.9935 33.5868 32.0972C33.4437 32.13 33.4568 32.0827 33.4503 31.9804C33.4437 31.6391 33.4988 31.2979 33.512 30.9566C33.512 30.8057 33.5474 30.6626 33.6156 30.5248C33.7876 30.1297 33.9569 29.7386 34.1354 29.3436C34.2181 29.1441 34.2719 28.9328 34.3047 28.728C34.3611 28.3933 34.4005 28.0507 34.4359 27.7095C34.4898 27.1897 34.6735 26.6976 34.7628 26.1778C34.873 25.5281 34.9675 24.8653 35.2077 24.2366C35.4269 23.6814 35.6382 23.1289 35.864 22.5816C36.1724 21.8308 36.5622 21.1181 36.7459 20.3188C36.8076 20.0458 36.8759 19.7938 36.7525 19.5195C36.6843 19.3764 36.6633 19.2058 36.6094 19.0483C36.574 18.9315 36.5675 18.8081 36.5885 18.6926C36.6777 18.2621 36.7105 17.8369 36.4795 17.4339C36.4165 17.3237 36.4913 17.262 36.5543 17.1938C36.7105 17.0297 36.7171 16.9614 36.5806 16.7908C36.4296 16.5979 36.28 16.3931 36.1094 16.2172C35.9729 16.0742 35.8416 15.9088 35.6986 15.7592C35.6041 15.7054 35.6159 15.6634 35.7196 15.6292C35.9663 15.54 36.2039 15.4363 36.4585 15.3615C36.595 15.3208 36.6304 15.2394 36.6423 15.1161C36.7171 14.0556 36.7998 12.9898 36.8824 11.9293C36.8969 11.7862 36.868 11.76 36.7184 11.7994C35.9256 12.0527 35.1329 12.2916 34.3336 12.5383C34.0868 12.621 34.0868 12.621 33.9779 12.3743C33.575 11.4726 33.2599 10.5302 32.9239 9.59175C32.8557 9.41456 32.8557 9.21769 32.9384 9.03919C33.0552 8.71238 32.9804 8.38294 32.9738 8.04825C32.9673 8.03381 32.9673 8.01281 32.9673 7.99969C32.8924 7.08487 32.7481 6.18188 32.5223 5.292C32.3176 4.52025 32.0236 3.77475 31.6469 3.07125C31.2426 2.31131 30.8187 1.56056 30.3554 0.836063C30.1559 0.527625 29.9446 0.2415 29.5954 0.0905625C29.4524 0.03675 29.3014 0.0013125 29.1505 0.0013125L29.1544 0ZM24.5345 0.458063C24.6565 0.4515 24.772 0.47775 24.8823 0.546C25.7577 0.977813 26.6187 1.449 27.4534 1.95431C27.8839 2.22731 28.2934 2.54231 28.7029 2.86387C28.8959 3.01481 29.0389 3.24056 29.203 3.43744C29.2647 3.52012 29.2227 3.59494 29.1544 3.65663C29.1138 3.69731 29.0586 3.72487 29.0035 3.75244C28.9497 3.79312 28.8814 3.82725 28.9024 3.90075C28.9143 3.97556 28.9969 3.99 29.0586 4.00444C29.1544 4.02544 29.2516 4.01887 29.3408 3.97687C29.6348 3.85481 29.8803 4.06612 30.0719 4.27087C30.1191 4.32731 30.1401 4.43494 30.2346 4.40213C30.3304 4.36013 30.3449 4.25906 30.3383 4.16194C30.3108 3.8955 30.2491 3.64219 30.1874 3.38363C30.0299 2.72738 29.7149 2.12494 29.4563 1.50281C29.3605 1.28362 29.266 1.05787 29.1689 0.84C29.1216 0.717937 29.1899 0.609 29.2581 0.51975C29.3054 0.4515 29.3946 0.513188 29.4694 0.546C29.7359 0.662813 29.8855 0.875438 30.0154 1.12875C30.1519 1.38731 30.3239 1.63406 30.4735 1.88606C30.7268 2.33756 31.0339 2.75363 31.24 3.21956C31.534 3.90206 31.9015 4.5465 32.08 5.27756C32.2309 5.92725 32.4423 6.5625 32.5249 7.23188C32.5525 7.47731 32.5039 7.72406 32.5394 7.97081C32.5932 8.45512 32.5249 8.92106 32.3202 9.366C32.2664 9.48806 32.2848 9.60356 32.3399 9.72825C32.7848 10.6641 33.1471 11.6222 33.5159 12.5908C33.5644 12.7155 33.5369 12.7693 33.4069 12.8021C32.5656 13.0489 31.7178 13.3074 30.8778 13.5621C30.7531 13.6028 30.7137 13.5686 30.6783 13.4584C30.4591 12.8848 30.2543 12.3309 30.064 11.7639C30.0154 11.6471 29.9682 11.5854 29.8383 11.613C29.6808 11.6537 29.5981 11.5854 29.5298 11.4411C29.4196 11.2219 29.3316 10.9567 29.1531 10.8124C28.9694 10.6759 28.6898 10.6693 28.4496 10.6129C28.2646 10.5656 28.0874 10.5118 27.9023 10.4829C27.5138 10.4081 27.145 10.2428 26.83 10.0052C26.2958 9.6075 25.7577 9.25312 25.196 8.904C25.0122 8.89744 24.8403 8.84231 24.6644 8.80031C24.1775 8.69925 23.6931 8.59556 23.2088 8.49975C23.092 8.48006 23.0723 8.39081 23.0658 8.316C23.0513 8.21231 23.0723 8.12569 23.1747 8.06269C23.3322 7.96819 23.5107 7.95375 23.68 7.91962C24.461 7.78969 25.2458 7.71487 26.0386 7.69387C26.2289 7.69387 26.4008 7.76344 26.5846 7.81069C26.6804 7.8435 26.7906 7.82512 26.872 7.75687C27.2487 7.51012 27.6319 7.26994 28.0152 7.01794C28.069 6.9825 28.1793 6.95625 28.1307 6.86044C28.1241 6.83944 28.1163 6.83288 28.1097 6.81844C28.09 6.79875 28.0624 6.79875 28.0362 6.79875H27.9325C27.5164 6.79219 27.1043 6.91425 26.7631 7.15444C26.6266 7.23713 26.3116 7.18069 26.2223 7.05075C25.6291 6.14906 24.7799 5.50069 23.974 4.79456C23.6183 4.48613 23.2705 4.16588 22.8938 3.87975C22.798 3.80494 22.7573 3.62644 22.819 3.53194C22.9017 3.40725 23.0093 3.46237 23.113 3.51094C23.4346 3.654 23.7483 3.8115 24.0357 4.02412C25.028 4.72762 26.0871 5.32219 27.1398 5.91806C27.166 5.93906 27.1936 5.95088 27.229 5.96531C27.3852 6.01913 27.4666 5.95088 27.4482 5.78156C27.4338 5.69231 27.3918 5.60963 27.338 5.54925C26.4835 4.54519 25.5805 3.5805 24.6985 2.60269C24.5148 2.39794 24.2956 2.226 24.0908 2.04225C23.9333 1.90575 23.7968 1.74169 23.7076 1.55794C23.6459 1.44769 23.6603 1.31119 23.7483 1.22194C23.8165 1.14712 23.8795 1.12744 23.9885 1.18125C24.2825 1.32431 24.5699 1.49494 24.8298 1.69444C25.2931 2.05013 25.7656 2.39794 26.2368 2.75363L27.6529 3.80756C27.6858 3.84038 27.7278 3.86925 27.7619 3.89681C27.8446 3.97688 27.9259 4.05956 28.0086 4.14225L28.0559 4.19606C28.0913 4.2315 28.1241 4.27088 28.1661 4.29975C28.2606 4.36144 28.3564 4.41 28.4601 4.30631C28.4929 4.27087 28.514 4.24462 28.514 4.2105C28.514 4.19606 28.5205 4.19081 28.514 4.17769C28.514 4.17113 28.514 4.16325 28.514 4.15669C28.4995 4.10944 28.4733 4.06744 28.4391 4.03462L28.1241 3.70519C27.9469 3.52144 27.7684 3.3495 27.5781 3.18544C26.9626 2.67225 26.3405 2.18137 25.7105 1.70362C25.3902 1.46344 25.0135 1.29937 24.6657 1.09462C24.541 1.02637 24.4609 0.916125 24.3651 0.821625C24.3034 0.746812 24.2825 0.643125 24.3231 0.553875C24.3651 0.459375 24.4544 0.465937 24.5371 0.459375L24.5345 0.458063ZM14.444 2.88356C14.4584 2.88356 14.4768 2.88356 14.4912 2.89012C14.5739 2.93869 14.545 3.02662 14.545 3.13031C14.566 3.234 14.4978 3.32063 14.402 3.40988C13.8021 3.97163 13.1643 4.50319 12.5225 5.02294C12.2639 5.22769 11.9489 5.3235 11.6615 5.481C11.6076 5.50725 11.5722 5.481 11.5394 5.439C11.3281 5.166 11.1207 4.89956 10.9094 4.62656C10.8346 4.53075 10.9448 4.53731 10.9921 4.51631C11.437 4.35225 11.8741 4.17506 12.3111 3.99656C12.953 3.74456 13.5344 3.38887 14.1368 3.06731C14.1985 3.03187 14.2589 2.9925 14.3219 2.95706C14.3626 2.93738 14.3967 2.89013 14.444 2.88356ZM9.85808 4.34044C9.94733 4.347 10.0274 4.389 10.0904 4.45069C10.2203 4.56619 10.3214 4.704 10.4041 4.84838C10.7125 5.34056 11.1286 5.73562 11.5394 6.13987C11.8268 6.42731 12.113 6.70031 12.4148 6.96019C12.5159 7.04812 12.5303 7.18463 12.5841 7.30144C12.6051 7.34213 12.5907 7.37625 12.5513 7.39725C12.5303 7.40906 12.5093 7.41694 12.5041 7.43006C12.2508 7.63481 12.0171 7.60856 11.7231 7.4655C11.1627 7.1715 10.6508 6.79481 10.2125 6.33019C10.198 6.31575 10.177 6.30394 10.1652 6.2895C9.95914 6.13856 9.95389 6.14644 9.86464 6.37875C9.77539 6.60975 9.7137 6.8565 9.61133 7.08225C9.57064 7.16494 9.63233 7.24631 9.68614 7.308C9.75439 7.37625 9.80295 7.47731 9.92633 7.4655C9.98014 7.45106 10.009 7.4235 10.0221 7.36969C10.0484 7.22662 10.0904 7.09012 10.1232 6.91819C10.5813 7.30144 11.0945 7.602 11.5932 7.93669L11.1089 8.21625C9.86464 8.9145 8.61383 9.618 7.36958 10.3215C7.26589 10.3779 7.22651 10.3911 7.17926 10.2598C6.7002 8.78456 6.20145 7.308 5.7972 5.796C5.70926 5.44819 5.66726 5.08594 5.59901 4.72369C5.57933 4.62262 5.65283 4.56619 5.7237 4.53337C5.81164 4.48481 5.8182 4.59506 5.85364 4.63444C6.50989 5.544 6.96139 6.57694 7.49295 7.55344C7.65701 7.84744 7.83551 8.13487 8.00614 8.421C8.04814 8.47744 8.06783 8.52469 8.1492 8.49581C8.24501 8.463 8.22401 8.40131 8.21089 8.33963C8.14264 8.03119 7.98514 7.75819 7.8762 7.47206C7.83551 7.38281 7.83551 7.27913 7.88276 7.18988C8.12295 6.69769 8.45633 6.26062 8.7162 5.78944C8.96295 5.35762 9.27795 4.96912 9.51026 4.53075C9.57851 4.40081 9.71501 4.326 9.85808 4.33781V4.34044ZM12.9608 5.20275C12.9884 5.20275 13.0028 5.229 13.0225 5.271C13.2338 5.74219 13.3795 6.24094 13.5567 6.72656C13.5711 6.77381 13.5777 6.80925 13.5239 6.84206L13.079 7.11506C13.0645 7.12163 13.0435 7.1295 12.9963 7.1505C12.9818 7.1295 12.9687 7.09669 12.9425 7.06125L11.9975 5.9745C11.9568 5.92725 11.9174 5.87869 11.9975 5.838C12.3059 5.6595 12.5448 5.37206 12.8729 5.22244C12.9149 5.20275 12.9425 5.19619 12.9621 5.20275H12.9608ZM16.3379 6.04931C16.4271 6.04275 16.5164 6.07687 16.5846 6.132C16.7001 6.22125 16.754 6.37219 16.7211 6.51525C16.6791 6.70556 16.5846 6.88406 16.4416 7.02056C15.847 7.58756 15.3273 8.22938 14.8968 8.93288C14.4991 9.56288 14.104 10.1837 13.81 10.8754C13.7418 11.0053 13.6525 11.1274 13.5488 11.2376C13.1328 11.7088 12.634 12.0842 12.0526 12.3519C11.9423 12.3926 11.8675 12.5081 11.8675 12.6315C11.8531 12.7326 11.8268 12.8363 11.8137 12.9399C11.8137 13.1985 11.6916 13.4531 11.4843 13.608C11.4108 13.6644 11.4042 13.7511 11.3753 13.8272L10.8976 15.4271C10.8976 15.4416 10.8976 15.4481 10.8976 15.4626C10.8976 15.4836 10.8976 15.5164 10.87 15.5243C10.7952 15.5453 10.7335 15.5243 10.6718 15.4914C9.89089 15.3064 9.11258 15.1147 8.34083 14.91C8.24501 14.889 8.14789 14.8536 8.05339 14.8404C7.89589 14.8208 7.88145 14.7525 7.95758 14.6357C8.05339 14.1435 8.17676 13.6526 8.47733 13.2405C8.54558 13.146 8.53901 13.0712 8.47733 12.9675C8.14789 12.4149 7.89589 11.8191 7.61633 11.2389C7.57433 11.1431 7.58876 11.1024 7.67801 11.046C9.1887 10.1102 10.6915 9.17306 12.197 8.23069C12.2796 8.18344 12.3545 8.20969 12.4293 8.19787C12.6957 8.13487 12.9477 8.05481 13.18 7.91044C13.201 7.896 13.2286 7.88944 13.2338 7.86844C13.4058 7.49962 13.7746 7.36969 14.0896 7.22663C14.8141 6.89719 15.5386 6.59794 16.1738 6.11888C16.2224 6.07819 16.2775 6.05063 16.3379 6.04406V6.04931ZM36.3601 12.6525V12.6591H36.3666C36.3338 13.104 36.2918 13.5266 36.2577 13.9519L36.1829 14.8877C36.1763 15.0032 36.1409 15.0714 36.0188 15.1134C34.0501 15.7894 32.0879 16.4732 30.1191 17.1649L30.0509 17.1767C29.9892 17.1832 29.9551 17.157 29.9144 17.0822C29.5311 16.3905 29.1413 15.708 28.7528 15.0242C28.7043 14.9349 28.6911 14.8877 28.8145 14.8522L36.259 12.6722C36.2853 12.6656 36.3128 12.6577 36.3601 12.6512V12.6525ZM35.6421 13.3232C35.3757 13.3298 35.1289 13.5844 35.1434 13.8364C35.1578 14.0831 35.3626 14.2879 35.5883 14.2813C35.8285 14.2747 36.0595 14.0149 36.0595 13.755C36.0477 13.461 35.9164 13.3245 35.6434 13.3245L35.6421 13.3232ZM6.19358 14.847C6.21458 14.847 6.23426 14.8536 6.26183 14.8614L9.64676 15.75C10.7742 16.0506 11.9095 16.3446 13.037 16.6464C13.1472 16.6727 13.18 16.7081 13.1472 16.8158L12.6537 18.4157C12.6419 18.4787 12.6275 18.5469 12.5592 18.5469C12.5448 18.5469 12.5316 18.5469 12.5172 18.5404L10.706 18.2936C10.3109 18.2398 9.91976 18.1847 9.52339 18.1296C8.3277 17.9602 7.1307 17.7949 5.92845 17.6308C5.85364 17.6098 5.82476 17.5626 5.84576 17.4615C5.93501 16.6267 6.02295 15.792 6.1122 14.9586C6.1122 14.9376 6.1122 14.9231 6.11876 14.9047C6.12533 14.8982 6.12533 14.8903 6.12533 14.8772C6.13976 14.8562 6.16601 14.8417 6.19358 14.8417V14.847ZM20.4329 15.0321H20.6311C20.9723 15.0531 21.3083 15.183 21.622 15.3261C21.7677 15.3878 21.9042 15.4416 22.0407 15.5098L22.1418 15.5662C22.2455 15.6135 22.3478 15.6608 22.4423 15.7224L22.6418 15.8327C22.7035 15.8799 22.7718 15.9154 22.8321 15.9626C22.9542 16.0519 23.0789 16.1477 23.1944 16.2501C23.5776 16.6057 23.8441 17.0231 24.0016 17.5153C24.1171 17.8631 24.1998 18.2254 24.2339 18.5876C24.2601 18.9433 24.1512 19.2911 24.062 19.6271C24.0475 19.6809 24.0265 19.6954 24.0081 19.6888C23.9871 19.6823 23.9727 19.6481 23.9543 19.6271L23.5776 19.1901C23.0986 18.6165 22.4633 18.1978 21.752 17.9931C21.1836 17.8303 20.597 17.7411 20.009 17.7201C19.5365 17.7266 19.0653 17.7818 18.6072 17.8841C18.2384 17.9524 17.8617 18.0141 17.4995 18.0823C17.2593 18.123 17.0414 18.2333 16.8222 18.3291C16.7211 18.3763 16.6109 18.417 16.5085 18.459L16.4731 18.4656C15.8103 18.6979 15.2564 19.0943 14.6828 19.4631C14.5253 19.5733 14.3888 19.7098 14.2523 19.8463L14.1211 19.9763C13.8625 20.2296 13.6013 20.496 13.3139 20.7283C13.184 20.9055 13.0081 21.0367 12.8427 21.1916C12.8834 20.8924 12.9648 20.6181 13.0947 20.3661C13.2378 20.1049 13.3887 19.8529 13.5528 19.6061C13.642 19.4841 13.7247 19.3594 13.814 19.2439C13.9911 19.0037 14.1696 18.7727 14.3665 18.5548C14.503 18.3829 14.6461 18.2123 14.797 18.0469C14.9401 17.8776 15.091 17.7122 15.2341 17.5481C15.2958 17.4799 15.364 17.4261 15.4323 17.3709L15.4808 17.3224C15.6173 17.2003 15.7328 17.0848 15.8969 16.9549L15.9179 16.9339L16.0334 16.8236C16.4495 16.4286 16.943 16.1201 17.4286 15.8051C17.4758 15.7723 17.5323 15.7434 17.5795 15.7159L17.7698 15.6358C17.7908 15.6293 17.8118 15.6148 17.8263 15.6148C17.9208 15.5728 18.0245 15.5321 18.1255 15.498L18.3316 15.4363C18.577 15.3681 18.8238 15.3064 19.0626 15.2316C19.4997 15.0885 19.9643 15.0203 20.429 15.0334L20.4329 15.0321ZM7.1832 15.8117C7.06114 15.8182 6.91676 15.8117 6.80914 15.9154C6.4797 16.2356 6.49414 16.7698 6.82883 17.0769C7.02176 17.2462 7.30133 17.2462 7.49164 17.0769C7.74495 16.8577 7.8132 16.5296 7.66358 16.1411C7.56776 15.9009 7.44308 15.8117 7.1832 15.8117ZM34.9111 15.9219C35.0686 15.9219 35.1985 16.0164 35.3153 16.1805C35.3416 16.1949 35.3691 16.2159 35.3901 16.2343C35.4308 16.2698 35.4439 16.3026 35.4846 16.3446C35.6566 16.5428 35.8469 16.7396 36.0254 16.9326C36.0398 16.947 36.0464 16.9588 36.0529 16.9733C36.0582 16.9877 36.053 17.0008 36.0464 17.0152C36.0398 17.0218 36.0319 17.0271 36.0254 17.0349L36.0044 17.0625L35.9978 17.0691C35.9978 17.0691 35.9978 17.0756 35.9913 17.0835C35.9913 17.0901 35.9913 17.0901 35.9913 17.0901V17.1019C35.7393 17.3631 35.8075 17.6019 36.0123 17.8277C36.0267 17.8474 36.0398 17.8749 36.0398 17.8959C36.2039 18.1151 36.0661 18.3382 36.0398 18.5574C36.0333 18.5784 36.0254 18.585 36.0123 18.5994L35.9978 18.606C35.9781 18.5994 35.965 18.5994 35.944 18.5916L35.9296 18.585C35.7786 18.5443 35.6356 18.5023 35.4846 18.4551C35.4781 18.4551 35.465 18.4485 35.4584 18.4406C35.444 18.4406 35.4308 18.4262 35.423 18.4262C35.3481 18.4327 35.2799 18.4196 35.2116 18.3934C35.0397 18.3107 34.835 18.3448 34.7063 18.4813C34.7063 18.4958 34.6998 18.5089 34.6919 18.5167C34.7667 18.627 34.8848 18.6467 34.9859 18.6808C35.4164 18.8239 35.7786 19.0838 36.1829 19.2885C36.2721 19.3449 36.2839 19.4526 36.2774 19.5562C36.2721 19.6179 36.2577 19.6717 36.2446 19.7334L36.1225 20.2807C36.1225 20.328 36.1081 20.37 36.0871 20.4107C36.0871 20.7047 35.8823 20.9239 35.7865 21.1772C35.7721 21.1969 35.7668 21.2034 35.7537 21.252C35.6854 21.4292 35.6106 21.5998 35.5279 21.7704C35.5279 21.7849 35.5069 21.798 35.5069 21.8124V21.8059C35.5069 21.8059 35.5004 21.8059 35.5004 21.8124L35.4938 21.8334C35.4873 21.8334 35.4873 21.8387 35.4873 21.8387C35.4676 21.9214 35.4545 22.0027 35.3862 22.071C35.3114 22.3387 35.2011 22.5908 35.0568 22.8309C35.0423 22.8519 35.0371 22.8519 35.0305 22.8926C34.9203 23.1459 34.8048 23.4452 34.6945 23.7274C34.6735 23.8219 34.6538 23.9256 34.6263 24.0214L34.6118 24.0476C34.6118 24.0476 34.6053 24.0476 34.6053 24.0542C34.6053 24.0686 34.6 24.0752 34.6 24.0817C34.6 24.1972 34.579 24.3075 34.5304 24.4164C34.5108 24.4847 34.4976 24.5595 34.4766 24.6277C34.4766 24.6343 34.4701 24.6488 34.4622 24.6632L34.1144 26.2552C34.0199 26.6923 33.9779 27.1373 33.9096 27.5743C33.8414 27.9838 33.8204 28.4078 33.7259 28.8186C33.6511 29.1126 33.4857 29.379 33.3492 29.652C33.2245 29.9132 33.1444 30.1862 32.9869 30.4329L32.9725 30.4592C32.9659 30.4736 32.9581 30.4946 32.9515 30.5156C32.9515 30.5209 32.9515 30.5353 32.9449 30.5419L32.9305 30.6036C32.9305 30.6246 32.9305 30.6456 32.9305 30.6653C32.9305 30.6863 32.9305 30.7073 32.9239 30.7283V30.7899C32.9239 30.8306 32.9239 30.8792 32.9187 30.9199C32.8833 31.3714 32.8294 31.8163 32.8504 32.2731C32.8504 32.3558 32.8295 32.4043 32.7468 32.4306L32.6431 32.4726C32.5814 32.4922 32.5131 32.5198 32.4449 32.5553L32.3412 32.5959C32.2874 32.6169 32.2533 32.6366 32.1719 32.6576V32.6432C32.1719 32.6432 32.1574 32.6576 32.1509 32.6576L31.9186 32.7534L31.7558 32.8217C31.6456 32.8965 31.5156 32.9516 31.387 32.9792L31.324 33.012C31.0444 33.1367 30.7714 33.2588 30.4984 33.3808C30.3554 33.4294 30.2044 33.5107 30.0614 33.5803C29.9104 33.6486 29.7608 33.7103 29.6033 33.7785C29.3566 33.8874 29.119 33.9898 28.8723 34.0922C28.8657 34.0988 28.8513 34.0922 28.8447 34.0922C28.6203 34.1814 28.388 34.3061 28.1766 34.4006C28.094 34.4426 27.9706 34.4899 27.8682 34.5306C27.6753 34.6054 27.628 34.6001 27.5886 34.4006C27.464 34.3114 27.4521 34.1552 27.4036 34.0239C27.3629 33.894 27.3209 33.7575 27.2815 33.6354C27.2749 33.5934 27.2539 33.6 27.2539 33.5737C27.2133 33.5173 27.2133 33.4635 27.1857 33.4018V33.3742C27.1713 33.3598 27.1713 33.3546 27.166 33.3414L27.1595 33.306H27.166C27.103 33.1367 27.0413 32.9647 27.0019 32.7862C26.9599 32.6642 26.8851 32.5552 26.8589 32.4306C26.8523 32.3899 26.8523 32.3479 26.8589 32.3085L26.8733 32.2547L26.8786 32.2193C26.9206 32.1366 26.9678 32.0552 27.0164 31.9791C27.0426 31.9108 27.0702 31.8426 27.0965 31.7743C27.124 31.7061 27.1529 31.6588 27.1791 31.5761C27.2474 31.4462 27.2894 31.3031 27.3721 31.1522C27.3721 31.1168 27.3983 31.0839 27.4049 31.0485C27.4797 30.7965 27.5624 30.5353 27.6726 30.2912C27.6726 30.2768 27.6582 30.2702 27.6661 30.2558C27.6923 30.1048 27.8354 30.051 27.9181 29.9617V29.9683C27.9601 29.9539 27.9863 29.9276 28.0073 29.9276C28.0283 29.8856 28.0546 29.8712 28.0821 29.8449C28.1504 29.7623 28.2121 29.673 28.2659 29.5838C28.3486 29.4683 28.4168 29.3462 28.5061 29.2281C28.5415 29.1874 28.5599 29.1322 28.6098 29.1322C28.6163 29.1322 28.6242 29.1322 28.6294 29.1322C28.699 29.1532 28.678 29.2281 28.6714 29.2832C28.636 29.4683 28.636 29.6664 28.6714 29.8515C28.6924 30.0024 28.7121 30.1455 28.7253 30.2938V30.3634C28.7607 30.4644 28.787 30.5826 28.787 30.6902C28.8224 30.8332 28.8486 30.9697 28.8906 31.1141C29.0206 31.3819 29.1098 31.6404 29.1991 31.9069H29.2056C29.3487 32.1182 29.4931 32.3584 29.6361 32.5907C29.6768 32.6445 29.7188 32.7062 29.7661 32.7482H29.7726V32.781C29.8133 32.781 29.8343 32.8703 29.8947 32.7876C29.8803 32.7469 29.8737 32.7469 29.8619 32.7469C29.8409 32.6996 29.8199 32.6511 29.8054 32.6038C29.7989 32.5762 29.7858 32.5421 29.7858 32.5211C29.7713 32.4857 29.7648 32.4594 29.7648 32.4319C29.7582 32.4174 29.7582 32.3991 29.7503 32.3912C29.7503 32.3558 29.7438 32.3295 29.7359 32.3019L29.6952 32.0408C29.6808 32.0289 29.6808 32.0145 29.6808 31.9935C29.6742 31.9791 29.6742 31.9607 29.6598 31.9463C29.6598 31.8977 29.6479 31.8426 29.6401 31.7953L29.6046 31.4948C29.5981 31.4409 29.5836 31.3911 29.5771 31.3372C29.5298 30.7912 29.5508 30.2361 29.6401 29.6979H29.6663C29.7149 29.4446 29.77 29.1506 29.8173 28.8776C29.8317 28.8776 29.8448 28.8842 29.8593 28.8842C29.8448 29.3422 29.8855 29.7924 29.9892 30.2374C29.9958 30.2518 29.9958 30.2649 29.9958 30.2728C30.0574 30.4421 30.1257 30.6141 30.1795 30.7926C30.1939 30.8254 30.2071 30.8674 30.2215 30.9015C30.2412 30.9632 30.2753 31.0183 30.316 31.0656C30.3226 31.0866 30.3514 31.1062 30.3514 31.1272C30.3921 31.1627 30.4131 31.1955 30.4473 31.2375C30.4735 31.2637 30.4945 31.2992 30.5221 31.3254C30.6021 31.4081 30.6993 31.4895 30.8095 31.5998C30.7951 31.5171 30.7885 31.4357 30.7819 31.353C30.7754 31.2782 30.7609 31.2021 30.7544 31.1207C30.7544 31.1207 30.7281 31.1062 30.7281 31.0997C30.7281 31.038 30.7216 30.9697 30.7137 30.9094L30.6455 30.3358C30.6455 30.3148 30.6455 30.3082 30.6455 30.2886C30.6455 30.2741 30.652 30.24 30.652 30.24C30.6166 30.0024 30.61 29.7623 30.6166 29.5155L30.61 29.4893C30.5772 29.2753 30.5772 29.0574 30.61 28.8383C30.6166 28.7844 30.61 28.7162 30.6166 28.6611C30.6166 28.6466 30.61 28.6401 30.61 28.6256C30.61 28.3461 30.6245 28.0652 30.7058 27.8001L30.7124 27.7646C30.7334 27.6426 30.7531 27.4916 30.7741 27.3551C30.7951 27.2121 30.8148 27.0756 30.8358 26.9312C30.8423 26.8747 30.8633 26.8419 30.8896 26.8419C30.9106 26.8419 30.9381 26.8564 30.9644 26.8747L31.0536 26.9233L31.1836 27.0126C31.2256 27.0388 31.2663 27.0664 31.3083 27.1071C31.3083 27.1071 31.3148 27.1136 31.3227 27.1215C31.3279 27.1281 31.3424 27.1359 31.3489 27.1425H31.3634V27.1359C31.6574 27.2869 31.8215 27.531 32.0131 27.7646C32.1089 27.8329 32.1706 27.9221 32.2113 28.0324C32.3425 28.2017 32.437 28.3881 32.5053 28.5928C32.5053 28.6138 32.5197 28.6256 32.5197 28.6466C32.5263 28.6611 32.5341 28.6532 32.5407 28.6939C32.5735 28.7424 32.5945 28.7897 32.6155 28.8448L32.6693 28.9879L32.7048 29.0627C32.7166 29.0771 32.7245 29.0902 32.7376 29.1047C32.752 29.1257 32.7796 29.1375 32.8058 29.1454C32.8544 28.9879 32.7441 28.8448 32.7848 28.6939H32.7993C32.7993 28.6532 32.7848 28.6532 32.7848 28.6322C32.7441 28.3592 32.7113 28.0928 32.5945 27.8394C32.5945 27.8184 32.5945 27.7712 32.5945 27.7712C32.4908 27.5192 32.4436 27.2659 32.2939 27.0401C32.2611 27.0139 32.2401 26.9719 32.2323 26.9312C32.185 26.8892 32.1575 26.8419 32.1365 26.7881C32.1102 26.7527 32.0892 26.7199 32.0682 26.6779V26.7133C32.0682 26.7068 32.0616 26.6989 32.0616 26.6989V26.6923C31.9396 26.5204 31.8162 26.3563 31.6731 26.208L31.6587 26.187C31.6377 26.1726 31.6233 26.1726 31.6049 26.1332C31.5012 26.0912 31.4054 25.9612 31.3109 25.872C31.2965 25.8576 31.2833 25.8576 31.2755 25.8457C31.261 25.8392 31.2755 25.8247 31.2348 25.8182C31.0235 25.6751 30.8659 25.4966 30.6796 25.3667C30.6468 25.326 30.6048 25.3522 30.5916 25.284C31.1311 25.2512 31.6574 25.3194 32.2034 25.3457V25.326C32.4777 25.3667 32.7231 25.4205 32.9699 25.5242C32.9765 25.5242 32.9909 25.5386 32.9975 25.5386V25.5452C33.1668 25.5859 33.3243 25.6607 33.4896 25.7355C33.5225 25.7565 33.5645 25.8038 33.5986 25.7565C33.634 25.7145 33.5868 25.6738 33.5579 25.6397C33.4962 25.557 33.4358 25.4704 33.3649 25.3811C33.3597 25.3601 33.3387 25.3391 33.3387 25.3194C33.2088 25.1948 33.113 25.0517 33.0027 24.9296C32.9699 24.8968 32.9279 24.8614 32.9016 24.8207C32.7651 24.738 32.6405 24.6356 32.5328 24.5267C32.5118 24.5123 32.4908 24.4847 32.4711 24.4847C32.4173 24.4847 32.3543 24.423 32.2992 24.3902C32.2519 24.3482 32.1903 24.3154 32.1351 24.2799C32.1154 24.2655 32.0944 24.2589 32.0669 24.2445C31.8149 24.15 31.5537 24.0608 31.3017 23.9649C31.2951 23.9649 31.2741 23.9584 31.2741 23.9531C31.2741 23.9531 31.2531 23.9531 31.2479 23.9531C31.1993 23.9531 31.1586 23.9321 31.1232 23.8967C31.1035 23.8823 31.0825 23.8639 31.0759 23.835L31.0615 23.814C31.055 23.7812 31.0471 23.7458 31.0549 23.7051C31.0615 23.5751 31.055 23.4439 31.034 23.3218C31.0287 23.2811 31.0221 23.247 31.0143 23.2129C30.9998 23.1709 30.9933 23.1381 30.9867 23.1026L30.9605 22.9937C30.946 22.9451 30.9329 22.89 30.9184 22.8362C30.9184 22.8362 30.8975 22.8362 30.8975 22.8218C30.8646 22.5684 30.7609 22.3086 30.6861 22.0553C30.6717 22.0224 30.6664 22.0014 30.6533 21.9608C30.5969 21.8715 30.5641 21.7678 30.5575 21.6667C30.5575 21.6247 30.5575 21.5985 30.5575 21.5631L30.5641 21.5224C30.5706 21.4738 30.5785 21.4187 30.5969 21.3793L30.6533 21.1864C30.6533 21.1798 30.6533 21.1601 30.6599 21.1601H30.6533C30.7071 20.8596 30.8305 20.6049 30.9119 20.3398C30.9119 20.3332 30.9184 20.3333 30.9184 20.3254L30.9394 20.3109C30.9394 20.3044 30.946 20.3044 30.946 20.3044C31.0143 20.2099 31.0471 20.0931 31.034 19.9841C31.034 19.9159 31.0143 19.8621 30.9867 19.7991C30.9604 19.7243 30.925 19.656 30.8856 19.5799C30.8856 19.5681 30.8712 19.5602 30.8646 19.5602C30.8581 19.5536 30.8502 19.5458 30.8502 19.5458C30.6927 19.3607 30.5706 19.1481 30.4879 18.9223L30.4604 18.8541C30.4486 18.8475 30.4486 18.8344 30.4486 18.8278L30.442 18.8134C30.4354 18.7989 30.4355 18.7924 30.4276 18.7779C30.4341 18.7517 30.442 18.7241 30.4486 18.7031C30.4538 18.6834 30.4683 18.6703 30.4748 18.6559C30.4814 18.6414 30.4958 18.6283 30.5103 18.6152L30.5247 18.6086C30.6402 18.4367 30.7413 18.2661 30.8725 18.1099C30.9736 17.9852 31.009 17.8224 30.9618 17.6728C30.8869 17.4326 30.8922 17.4261 31.1311 17.3368C31.1783 17.3158 31.6863 17.1255 31.891 17.0638L32.0209 17.0166L32.0538 17.0021C32.3478 16.8853 32.6483 16.7764 32.9423 16.6661C32.9568 16.6661 32.9699 16.6661 32.9778 16.6661C33.2232 16.5362 33.491 16.4548 33.7495 16.3721C33.785 16.3603 33.8112 16.3459 33.8532 16.3393C33.8939 16.3039 34.0251 16.2776 34.0645 16.2356C34.2693 16.1739 34.4412 16.0781 34.6315 16.0309C34.7142 15.9626 34.8166 15.9219 34.9189 15.9154L34.9111 15.9219ZM25.4099 16.9798C25.5464 16.9798 25.6829 17.0008 25.8128 17.0415L25.8338 17.0481C26.2906 17.1846 26.7486 17.2948 27.1791 17.5061C27.2539 17.5337 27.3301 17.5678 27.3786 17.6361C27.6582 17.8408 27.9181 18.0666 28.1294 18.3461C28.4654 18.7766 28.8001 19.2084 29.1072 19.7006C29.0862 19.6941 29.0652 19.6862 29.0455 19.6731C28.9353 19.6258 28.8263 19.5641 28.7239 19.4959C28.3407 19.2636 27.9522 19.0588 27.5414 18.8724C27.3576 18.7897 27.1647 18.7294 26.9678 18.6953C26.4415 18.5994 25.9086 18.5706 25.3758 18.627C25.2248 18.6323 25.0752 18.627 24.9243 18.627C24.8232 18.627 24.7668 18.5706 24.7668 18.4629C24.7668 18.0521 24.7878 17.6348 24.6657 17.2397C24.6381 17.157 24.6854 17.115 24.7602 17.0966C24.9663 17.0218 25.1907 16.9798 25.4099 16.9798ZM20.597 18.3343C21.3333 18.3067 22.0184 18.5115 22.6405 18.9013C22.865 19.0378 23.0776 19.2098 23.2758 19.3935L23.2955 19.4211C23.5094 19.6324 23.6997 19.8712 23.8572 20.139C24.0003 20.3647 23.9583 20.6102 23.911 20.8635C23.789 21.567 23.3585 22.0933 22.8781 22.5855C22.4148 23.058 21.8333 23.3664 21.2991 23.7208C20.5326 24.2261 19.6651 24.4243 18.7752 24.5543C17.6766 24.7183 16.5545 24.7393 15.4401 24.8837C15.0451 24.9375 14.633 24.9729 14.2313 25.0412C13.7523 25.116 13.3283 25.3759 13.0409 25.7591C12.932 25.9101 12.8637 26.0859 12.7613 26.2907C12.6865 26.0597 12.6996 25.8129 12.802 25.6016C12.995 25.1856 13.3283 24.8496 13.7405 24.6579C14.465 24.2681 15.2774 24.192 16.057 24.0017C16.6857 23.8376 17.3275 23.7484 17.9575 23.5778C18.8185 23.3454 19.652 23.016 20.4526 22.6131C20.8686 22.3939 21.307 22.1681 21.601 21.7665C21.7992 21.4777 21.874 21.1299 21.8123 20.7887C21.7979 20.727 21.7848 20.6994 21.7651 20.6929C21.7441 20.6929 21.7086 20.7073 21.6758 20.7414C21.3608 21.021 21.034 21.294 20.677 21.5276C20.1166 21.8899 19.4958 22.1091 18.8592 22.2666C17.8407 22.5186 16.8156 22.7299 15.7709 22.806C15.032 22.8546 14.3075 22.9989 13.6026 23.2299C13.0094 23.436 12.4004 23.6408 11.9213 24.0923C11.8675 24.1395 11.7914 24.1868 11.6969 24.2616L11.7087 24.1933L11.6615 24.2287V24.2222C11.6825 24.2077 11.689 24.1946 11.7035 24.1867C11.7297 24.0647 11.7835 23.9492 11.8518 23.8389L12.9805 22.0487C13.0015 22.0132 13.0278 21.9857 13.0553 21.9594C13.6368 21.3859 14.1959 20.769 14.8456 20.2703C15.9205 19.4303 17.0886 18.774 18.4418 18.4852C18.7713 18.4117 19.0981 18.3632 19.4393 18.3632C19.8226 18.3566 20.2124 18.3422 20.5956 18.3304L20.597 18.3343ZM7.23964 18.3684C7.25933 18.3684 7.28689 18.375 7.32233 18.3894C7.37614 18.4039 7.43126 18.396 7.48508 18.4039C7.71083 18.4511 7.94314 18.4577 8.16233 18.5128C8.18333 18.5128 8.19776 18.5128 8.22401 18.5338C8.45633 18.5404 8.69651 18.5745 8.92226 18.6296C9.17426 18.6624 9.42758 18.6913 9.67958 18.7307C9.74126 18.7307 9.78983 18.7307 9.84364 18.7661C9.8502 18.7661 9.86464 18.7596 9.86464 18.7661C10.1586 18.7989 10.391 18.8199 10.643 18.8606H10.6154V18.8672C10.7873 18.8882 10.8976 18.9092 11.0262 18.9289C11.1627 18.9499 11.2992 18.9853 11.4291 18.9853C11.4436 18.9853 11.4567 18.9919 11.4646 18.9919L11.4974 18.9971C11.5801 19.0037 11.6142 19.0536 11.6286 19.1218C11.6969 19.5169 11.7507 19.9211 11.8334 20.3175C11.8334 20.3529 11.8531 20.3739 11.8478 20.4002L11.8806 20.5931C11.9213 20.7834 11.9489 20.9816 11.9909 21.1746C11.9909 21.1942 11.9909 21.2284 11.9961 21.2363V21.2572C12.0381 21.5027 12.0854 21.735 12.1274 21.9752V22.0579C11.9082 22.2889 11.7297 22.5632 11.6011 22.8572C11.5473 22.9937 11.479 23.1236 11.4226 23.2522L11.416 23.2588C11.3753 23.3888 11.3071 23.52 11.2467 23.6486C11.2401 23.6486 11.2401 23.6552 11.2323 23.6683C11.2257 23.6828 11.2178 23.7103 11.2113 23.7169V23.7234C11.122 23.9754 11.0065 24.2156 10.8766 24.4479C10.8621 24.4808 10.8346 24.5162 10.8346 24.549C10.7873 24.7065 10.7545 24.864 10.6718 25.0149C10.6508 25.1514 10.6036 25.2814 10.5406 25.4126C10.4868 25.6436 10.4106 25.8759 10.3161 26.0951C10.3017 26.1306 10.2807 26.1634 10.2807 26.1988L10.2741 26.2054C10.2741 26.2172 10.2676 26.2382 10.2597 26.2592C10.2531 26.2736 10.2531 26.292 10.24 26.3064V26.3274L10.1705 27.6255L10.2125 27.6399L10.3765 27.3184C10.4303 27.2094 10.471 27.0992 10.5275 26.9916C10.5603 26.9168 10.6154 26.8406 10.6154 26.7658C10.7466 26.5545 10.8556 26.3497 10.9842 26.1502C10.9986 26.1306 11.0262 26.1174 11.0406 26.0754C11.1496 25.9127 11.2716 25.6869 11.4029 25.494C11.4501 25.4192 11.4974 25.3509 11.5394 25.2748C11.5656 25.1947 11.6142 25.1803 11.6483 25.1449C11.6903 25.1042 11.71 25.0701 11.7914 25.0294C11.7914 25.0622 11.798 25.0976 11.798 25.1239L11.7914 25.1383C11.7914 25.1593 11.7848 25.1737 11.777 25.1947V25.2066C11.7717 25.221 11.7717 25.2276 11.7717 25.242C11.7651 25.2564 11.7651 25.263 11.7651 25.2748C11.7651 25.2892 11.7586 25.2958 11.7586 25.3103V25.3378C11.7231 25.5833 11.7231 25.8694 11.7166 26.1371C11.7166 26.1489 11.71 26.1699 11.71 26.1778L11.7166 26.1713C11.752 26.4246 11.7914 26.6766 11.8268 26.9312C11.8268 26.9312 11.8334 26.985 11.8334 27.006C11.8741 27.258 11.9279 27.5113 11.9555 27.7712L11.962 27.7988C11.9686 27.8198 11.9686 27.8316 11.9686 27.846C12.0093 28.0507 12.1589 28.1872 12.256 28.3657C12.3243 28.4616 12.3925 28.5705 12.4542 28.6598H12.4608C12.6721 28.8435 12.844 29.0364 13.0842 29.2071C13.117 29.2071 13.1525 29.2478 13.1853 29.2478H13.1787V29.2687C13.2614 29.2753 13.3362 29.3436 13.4255 29.316C13.4399 29.316 13.453 29.3094 13.4661 29.295C13.4806 29.2884 13.5016 29.2806 13.5081 29.2687C13.5226 29.2267 13.4871 29.2071 13.4596 29.1939C13.1118 28.9748 13.1656 28.6204 13.1249 28.2844H13.1393V28.2778C13.222 28.3605 13.2824 28.4353 13.3506 28.5246C13.3651 28.5456 13.3782 28.5574 13.3913 28.5718L13.4806 28.6676C13.5423 28.7293 13.6026 28.7897 13.6709 28.8448C13.7405 28.9012 13.8087 28.9551 13.8914 28.9957C13.9242 29.0102 13.9596 29.0443 13.9859 29.0443H13.9793C14.2326 29.1598 14.4518 29.2819 14.6776 29.4C14.7314 29.4066 14.7786 29.4262 14.8206 29.4682C14.9033 29.715 15.0044 29.967 14.9781 30.261C14.9834 30.261 14.9978 30.2964 14.9978 30.3148C15.0044 30.3293 14.9978 30.3502 14.9978 30.3712C15.0254 30.6088 15.0254 30.8634 14.9913 31.1023C14.9978 31.122 14.9978 31.1496 14.9847 31.1706C14.9847 31.1758 14.9847 31.1824 14.9847 31.1902C14.9847 31.437 14.9847 31.6772 14.923 31.9147C14.9165 32.1549 14.8403 32.3938 14.8141 32.6274C14.8141 32.6392 14.8141 32.6471 14.8075 32.6603C14.7931 32.7023 14.7721 32.7561 14.8758 32.7495V32.7429C15.1015 32.5028 15.3273 32.277 15.5386 32.0119V32.0329C15.5451 31.9436 15.5924 31.9029 15.6423 31.8609C15.7223 31.7717 15.8116 31.6352 15.9008 31.5131C15.9901 31.3911 16.0793 31.2729 16.1673 31.1509L16.1738 31.1299C16.1804 31.0892 16.2014 31.0616 16.2224 31.0472C16.2276 31.0472 16.2421 31.0406 16.2486 31.0406H16.2762C16.3025 31.0472 16.3379 31.0551 16.3655 31.0761C16.4061 31.1036 16.4534 31.1299 16.4954 31.1587C16.7474 31.3018 17.0348 31.3911 17.2265 31.6299C17.2461 31.6509 17.2671 31.6575 17.2881 31.6982C17.3774 31.7402 17.4601 31.836 17.5205 31.9305L17.5887 31.9922C17.5953 31.9922 17.5953 31.9922 17.6031 31.9987C17.93 32.2783 17.9588 32.4293 17.7186 32.8059C17.7121 32.8204 17.6976 32.8335 17.6911 32.8335C17.6793 32.8663 17.6648 32.8952 17.6504 32.928C17.636 32.949 17.6294 32.97 17.615 32.991L17.5953 33.0173C17.5336 33.1209 17.464 33.2286 17.4443 33.3467C17.4168 33.4412 17.4089 33.537 17.4168 33.6407C17.464 33.8034 17.506 33.9675 17.5388 34.1394C17.5598 34.2405 17.5874 34.3376 17.5953 34.4479C17.6281 34.6933 17.506 34.8429 17.3013 34.9532V34.9466C17.2527 34.9532 17.2527 34.9729 17.233 34.9873C17.2186 35.0017 17.212 35.0083 17.1976 35.0149C17.1766 35.0293 17.1503 35.0424 17.1293 35.0556C17.0676 35.0976 17.0204 35.1448 16.9928 35.2131C16.9928 35.2196 16.9928 35.2196 16.9928 35.2275C16.9863 35.2341 16.9928 35.2551 16.9863 35.2551H17.0007V35.2747C16.9587 35.3994 16.939 35.4861 16.918 35.5491C16.9115 35.5687 16.9036 35.5819 16.897 35.5963C16.897 35.6108 16.8826 35.6173 16.8826 35.6239C16.8773 35.6291 16.8708 35.6357 16.8629 35.6436C16.8563 35.658 16.8353 35.6646 16.8209 35.6646H16.8065C16.7802 35.6646 16.7526 35.658 16.7264 35.6436C16.6634 35.6239 16.5886 35.5963 16.4796 35.5609C16.4731 35.5543 16.4652 35.5543 16.4586 35.5491C16.4586 35.5491 16.4442 35.5425 16.439 35.5425L16.3904 35.5215H16.376V35.5071H16.3694C16.2473 35.4664 16.1318 35.4388 16.0137 35.3916C15.9455 35.364 15.8772 35.343 15.8024 35.3168C15.7197 35.2958 15.6331 35.2551 15.5438 35.2551C15.2971 35.1724 15.0516 35.1238 14.8128 35.0438C14.7918 35.0438 14.7773 35.049 14.738 35.0438V35.049C14.5739 35.0162 14.4374 34.9742 14.2799 34.9401C14.1224 34.9191 14.0607 34.8364 14.0817 34.6789C14.0883 34.6172 14.0883 34.5424 14.0883 34.4807C14.0883 34.461 14.0817 34.4479 14.0817 34.4059C14.0541 34.3652 14.02 34.3166 13.9859 34.2628C13.9715 34.2484 13.9649 34.23 13.9596 34.2156C13.9386 34.1946 13.8966 34.1736 13.8966 34.1473C13.856 34.1408 13.8704 34.1329 13.856 34.1198C13.726 34.0043 13.7667 33.8402 13.7811 33.6827L13.7877 33.6354L13.8021 33.5318C13.8021 33.5173 13.8021 33.4989 13.8087 33.4911C13.877 33.2233 13.8914 32.9857 13.6092 32.8282C13.5764 32.8007 13.5554 32.781 13.5147 32.7534V32.76C13.3835 32.6563 13.2535 32.5618 13.117 32.4726C13.096 32.4306 13.0895 32.424 13.0488 32.4043C12.8506 32.2941 12.6721 32.1641 12.508 32.0066L12.3781 31.9318H12.3991C12.3715 31.8911 12.3374 31.899 12.3164 31.878C12.2836 31.8504 12.2547 31.8373 12.2127 31.8098C12.0014 31.6247 11.714 31.4619 11.4882 31.2546C11.4134 31.2283 11.3583 31.1666 11.2979 31.1115V31.1063C11.0721 30.9488 10.853 30.7978 10.6351 30.6338H10.6416C10.6141 30.6338 10.6141 30.6128 10.5734 30.5931C10.4513 30.5248 10.3201 30.4211 10.2177 30.3397C10.1757 30.2991 10.1495 30.2991 10.114 30.2991C10.013 30.2098 9.9237 30.1744 9.84101 30.0996C9.80558 30.0799 9.77933 30.0523 9.73076 30.0247C9.48533 29.8882 9.25301 29.7189 9.0417 29.5194L8.98001 29.4578C8.94458 29.4171 8.9262 29.3685 8.91833 29.3147V29.3501C8.76083 29.1861 8.66501 28.9997 8.53508 28.8304L8.52064 28.8028C8.52064 28.7962 8.51408 28.7818 8.51408 28.7766C8.51408 28.7621 8.50751 28.749 8.50751 28.728C8.51408 28.7018 8.52851 28.6663 8.55608 28.6387C8.55608 28.6322 8.55608 28.6191 8.55608 28.6059C8.59676 28.3395 8.74639 28.0928 8.85008 27.8394V27.7777C8.85008 27.7777 8.85008 27.7371 8.85008 27.7239L8.84351 27.6964L8.82908 27.6898C8.82251 27.678 8.81464 27.678 8.80151 27.6701H8.78708C8.75426 27.6767 8.71883 27.6898 8.68601 27.7108C8.65058 27.7318 8.61776 27.7581 8.5902 27.7856L8.55739 27.8132C8.55083 27.8197 8.54295 27.8329 8.53639 27.8394L8.52195 27.8604H8.51539H8.50883C8.42614 27.9641 8.30408 28.0455 8.19514 28.1334C8.17414 28.1544 8.13214 28.182 8.13214 28.2017V28.1951H8.12033C8.08489 28.2371 8.04551 28.2371 7.99564 28.2161L7.4562 27.9759C7.40764 27.9563 7.38795 27.9077 7.38139 27.867C7.38139 27.8526 7.37483 27.8316 7.36695 27.8132L7.35251 27.7646V27.7791C7.29083 27.4851 7.39451 27.2659 7.44833 27.0139C7.45489 26.9929 7.45489 26.9719 7.45489 26.9522C7.49558 26.7054 7.51658 26.4442 7.58483 26.2067V26.0964C7.54939 25.83 7.54939 25.5649 7.53101 25.2971V25.1606C7.51001 24.6619 7.47458 24.1631 7.4562 23.6578C7.42076 22.6117 7.33151 21.5723 7.36695 20.5275C7.37351 20.3346 7.32626 20.1443 7.23701 19.9723C7.18058 19.8778 7.12676 19.782 7.05851 19.6849C6.96926 19.5694 6.93645 19.4184 6.97583 19.2754C7.03751 19.0286 7.08608 18.7766 7.13333 18.5299C7.14776 18.4406 7.17533 18.3789 7.23701 18.3789L7.23964 18.3684ZM6.9522 19.0378L6.95876 19.0588C6.96401 19.1205 6.94433 19.1743 6.91676 19.257C6.90233 19.2097 6.90233 19.1533 6.91676 19.1061C6.9312 19.0851 6.93776 19.0588 6.9522 19.0378ZM25.7039 19.0378C25.9283 19.0378 26.1462 19.0523 26.3654 19.0785C26.7486 19.1139 27.1043 19.1822 27.3301 19.3659C27.4941 19.4408 27.6595 19.5234 27.817 19.6192C28.2055 19.8516 28.5888 20.0904 28.9786 20.3228C29.0586 20.3713 29.1295 20.4396 29.1833 20.5157L29.5718 21.0683C29.5928 21.0958 29.6283 21.1299 29.5994 21.1641C29.5928 21.1785 29.5784 21.1838 29.5666 21.1903C29.5311 21.1969 29.5036 21.1837 29.4773 21.1706C29.3054 21.0748 29.1295 20.9777 28.9576 20.8832C28.3013 20.5262 27.6096 20.2532 26.8851 20.0839C26.6948 20.0274 26.5163 19.9736 26.3181 19.9461L26.0517 19.8844C26.0451 19.8909 26.0583 19.9119 26.078 19.9329C26.0924 19.9395 26.099 19.9447 26.099 19.9526C26.12 19.9802 26.1462 20.0012 26.1738 20.0156L26.2092 20.0274C26.6043 20.2322 27.2815 20.3569 27.7671 20.5892L27.8708 20.6364C28.1438 20.7795 28.3971 20.958 28.6426 21.1417L29.1151 21.504C29.8186 22.0172 30.2491 22.7128 30.4604 23.5554C30.4604 23.5764 30.4748 23.6027 30.4748 23.6302L30.4958 23.6513C30.5286 23.7051 30.5365 23.7668 30.5221 23.8206C30.5286 23.835 30.5286 23.8481 30.5286 23.856C30.5221 23.9781 30.4276 23.9308 30.3711 23.9308C30.0089 23.9098 29.6466 23.8416 29.3054 23.7313H29.2909C29.203 23.7051 29.0862 23.6631 29.0035 23.6434C28.6347 23.5069 28.2856 23.3559 27.9312 23.2247C27.4863 23.0685 27.145 22.7679 26.7696 22.5002C26.1462 22.0697 25.5582 21.5985 25.0201 21.0722C24.9584 21.0184 24.9098 20.9567 24.877 20.8884C24.8416 20.7992 24.8022 20.7099 24.7668 20.6207L24.7051 20.4566C24.6906 20.4159 24.6788 20.3818 24.6644 20.3477V20.3411C24.6578 20.3346 24.6578 20.3267 24.6578 20.3201L24.6513 20.3004C24.6303 20.2309 24.6368 20.1574 24.6657 20.0865C24.6723 20.0812 24.6723 20.0747 24.6723 20.0668L24.6841 20.0314L24.6906 20.0117C24.6906 19.9972 24.6906 19.9841 24.6972 19.9763L24.7038 19.9487V19.9224L24.7103 19.8949V19.8673L24.7169 19.8476L24.7235 19.8122V19.7912L24.73 19.7584C24.73 19.7518 24.73 19.7439 24.7366 19.7308C24.7366 19.7242 24.7366 19.7111 24.7366 19.7046V19.2386C24.7366 19.0956 24.7838 19.0404 24.9269 19.0483C25.0634 19.0483 25.2065 19.0483 25.3508 19.0418L25.4808 19.0483C25.5556 19.0417 25.6265 19.0339 25.7013 19.0339L25.7039 19.0378ZM26.1961 19.9671C26.2158 19.9736 26.2289 19.9815 26.2433 19.9881H26.2499C26.2289 20.0025 26.2026 19.9946 26.1961 20.0209C26.1895 19.9881 26.1895 19.9736 26.1961 19.9671ZM27.7409 20.5695C27.7461 20.5761 27.7527 20.5761 27.7606 20.5839L27.7409 20.5695ZM24.3966 20.8779L24.4032 20.8845C24.4098 20.8911 24.4242 20.9042 24.4386 20.9252C24.5751 21.1982 24.7589 21.4174 24.965 21.6221C25.1841 21.8361 25.4151 22.0264 25.6475 22.2311C26.1134 22.6551 26.5911 23.0724 27.0768 23.4819C27.3904 23.7484 27.7593 23.8796 28.1635 23.9872C29.0652 24.2196 29.9958 24.3022 30.9184 24.4322C31.1652 24.465 31.3844 24.5411 31.5747 24.7052H31.5603C31.5813 24.7196 31.5878 24.7262 31.6023 24.7406C31.0825 24.6658 30.5693 24.6724 30.0496 24.6579C29.4826 24.6435 28.9274 24.7118 28.3748 24.7734C28.1766 24.7944 27.9771 24.78 27.7868 24.7327C27.2461 24.6081 26.7329 24.3915 26.2276 24.171C25.654 23.9334 25.1763 23.5567 24.7169 23.1472C24.6815 23.1118 24.6552 23.0842 24.6211 23.0514C24.4701 22.9084 24.3481 22.7364 24.2588 22.5527V22.5383C24.1013 22.1694 24.1079 21.7599 24.2326 21.3006C24.2588 21.1785 24.3008 21.0538 24.3336 20.9383C24.3481 20.8963 24.3756 20.8766 24.3953 20.8766L24.3966 20.8779ZM23.9661 22.9412C24.0764 23.352 24.3704 23.6394 24.6224 23.9479L24.7182 24.0844C24.772 24.1461 24.8337 24.1999 24.902 24.2471C24.9374 24.2681 24.9584 24.2826 24.9846 24.3036L25.0266 24.3364C25.3272 24.5766 25.6409 24.8089 25.9625 25.0281L26.536 25.431C26.8025 25.6095 27.0768 25.7604 27.3563 25.8969C27.4311 25.9298 27.4994 25.9586 27.5755 25.9928C27.7947 26.0807 28.0126 26.1621 28.2383 26.2382L28.2711 26.2448C28.4142 26.2868 28.5651 26.2986 28.7082 26.313C28.7646 26.3196 28.8184 26.3274 28.8657 26.334C28.9077 26.3406 28.9405 26.355 28.9759 26.3747C29.0166 26.4022 29.056 26.4311 29.0915 26.4639C29.2214 26.5808 29.3448 26.7435 29.35 26.8472C29.35 26.8682 29.35 26.88 29.35 26.8879C29.3448 26.9023 29.3448 26.9023 29.3382 26.9089C29.3238 26.9364 29.2962 26.9627 29.2818 26.9916C29.2279 27.0808 29.1807 27.1687 29.1308 27.258L29.1111 27.3066C29.0495 27.4575 29.0494 27.6202 29.1177 27.7633C29.3159 27.5651 29.4996 27.3538 29.6309 27.1071C29.6926 26.9916 29.7398 26.8747 29.7818 26.7514C29.7936 26.7041 29.7871 26.6503 29.7936 26.6083C29.8146 26.5545 29.7529 26.4862 29.7818 26.4508C29.7818 26.4442 29.7871 26.4443 29.7871 26.4443C29.7936 26.4377 29.8015 26.4324 29.8146 26.4324C29.8291 26.4259 29.8501 26.4259 29.8619 26.4259C29.8973 26.4193 29.9249 26.4114 29.9577 26.4114C30.0404 26.4114 30.1218 26.4259 30.2045 26.4521C30.2517 26.4666 30.2307 26.5269 30.2307 26.5768V26.5886C30.2189 26.7396 30.1559 26.8761 30.1008 27.0139C30.0863 27.0401 30.0745 27.0756 30.0601 27.1084C29.9774 27.3407 29.8606 27.5599 29.7241 27.7646C29.5193 28.0389 29.2791 28.2909 28.8906 28.3054H28.7804C28.7121 28.3054 28.6439 28.3264 28.5822 28.3264C28.514 28.3198 28.4523 28.3592 28.4313 28.4274C28.3958 28.4957 28.363 28.5495 28.3276 28.6204L28.3158 28.6466C28.1583 29.0299 27.9115 29.3711 27.6031 29.6454C27.46 29.7675 27.3156 29.8909 27.166 30.0011C26.9074 30.1639 26.6344 30.3004 26.347 30.3896L26.2223 30.4461L26.1895 30.4579C26.1751 30.4579 26.1475 30.4644 26.1357 30.4723C26.0727 30.4999 26.0189 30.534 26.053 30.6298C26.0858 30.7387 26.1619 30.7663 26.2643 30.7729C26.284 30.7729 26.305 30.7729 26.3326 30.7663C26.4218 30.7597 26.5098 30.7387 26.5911 30.7125C26.6738 30.6771 26.7631 30.6442 26.8523 30.6022C26.9061 30.576 26.9678 30.555 27.0295 30.534C26.9823 30.7453 26.9468 30.9448 26.8786 31.1286L26.8458 31.2244C26.7972 31.3333 26.7421 31.4436 26.6883 31.5591C26.6528 31.6339 26.62 31.7021 26.578 31.7782C26.3798 32.1825 26.1475 32.5644 25.868 32.9214C25.6986 33.1524 25.4847 33.3519 25.2471 33.5147C25.1907 33.5632 25.1303 33.6039 25.0686 33.6459C24.8573 33.7824 24.6316 33.9045 24.4058 34.0082L24.2903 34.062L24.1263 34.1237C24.0515 34.1513 23.9832 34.1775 23.9071 34.2064C23.8113 34.2392 23.7168 34.2681 23.6131 34.2956C23.2863 34.3967 22.9568 34.4728 22.6156 34.5332C22.6011 34.5332 22.5946 34.5332 22.5801 34.5332C22.4856 34.5542 22.3964 34.5686 22.2927 34.5817C22.1982 34.5962 22.0945 34.608 21.9843 34.6224C21.6365 34.6644 21.2808 34.65 20.933 34.5896L20.8791 34.5752C20.7899 34.5476 20.7072 34.5135 20.6258 34.4715C20.5169 34.4098 20.4211 34.3494 20.3108 34.2943C20.2281 34.2523 20.1546 34.2116 20.0798 34.1644C19.984 34.1079 19.8948 34.0476 19.7976 33.9793C19.6205 33.8638 19.4774 33.6919 19.3947 33.495C19.3475 33.3782 19.291 33.2627 19.2306 33.1524C19.2162 33.1196 19.1978 33.0907 19.1834 33.0645C19.0403 32.8322 18.875 32.6196 18.6991 32.4201C18.6243 32.3321 18.5534 32.2508 18.4786 32.1681C18.4379 32.1261 18.4051 32.0854 18.3696 32.046C18.2187 31.8819 18.0691 31.7244 17.9116 31.5669L17.7961 31.4514C17.5979 31.2519 17.3866 31.0747 17.1608 30.9172C16.9889 30.7952 16.8104 30.6849 16.6266 30.5826L16.523 30.5143C16.0242 30.1993 15.6357 29.7334 15.4218 29.1808C15.347 29.0167 15.2315 28.9695 15.0333 28.9616C14.8823 28.9682 14.7327 28.9341 14.5962 28.8789L14.5896 28.8724C14.507 28.8396 14.4256 28.7897 14.3639 28.7293L14.3166 28.7018C14.2746 28.6545 14.2484 28.6007 14.213 28.5456C13.9596 28.1768 13.7352 27.7935 13.5357 27.3893C13.5357 27.3958 13.5423 27.4037 13.5423 27.4037L13.5278 27.384L13.5357 27.3893C13.495 27.2803 13.4517 27.1648 13.4045 27.048L13.3428 26.8971C13.3152 26.8078 13.3073 26.7199 13.3218 26.6306L13.3283 26.5768C13.3349 26.5703 13.3349 26.5558 13.3428 26.5493C13.3493 26.5283 13.3572 26.5138 13.3638 26.502C13.4176 26.3983 13.4937 26.3169 13.583 26.2487C13.6236 26.2211 13.663 26.1949 13.705 26.166C13.7798 26.1043 13.8691 26.0571 13.9452 26.0019C14.0751 25.9219 14.1972 25.8536 14.3271 25.7827C14.8062 25.5373 15.3128 25.3667 15.8326 25.2368C15.8588 25.2223 15.8864 25.2223 15.9218 25.2157C15.9835 25.2013 16.0439 25.1961 16.1056 25.1895C16.1673 25.1829 16.2276 25.1829 16.2893 25.1829L16.4744 25.1764C16.502 25.1764 16.5361 25.1764 16.5702 25.1764C17.09 25.1488 17.615 25.1147 18.1413 25.0596C18.4563 25.0333 18.77 24.9979 19.085 24.9651C19.7688 24.8902 20.4395 24.6973 21.0603 24.3981C21.122 24.3626 21.1902 24.3351 21.2506 24.3023L21.3608 24.2484C21.6128 24.1106 21.8661 23.9807 22.1063 23.8376C22.1326 23.8048 22.1601 23.7904 22.2008 23.7838L22.2218 23.7772V23.7982C22.2153 23.8179 22.2008 23.8389 22.189 23.8599L22.147 23.8809C21.9068 24.1946 21.5735 24.4059 21.2794 24.6671C21.2519 24.6934 21.2178 24.7209 21.1902 24.7498C21.101 24.8246 21.0065 24.9073 20.9028 24.9874C21.265 24.9874 21.6207 24.9467 21.9488 24.8443C22.5578 24.675 23.0894 24.3049 23.4661 23.7996C23.6511 23.5594 23.8139 23.2798 23.9583 22.9504L23.9661 22.9412ZM18.2528 22.9753C18.0599 23.0646 17.8551 23.1263 17.6504 23.1591C16.6726 23.4058 15.6751 23.5489 14.6841 23.7326C13.9793 23.8639 13.3152 24.1513 12.7482 24.5884C12.7154 24.6081 12.6734 24.6422 12.6393 24.6632C12.5907 24.6894 12.571 24.6829 12.5645 24.6422C12.5579 24.6356 12.5579 24.6212 12.5579 24.6067C12.5369 24.3613 12.6196 24.2393 12.8519 24.129C13.1656 23.9859 13.4806 23.835 13.7956 23.6919C14.2051 23.5016 14.6421 23.4399 15.0936 23.3979C15.7853 23.3231 16.4744 23.2339 17.1713 23.1512L18.0953 23.0029L18.2528 22.9753ZM22.4279 25.1488H22.3806C22.3124 25.1698 22.3189 25.2381 22.3189 25.2919C22.3255 25.4704 22.3334 25.6397 22.3518 25.8182C22.3728 26.0085 22.4344 26.2014 22.5513 26.3576C22.7626 26.6582 23.0776 26.8656 23.4398 26.9404C23.7128 27.0086 23.7128 27.0086 23.7391 27.2961C23.7456 27.4116 23.7666 27.5218 23.8769 27.5901C24.0751 27.7056 24.272 27.8276 24.5121 27.8421C24.6631 27.8565 24.8127 27.8696 24.9361 27.9641C25.108 28.0744 25.2983 28.1361 25.4965 28.1361C25.6475 28.1505 25.7971 28.1571 25.9415 28.1781C26.0583 28.1977 26.141 28.1636 26.221 28.0888C26.6397 27.7462 27.0558 27.3971 27.4456 27.0086C27.397 26.9601 27.3288 26.9404 27.2316 26.9876C26.9862 27.1097 26.7473 27.2396 26.5071 27.3774C26.4454 27.4181 26.3851 27.4523 26.3089 27.4654C25.8929 27.5481 25.469 27.5901 25.0437 27.5966C24.8127 27.5822 24.5935 27.5008 24.4019 27.3643C24.2864 27.2895 24.1696 27.1792 24.1499 27.0165C24.2116 26.9955 24.272 27.0165 24.3271 27.0283C24.5528 27.0559 24.772 27.1386 24.9978 27.1241C25.5451 27.0887 26.0583 26.9259 26.5715 26.7474L27.0636 26.5702C27.1385 26.5427 27.1595 26.5138 27.0965 26.4456C27.0164 26.3563 26.9271 26.3773 26.8379 26.3839C25.7511 26.5414 24.6434 26.5138 23.5632 26.3091C23.2482 26.2474 22.9135 26.2264 22.7901 25.8379C22.7573 25.7276 22.7219 25.6266 22.7022 25.5163C22.6746 25.4074 22.6195 25.305 22.5381 25.2157C22.5106 25.1829 22.4699 25.1554 22.4279 25.1488ZM21.4238 25.2669C21.3411 25.2669 21.2808 25.3549 21.2466 25.4297C21.1364 25.6082 21.0065 25.7723 20.8844 25.935C20.6915 26.1962 20.4263 26.25 20.1533 26.2093C19.1545 26.0518 18.1491 25.9481 17.1451 25.8943C17.0913 25.8878 17.0414 25.8733 17.002 25.9087C16.6805 26.1463 16.3602 26.3721 16.1528 26.7278C16.1673 26.7343 16.1804 26.7422 16.1883 26.7422C16.2237 26.7356 16.25 26.7278 16.2841 26.7225C16.8038 26.5913 17.3498 26.5506 17.8971 26.5978C18.5941 26.6595 19.2845 26.796 19.9748 26.8918C20.0706 26.9063 20.1651 26.9128 20.2478 26.9535C20.4591 27.0637 20.5694 27.2541 20.6455 27.4588C20.7676 27.7738 20.803 28.1151 20.8293 28.4511C20.8437 28.7175 20.7886 28.9354 20.5773 29.1139C20.4132 29.2359 20.2898 29.4079 20.2295 29.5982C20.4959 29.5982 20.7282 29.6454 20.9054 29.8712C21.0156 30.0143 21.1587 30.1389 21.2952 30.2544C21.6036 30.5484 22.1024 30.4802 22.3203 30.1179C22.4213 29.946 22.5184 29.7833 22.6287 29.6258C22.7796 29.4 22.9227 29.1598 23.1957 29.064C23.3598 29.0102 23.285 28.9275 23.2285 28.8593C23.1196 28.7228 22.9227 28.7162 22.7363 28.8264C22.4633 28.9957 22.273 29.2425 22.0735 29.4827C22.0118 29.5575 21.9515 29.6257 21.8753 29.6874C21.7716 29.7557 21.685 29.7623 21.5958 29.6664C21.4921 29.5706 21.3976 29.4617 21.2873 29.3724C21.1915 29.2976 21.1784 29.2294 21.2335 29.1204C21.349 28.9013 21.3976 28.6479 21.3766 28.4012C21.3228 27.8552 21.2335 27.3144 20.8503 26.8839C20.8096 26.8367 20.8096 26.8091 20.8647 26.7684C21.2742 26.4889 21.542 26.0374 21.5826 25.5452C21.5971 25.4139 21.5682 25.305 21.4671 25.2709C21.4527 25.2656 21.4396 25.2656 21.4251 25.2656L21.4238 25.2669ZM29.2306 25.3273C29.5863 25.3273 29.9078 25.4638 30.2228 25.641C30.2163 25.641 30.2084 25.641 30.2018 25.6476L30.2556 25.683C29.7779 25.7513 29.3054 25.7841 28.8342 25.7303C28.6911 25.7158 28.5402 25.6896 28.3893 25.6896C28.0887 25.704 27.8485 25.5465 27.5965 25.41H27.6293C27.6083 25.3956 27.5886 25.389 27.5676 25.3746C27.6083 25.3811 27.6503 25.3811 27.6897 25.3811C27.7435 25.3877 27.7934 25.4021 27.8406 25.4087C28.2567 25.4966 28.6609 25.3733 29.0704 25.3339C29.1269 25.3273 29.1741 25.3273 29.2279 25.3273H29.2306ZM14.0213 26.5794C14.0148 26.5794 14.0069 26.5794 13.9938 26.5847C13.9045 26.6201 13.8218 26.6674 13.8035 26.7842C13.7142 27.1727 13.898 27.5494 14.2878 27.7462C14.4597 27.8421 14.5962 27.972 14.6855 28.1505C14.7117 28.2187 14.7117 28.3342 14.8075 28.3146C14.8968 28.2936 14.8285 28.1833 14.8403 28.1361C14.8548 27.8959 14.8141 27.699 14.6211 27.5756C14.4781 27.4864 14.4308 27.3643 14.3757 27.2278C14.3075 27.0349 14.293 26.838 14.1434 26.6871C14.108 26.6516 14.0817 26.5794 14.0213 26.5794ZM17.2461 27.1937C17.0558 27.2409 16.8366 27.2895 16.6319 27.3788C16.4888 27.447 16.4744 27.5271 16.6043 27.6242C16.6791 27.6859 16.7553 27.7134 16.8511 27.678C17.1451 27.5625 17.4863 27.6242 17.7121 27.8421C17.9654 28.0612 18.3211 28.1216 18.6295 27.9996C18.8133 27.9379 18.9773 27.8276 19.1427 27.7331C19.2044 27.6977 19.2726 27.6767 19.3409 27.6649C19.5929 27.6439 19.8462 27.6084 20.0916 27.5756C20.1612 27.5612 20.2636 27.5901 20.2846 27.5074C20.299 27.4247 20.2019 27.3774 20.1415 27.3223C20.114 27.2895 20.0667 27.2895 20.0247 27.2751C19.7727 27.2003 19.5115 27.1858 19.2595 27.2475C18.7463 27.3578 18.2135 27.3578 17.7003 27.2475C17.5638 27.2147 17.4207 27.2147 17.2488 27.1937H17.2461ZM29.3264 28.7529C29.3408 28.7529 29.3474 28.7595 29.3526 28.7674C29.3592 28.7726 29.3671 28.7792 29.3736 28.7871L29.3881 28.7936C29.4629 28.8553 29.3736 28.9918 29.3526 29.0876C29.2988 29.3816 29.2581 29.6756 29.2043 29.9696C29.1899 30.0523 29.1833 30.1416 29.1216 30.2571L29.1072 30.1823L29.0862 30.2242C29.0179 29.82 28.9707 29.4039 28.9563 28.9918C28.9497 28.8973 29.0101 28.8763 29.0718 28.8553C29.1544 28.8291 29.2647 28.7398 29.3251 28.7543L29.3264 28.7529ZM23.6931 30.3306C23.6787 30.3306 23.6656 30.3371 23.6525 30.345C23.323 30.5288 22.9476 30.5353 22.5775 30.5852C22.4266 30.6049 22.2297 30.5642 22.1208 30.6731C21.8386 30.9474 21.6076 30.8306 21.3608 30.6403C21.3464 30.6337 21.3398 30.6193 21.3201 30.6127C20.9579 30.4224 20.5956 30.3542 20.2268 30.6062C20.0956 30.7099 19.9263 30.7571 19.7609 30.7309C19.631 30.6889 19.5286 30.7033 19.4262 30.7926C19.3776 30.8398 19.3094 30.8818 19.2543 30.9146C19.0902 31.0249 19.0902 31.0446 19.2398 31.1614C19.2753 31.1942 19.3146 31.2021 19.3553 31.2231C19.7058 31.3241 20.0326 31.2493 20.341 31.08C20.6626 30.9081 20.9566 30.9159 21.2506 31.1338C21.517 31.332 21.79 31.3386 22.084 31.2165C22.4528 31.0446 22.8361 30.9225 23.2325 30.8398C23.2889 30.8332 23.3493 30.8123 23.4044 30.8608C23.5763 31.0118 23.7312 30.9015 23.8887 30.8398C23.957 30.8122 23.9635 30.765 23.957 30.7033C23.9451 30.5668 23.848 30.492 23.7876 30.3883C23.7601 30.3411 23.7312 30.3266 23.6918 30.3345L23.6931 30.3306ZM15.4349 30.4539C15.4559 30.4539 15.4769 30.4605 15.4966 30.4815C15.5661 30.5432 15.6278 30.6114 15.6961 30.6718L15.7158 30.6994C15.7512 30.7269 15.7578 30.7676 15.7368 30.8031L15.3483 31.5893L15.3063 31.5748C15.3063 31.5682 15.3128 31.5604 15.3128 31.5538C15.3955 31.2126 15.3601 30.8569 15.4086 30.5091C15.4086 30.4671 15.4205 30.4539 15.4349 30.4539ZM22.2651 31.479C21.8465 31.4934 21.4238 31.5617 21.0353 31.6903C20.7138 31.8071 20.3515 31.8832 20.1796 32.2521C20.0851 32.4712 20.0969 32.7036 20.0286 32.9201C20.0562 33.0921 20.0562 33.2627 20.1599 33.4136C20.1861 33.4543 20.2006 33.5226 20.2754 33.5147C20.3502 33.5147 20.3712 33.4464 20.3909 33.3992C20.4657 33.2417 20.4867 33.0579 20.534 32.8939C20.6166 32.6209 20.74 32.4017 21.0275 32.2783C21.328 32.1484 21.6273 32.0329 21.9291 31.9161C21.983 31.8964 22.046 31.8898 22.1076 31.8964C22.4843 31.9502 22.8728 31.9292 23.2088 32.1484C23.2351 32.1759 23.2771 32.1838 23.3099 32.1759C23.4411 32.1405 23.453 32.1011 23.3781 31.9974C23.1196 31.6496 22.7022 31.4527 22.2651 31.479ZM18.3815 32.7771L18.409 32.8046C18.5718 33.0094 18.7293 33.1879 18.8461 33.3992C19.1046 33.9045 19.4958 34.2746 20.0011 34.5397C20.2386 34.6697 20.4526 34.8403 20.7256 34.8758H20.7584C20.7938 34.8758 20.8332 34.8692 20.8266 34.9164C20.8201 34.944 20.7938 34.944 20.7728 34.9374H20.7584C20.7518 34.9374 20.7387 34.9374 20.7321 34.9309C20.4381 34.9453 20.1586 34.9926 19.8698 35.0464C19.7215 35.0818 19.5706 35.1146 19.4275 35.1501C19.2845 35.1829 19.1401 35.2183 18.9957 35.2459C18.934 35.2577 18.9078 35.2866 18.9209 35.3469C18.9275 35.4152 18.9563 35.4572 19.0377 35.4769C19.1952 35.5044 19.3527 35.5123 19.5155 35.5044C19.7215 35.4979 19.9263 35.4769 20.131 35.4427C20.5825 35.3745 21.0393 35.3745 21.4908 35.4427C20.74 35.5648 20.1166 35.9888 19.4393 36.2709C19.0836 36.4193 18.8106 36.7014 18.4773 36.8786C18.4563 36.9141 18.4353 36.9613 18.4143 36.9889C18.3605 37.0571 18.3526 37.1936 18.266 37.1792H18.2594C18.245 37.1792 18.2384 37.1857 18.2318 37.1792C18.0678 37.1647 17.9024 37.1109 17.7659 37.0282C17.7121 36.9954 17.7252 36.9324 17.7252 36.8707V36.078C17.7252 36.0242 17.7462 35.9625 17.6898 35.9205C17.506 35.805 17.5533 35.6068 17.506 35.4362C17.485 35.3679 17.5336 35.3325 17.5743 35.2931L18.0586 34.7524C18.1688 34.6369 18.2161 34.5069 18.1334 34.3639C17.9825 34.0764 18.0113 33.8021 18.1334 33.5147C18.2292 33.2837 18.2909 33.0435 18.3801 32.7758L18.3815 32.7771ZM26.4074 33.0855C26.414 33.0921 26.4218 33.0999 26.4284 33.0999L26.4402 33.0855C26.5085 33.1275 26.5084 33.1748 26.5229 33.222C26.7079 33.6525 26.8786 34.0896 27.0492 34.5227C27.0964 34.6172 27.103 34.6999 27.0426 34.7812C26.8523 35.028 26.7959 35.3483 26.9061 35.6423C27.0216 35.9979 26.9416 36.2512 26.5846 36.4284C26.5229 36.4704 26.4481 36.4914 26.3733 36.4914C26.3194 36.4914 26.2643 36.477 26.2223 36.435C25.5661 35.9835 24.7878 35.8352 24.0488 35.574C23.9478 35.5333 23.8441 35.4992 23.7338 35.4729C23.6039 35.4454 23.6183 35.3561 23.6328 35.2669C23.6472 35.2052 23.68 35.1986 23.7155 35.2052C23.7483 35.1907 23.7981 35.2196 23.8244 35.2262C24.6657 35.4375 25.5136 35.6094 26.3194 35.9231C26.3549 35.9376 26.3733 35.9376 26.4021 35.9441C26.4559 35.9376 26.4769 35.8824 26.4638 35.8011C26.4494 35.6108 26.431 35.4244 26.2171 35.3299C25.6776 35.0897 25.0975 34.9532 24.5095 34.9191C24.4203 34.9125 24.3376 34.9046 24.2483 34.8981C24.667 34.6526 25.1238 34.5161 25.4926 34.188C25.5411 34.1552 25.5884 34.1132 25.6304 34.0725L26.3194 33.2312L26.4074 33.0855ZM23.1117 35.0687H23.1471C23.201 35.0687 23.2416 35.0831 23.2482 35.1645C23.2482 35.2393 23.2626 35.3076 23.1393 35.3286C22.9818 35.3482 22.8243 35.3614 22.6602 35.3614C22.4961 35.3614 22.34 35.3404 22.1759 35.3076C22.0866 35.2866 22.0538 35.2249 22.0591 35.1566C22.0656 35.1081 22.1011 35.1081 22.1339 35.1081C22.1549 35.1081 22.1759 35.1081 22.2035 35.1146H22.5171C22.7153 35.1291 22.9148 35.1146 23.1117 35.0739V35.0687ZM23.1734 35.7669C23.1878 35.7669 23.1944 35.7669 23.2088 35.7722C23.6931 35.9782 24.1853 36.1764 24.6841 36.3812C24.4596 36.5794 24.2418 36.75 24.0344 36.9154C23.6459 37.2291 23.2626 37.5441 22.9004 37.8853C22.8111 37.968 22.7429 37.9746 22.6471 37.9063C22.0263 37.5506 21.3831 37.2291 20.7269 36.9561C20.4395 36.834 20.1323 36.7867 19.8305 36.6831C19.8659 36.6148 19.9263 36.6148 19.9735 36.6004C20.6153 36.3602 21.2716 36.1423 21.9095 35.8614C22.0722 35.7866 22.2297 35.847 22.3938 35.868C22.634 35.9034 22.865 35.91 23.0828 35.7932C23.1104 35.7722 23.1406 35.7669 23.1734 35.7669ZM19.3934 36.9902C19.4406 36.9902 19.4892 37.0046 19.5365 37.0164C19.8777 37.1529 20.1993 37.3459 20.534 37.4955C20.5484 37.4955 20.5694 37.5021 20.5825 37.5165C20.5891 37.5165 20.5891 37.5218 20.5891 37.5362V37.5428C20.5891 37.5493 20.5891 37.5493 20.5891 37.5493C20.5825 37.5559 20.5746 37.5559 20.5746 37.5559L20.5536 37.5493C20.5471 37.5493 20.5392 37.5349 20.5326 37.5283L19.022 37.1516C19.1519 37.0506 19.2621 36.9823 19.3908 36.9889L19.3934 36.9902ZM33.6944 37.926C33.4411 37.9116 33.2363 38.0271 33.0381 38.1846C32.9909 38.2266 32.9633 38.2673 32.8741 38.2121C32.6903 38.0901 32.5118 38.1229 32.3609 38.2804C32.2716 38.3762 32.21 38.4851 32.1771 38.6072C31.958 39.4892 31.7401 40.3712 31.5274 41.2532C31.4592 41.5472 31.6075 41.6981 31.9159 41.6574C32.1955 41.6089 32.3346 41.4527 32.3819 41.0957C32.4226 40.7479 32.4711 40.4132 32.5722 40.0575C32.8334 40.3778 33.0775 40.6862 33.3321 40.9933C33.5723 41.2939 33.8374 41.5537 34.1931 41.7178C34.4464 41.8267 34.6656 41.7651 34.8638 41.5879C34.9649 41.4986 35.0069 41.3556 34.9596 41.2256C34.9321 41.0944 34.8166 41.0064 34.6853 41.0064C34.5843 40.9999 34.4871 40.9579 34.4189 40.8818C34.1787 40.677 33.9674 40.4447 33.7836 40.1927C33.6261 39.9814 33.6196 39.9814 33.8309 39.837C34.2679 39.5364 34.4254 39.1059 34.3913 38.5927C34.3716 38.2095 34.1603 37.9903 33.7968 37.9299C33.7639 37.9234 33.7285 37.9234 33.6957 37.9234L33.6944 37.926ZM14.9099 37.9732C14.8403 37.9732 14.7721 38.0087 14.738 38.1032C14.7025 38.1924 14.6421 38.178 14.5805 38.1714C14.15 38.1032 13.7195 38.2463 13.411 38.5547C12.7482 39.2044 12.4135 39.984 12.4463 40.9277C12.4739 41.5485 12.8361 41.8504 13.4451 41.7139C14.6474 41.4343 15.5832 40.2583 15.6396 38.9458C15.6449 38.6098 15.3456 38.1255 15.0451 38.01C14.9965 37.989 14.9558 37.9824 14.9086 37.9746L14.9099 37.9732ZM11.5328 38.0769C11.1351 38.0835 10.7545 38.2279 10.4605 38.493C9.85151 39.0193 9.5037 39.7044 9.3252 40.4827C9.25695 40.7702 9.3042 41.0773 9.4617 41.3293C9.58639 41.5341 9.7347 41.6089 9.96701 41.5616C10.5012 41.4579 11.0131 41.2821 11.4908 41.0274C11.6418 40.9526 11.773 40.8581 11.8885 40.7334C11.9778 40.6389 12.0316 40.5077 12.0316 40.3777C12.0316 40.2478 11.9778 40.2006 11.8531 40.194C11.731 40.194 11.6286 40.2347 11.5184 40.2767C11.1561 40.4066 10.8005 40.5707 10.4316 40.6586C10.2466 40.7072 10.1783 40.6652 10.1442 40.4814C10.1298 40.4066 10.1376 40.3384 10.1508 40.2623C10.219 39.9683 10.3201 39.6887 10.4776 39.4209C10.5813 39.2227 10.7243 39.0521 10.9081 38.9222C11.1483 38.7647 11.4016 38.682 11.6811 38.8539C11.7704 38.9078 11.8583 38.8815 11.9397 38.8329C12.0696 38.7529 12.1655 38.6216 12.2075 38.4772C12.2337 38.3893 12.2075 38.3197 12.1248 38.2725C11.9463 38.1636 11.7415 38.0953 11.5302 38.0743L11.5328 38.0769ZM27.6306 38.199C27.2894 38.1846 26.96 38.3158 26.7276 38.5612C26.4546 38.8408 26.4074 39.1283 26.5793 39.4787C26.7093 39.7451 26.8851 39.9709 27.0636 40.2097C27.1936 40.3725 27.3222 40.53 27.4469 40.7085C27.527 40.8306 27.4876 40.9277 27.3432 40.9671C27.2605 40.9946 27.1713 40.9946 27.0965 40.9605C26.8589 40.8713 26.6331 40.7347 26.4402 40.5576C26.372 40.5037 26.3247 40.4276 26.2971 40.3384C26.2774 40.2084 26.2092 40.1533 26.078 40.1402C25.9415 40.1258 25.805 40.1258 25.7223 40.2767C25.5858 40.5221 25.6278 40.74 25.8732 40.9657C26.3575 41.3962 26.9337 41.5813 27.5073 41.6286C28.0336 41.6351 28.3538 41.1626 28.1832 40.7203C28.1084 40.5142 27.9785 40.3371 27.8564 40.1651C27.6451 39.8921 27.4259 39.6191 27.2277 39.3317C27.0702 39.1125 27.145 38.955 27.397 38.8736C27.6372 38.7988 27.8341 38.8671 28.0336 39.0101C28.258 39.1886 28.4496 39.0928 28.4969 38.8119C28.5323 38.661 28.4496 38.5586 28.3459 38.4694C28.1412 38.3001 27.8892 38.2029 27.628 38.1964L27.6306 38.199ZM30.9657 38.3027C30.7281 38.3027 30.4879 38.3027 30.2478 38.3289C29.9603 38.3709 29.6873 38.4457 29.5771 38.766C29.5771 38.7804 29.5574 38.808 29.5364 38.8146C29.2069 38.8972 29.0993 39.1624 29.0101 39.4354C28.8263 40.0444 28.6623 40.6521 28.4903 41.2611C28.4496 41.4041 28.5048 41.5078 28.6268 41.5826C28.7226 41.6364 28.8198 41.6364 28.9274 41.6023C29.4944 41.4658 30.0627 41.3149 30.6586 41.3569C30.7321 41.3569 30.8069 41.3424 30.8778 41.3083C31.0261 41.2204 31.1088 41.0563 31.0825 40.8844C31.0615 40.7269 30.9316 40.6796 30.8029 40.6586C30.6993 40.6468 30.589 40.6324 30.4879 40.6324C30.1257 40.6324 29.7634 40.6586 29.4078 40.7216C29.4616 40.3239 29.4904 40.2964 29.8645 40.2964C30.1467 40.2964 30.4328 40.2846 30.6927 40.1743C30.8712 40.0995 30.9867 39.9761 31.0011 39.7766C31.0156 39.6401 30.9591 39.5653 30.8226 39.5574C30.7071 39.5522 30.5969 39.5574 30.4879 39.564L29.6952 39.6322C29.7359 39.5443 29.7569 39.4551 29.8041 39.3947C29.8789 39.2844 29.7897 39.0863 29.9472 39.0324C30.0837 38.9839 30.2346 39.018 30.3777 39.0114C30.7544 39.0049 31.1232 38.997 31.4855 38.8815C31.622 38.8461 31.7466 38.7647 31.828 38.6557C31.9501 38.4628 31.9015 38.3408 31.6823 38.3263C31.4448 38.3198 31.2046 38.3066 30.9644 38.3001L30.9657 38.3027ZM19.3041 38.3158C19.1821 38.3158 19.0718 38.3906 18.9773 38.4786C18.7306 38.7187 18.5048 38.9721 18.2935 39.2385L17.6517 40.0378C17.6163 40.0785 17.5835 40.1599 17.5152 40.1271C17.4614 40.0995 17.4798 40.0313 17.4876 39.9761C17.5086 39.7832 17.5296 39.5929 17.5493 39.4026C17.5769 39.1492 17.611 38.8972 17.5703 38.6426C17.5165 38.3421 17.2973 38.2594 17.0506 38.4444C16.9968 38.4917 16.9416 38.5455 16.8865 38.6019C16.6962 38.8329 16.519 39.0731 16.3681 39.3264C15.9704 39.9341 15.6081 40.5707 15.1356 41.1233C15.0477 41.2322 14.9585 41.328 14.8771 41.4448C14.7878 41.5669 14.7616 41.7113 14.8364 41.8478C14.9112 41.9633 15.0267 42.0053 15.1632 41.9987C15.3063 41.9921 15.3824 41.8897 15.4572 41.7874L16.5584 40.2964C16.5794 40.2701 16.586 40.2137 16.6476 40.2347C16.6411 40.2964 16.6332 40.3646 16.6266 40.4276C16.6056 40.6652 16.5584 40.9054 16.6056 41.1521C16.6673 41.4317 16.8852 41.5406 17.1464 41.4186C17.2763 41.3437 17.3984 41.2545 17.5021 41.1521C17.7068 40.9526 17.8998 40.7413 18.0756 40.5156C18.2804 40.2636 18.4799 40.0102 18.6912 39.7372C18.7529 39.942 18.724 40.1349 18.7175 40.3253C18.6978 40.6521 18.6348 40.9815 18.6978 41.3083C18.7385 41.5144 18.854 41.6377 19.0246 41.6509C19.1952 41.664 19.3658 41.6233 19.5089 41.5262C19.7281 41.3897 19.7491 41.1101 19.5443 40.9264C19.4905 40.8778 19.4485 40.8096 19.4341 40.7269C19.3868 40.5024 19.4288 40.2846 19.4616 40.0588C19.5299 39.6283 19.6664 39.2096 19.6467 38.766C19.6401 38.5967 19.6113 38.4392 19.4328 38.3565C19.3921 38.3355 19.3448 38.3211 19.3028 38.3158H19.3041ZM33.3728 38.6505C33.5789 38.6295 33.6813 38.7594 33.6196 38.9589C33.592 39.0416 33.5513 39.1217 33.4975 39.1913C33.2718 39.4708 32.9843 39.6624 32.6299 39.8055C32.6562 39.5535 32.7245 39.3002 32.8203 39.06C32.9292 38.829 33.1077 38.6715 33.3728 38.6505ZM21.7309 38.6833C21.8268 38.6781 21.9147 38.6977 21.9974 38.7463C22.1286 38.8211 22.1693 38.9983 22.0722 39.1492C21.9895 39.2792 21.8819 39.3894 21.752 39.4787C21.4986 39.669 21.2112 39.8134 20.9028 39.9026C21.0275 39.5259 21.1285 39.1781 21.3333 38.8776C21.4291 38.7555 21.58 38.6846 21.7309 38.6846V38.6833ZM24.5345 38.8408C24.6565 38.8343 24.7865 38.8552 24.902 38.9025C25.1015 38.9852 25.1697 39.081 25.1697 39.375C25.108 39.9276 24.8403 40.4408 24.4242 40.8096C24.2667 40.9461 24.062 41.0288 23.8572 41.0419C23.596 41.0694 23.3991 40.9054 23.4267 40.6468C23.474 40.0851 23.6249 39.5535 24.0003 39.1151C24.1368 38.9576 24.3271 38.8539 24.5345 38.8408ZM14.2392 38.8487C14.3691 38.8421 14.4978 38.8631 14.6211 38.9104C14.8141 38.9852 14.8823 39.0889 14.8745 39.3684C14.8206 39.9289 14.5529 40.4342 14.1355 40.803C13.9715 40.9408 13.7733 41.0287 13.5685 41.0497C13.3021 41.0707 13.096 40.9067 13.1236 40.6403C13.1774 40.0851 13.3283 39.5653 13.6906 39.1348C13.8271 38.9721 14.0266 38.8618 14.2379 38.8474L14.2392 38.8487Z" fill="white"/>
</svg>
