<svg width="42" height="42" viewBox="0 0 42 42" fill="none" xmlns="http://www.w3.org/2000/svg">
<g clip-path="url(#clip0_2219_704)">
<path d="M14.7595 9.12186C9.23484 8.12222 4.86661 9.16874 3.12569 12.1641C1.82658 14.3993 2.19744 17.3634 4.02574 20.5316C4.06273 20.5958 4.11209 20.6521 4.17099 20.6973C4.2299 20.7426 4.29719 20.7758 4.36904 20.7952C4.44088 20.8145 4.51586 20.8196 4.58969 20.8102C4.66352 20.8007 4.73476 20.7769 4.79932 20.7401C4.92971 20.6658 5.02505 20.5431 5.0644 20.399C5.10376 20.2548 5.08389 20.1011 5.00918 19.9715C3.36208 17.1178 3.04108 14.5598 4.10702 12.7269C5.55303 10.2385 9.44891 9.30508 14.5561 10.2294C14.6484 10.2475 14.7438 10.2425 14.8337 10.2148C14.9236 10.1872 15.0051 10.1377 15.071 10.0709C15.1368 10.0041 15.1849 9.92208 15.2108 9.83221C15.2368 9.74234 15.2398 9.64747 15.2196 9.55615C15.1952 9.44636 15.1383 9.34633 15.0562 9.26895C14.9741 9.19157 14.8706 9.14038 14.7589 9.12197L14.7595 9.12186ZM6.89866 24.3823C9.13235 26.8212 12.0346 29.1087 15.3444 31.0074C23.3582 35.6041 31.8897 36.8327 36.0941 33.9844C36.2152 33.8991 36.2978 33.7699 36.324 33.6248C36.3503 33.4796 36.3182 33.33 36.2346 33.2081C36.151 33.0863 36.0226 33.0019 35.8769 32.9731C35.7313 32.9443 35.5802 32.9734 35.456 33.0542C31.6928 35.6035 23.5886 34.4363 15.911 30.0325C12.6998 28.1904 9.88972 25.9756 7.73686 23.625C7.662 23.5406 7.56343 23.4804 7.45384 23.4522C7.34426 23.4239 7.22867 23.4289 7.12195 23.4665C7.03325 23.4978 6.9538 23.5505 6.89078 23.62C6.82775 23.6895 6.78315 23.7735 6.76098 23.8644C6.73882 23.9552 6.73981 24.0502 6.76384 24.1406C6.78788 24.231 6.83421 24.3141 6.89866 24.3823V24.3823Z" fill="white"/>
<path d="M34.7535 23.6976C38.3708 19.4521 39.6341 15.1819 37.897 12.1925C36.6186 9.99288 33.9159 8.83153 30.3246 8.7852C30.1743 8.78329 30.0295 8.8407 29.9218 8.94482C29.8142 9.04894 29.7525 9.19125 29.7504 9.34051C29.7488 9.45186 29.7805 9.56119 29.8415 9.65461C29.9025 9.74802 29.9901 9.8213 30.0932 9.86514C30.1616 9.89437 30.2351 9.90992 30.3095 9.91092C33.5396 9.9524 35.8682 10.9531 36.9157 12.7554C38.3584 15.2385 37.2323 19.0465 33.8888 22.9705C33.839 23.0266 33.801 23.0921 33.777 23.163C33.753 23.2339 33.7435 23.3089 33.749 23.3835C33.7546 23.4582 33.775 23.5309 33.8092 23.5976C33.8434 23.6643 33.8907 23.7235 33.9482 23.7718C34.0057 23.82 34.0724 23.8564 34.1442 23.8788C34.216 23.9012 34.2916 23.9092 34.3665 23.9023C34.4415 23.8953 34.5143 23.8737 34.5807 23.8385C34.6472 23.8034 34.7059 23.7555 34.7535 23.6976V23.6976ZM25.457 9.30929C22.1862 10.0057 18.705 11.3668 15.3619 13.2843C7.08861 18.0297 1.69186 25.0264 2.44168 30.1002C2.451 30.1746 2.47519 30.2464 2.51282 30.3113C2.55044 30.3763 2.60075 30.4331 2.66079 30.4785C2.72084 30.5239 2.7894 30.5569 2.86246 30.5756C2.93552 30.5943 3.0116 30.5984 3.08624 30.5875C3.16089 30.5766 3.23259 30.551 3.29713 30.5121C3.36168 30.4733 3.41778 30.4221 3.46212 30.3615C3.50647 30.3008 3.53819 30.232 3.5554 30.159C3.57261 30.0861 3.57497 30.0104 3.56235 29.9365C2.89714 25.432 8.01242 18.7993 15.928 14.2593C19.1712 12.3989 22.5424 11.0813 25.6945 10.4096C25.837 10.3741 25.96 10.285 26.0376 10.1611C26.1152 10.0372 26.1413 9.88821 26.1105 9.74554C26.0797 9.60287 25.9944 9.47764 25.8725 9.39626C25.7506 9.31488 25.6016 9.2837 25.457 9.30929Z" fill="white"/>
<path d="M12.0541 33.6176C13.9462 38.8638 17.0399 42.0945 20.5195 42.0945C23.0568 42.0945 25.4044 40.3763 27.2352 37.3508C27.2763 37.2874 27.3041 37.2165 27.3171 37.1422C27.3301 37.068 27.3279 36.9919 27.3107 36.9185C27.2893 36.8265 27.2449 36.7414 27.1816 36.6709C27.1183 36.6005 27.0383 36.547 26.9487 36.5154C26.8592 36.4838 26.763 36.4751 26.6692 36.49C26.5754 36.505 26.4869 36.5432 26.4118 36.6011C26.3519 36.6474 26.3019 36.7049 26.2648 36.7707C24.6193 39.4897 22.5981 40.9693 20.5195 40.9693C17.6297 40.9693 14.8696 38.0877 13.1211 33.2379C13.0971 33.1668 13.0592 33.1013 13.0094 33.045C12.9596 32.9887 12.899 32.9428 12.8312 32.91C12.7634 32.8773 12.6897 32.8584 12.6144 32.8543C12.5391 32.8504 12.4638 32.8614 12.3928 32.8867C12.3218 32.912 12.2567 32.9511 12.2011 33.0017C12.1455 33.0524 12.1007 33.1135 12.0692 33.1815C12.0377 33.2496 12.0201 33.3232 12.0176 33.398C12.0151 33.4729 12.0277 33.5476 12.0546 33.6176H12.0541ZM29.3307 32.5909C30.3098 29.4831 30.8352 25.8969 30.8352 22.1599C30.8352 12.8362 27.5508 4.79826 22.8719 2.73423C22.7352 2.67708 22.5813 2.67549 22.4434 2.72979C22.3055 2.78409 22.1945 2.88996 22.1343 3.02466C22.0741 3.15936 22.0695 3.31214 22.1214 3.45019C22.1734 3.58824 22.2777 3.70054 22.4121 3.76299C26.5851 5.60408 29.7027 13.2321 29.7027 22.1599C29.7027 25.7848 29.193 29.258 28.2497 32.2549C28.2252 32.3259 28.2154 32.4011 28.2208 32.476C28.2261 32.5509 28.2465 32.624 28.2808 32.6909C28.3323 32.7918 28.4132 32.8749 28.513 32.9293C28.6128 32.9838 28.7267 33.0072 28.84 32.9964C28.9534 32.9856 29.0608 32.9411 29.1483 32.8688C29.2358 32.7965 29.2994 32.6996 29.3307 32.5909V32.5909ZM39.9999 32.0399C40.0022 31.6847 39.9338 31.3326 39.7985 31.0038C39.6633 30.675 39.4639 30.376 39.2119 30.124C38.9599 29.8721 38.6603 29.6721 38.3302 29.5357C38.0001 29.3992 37.6461 29.329 37.2886 29.329C36.9311 29.329 36.5771 29.3993 36.247 29.5357C35.9169 29.6722 35.6172 29.8722 35.3652 30.1241C35.1133 30.3761 34.9139 30.6751 34.7787 31.0039C34.6435 31.3327 34.575 31.6848 34.5773 32.04C34.5819 32.7514 34.8696 33.4321 35.3776 33.9335C35.8856 34.435 36.5726 34.7164 37.2887 34.7164C38.0048 34.7164 38.6918 34.4349 39.1998 33.9335C39.7077 33.432 39.9954 32.7513 39.9999 32.0399ZM38.8668 32.0399C38.8667 32.4557 38.7004 32.8545 38.4045 33.1485C38.1085 33.4425 37.7071 33.6078 37.2886 33.6078C36.9765 33.6078 36.6714 33.5159 36.4119 33.3436C36.1523 33.1713 35.9501 32.9264 35.8307 32.6399C35.7112 32.3534 35.68 32.0382 35.7409 31.7341C35.8018 31.43 35.9521 31.1506 36.1728 30.9314C36.3935 30.7121 36.6747 30.5628 36.9808 30.5023C37.2869 30.4418 37.6042 30.4728 37.8926 30.5915C38.1809 30.7101 38.4274 30.9111 38.6008 31.1689C38.7742 31.4267 38.8668 31.7298 38.8668 32.0399V32.0399ZM3.71136 34.7336C4.06744 34.7336 4.42003 34.664 4.74901 34.5286C5.07799 34.3933 5.3769 34.1948 5.62869 33.9447C5.88047 33.6946 6.08018 33.3976 6.21643 33.0708C6.35267 32.7439 6.42277 32.3936 6.42273 32.0399C6.42276 31.6861 6.35264 31.3358 6.21639 31.009C6.08013 30.6822 5.88041 30.3852 5.62861 30.1351C5.37682 29.8849 5.0779 29.6865 4.74892 29.5512C4.41993 29.4158 4.06733 29.3462 3.71125 29.3462C3.35519 29.3462 3.00262 29.4159 2.67366 29.5512C2.3447 29.6866 2.0458 29.885 1.79404 30.1351C1.54227 30.3853 1.34256 30.6822 1.20632 31.009C1.07008 31.3359 0.999971 31.6861 1 32.0399C0.999971 32.3936 1.07008 32.7439 1.20633 33.0707C1.34258 33.3976 1.5423 33.6945 1.79408 33.9447C2.04585 34.1948 2.34476 34.3932 2.67374 34.5286C3.00271 34.6639 3.35529 34.7336 3.71136 34.7336V34.7336ZM3.71136 33.6078C3.2927 33.6078 2.89118 33.4426 2.59514 33.1485C2.29909 32.8544 2.13278 32.4555 2.13278 32.0396C2.13278 31.6236 2.29909 31.2247 2.59514 30.9306C2.89118 30.6365 3.2927 30.4713 3.71136 30.4713C4.13003 30.4713 4.53155 30.6365 4.82759 30.9306C5.12363 31.2247 5.28995 31.6236 5.28995 32.0396C5.28995 32.4555 5.12363 32.8544 4.82759 33.1485C4.53155 33.4426 4.13003 33.6078 3.71136 33.6078V33.6078Z" fill="white"/>
<path d="M20.5195 5.48183C21.0557 5.48188 21.58 5.32391 22.0259 5.0279C22.4718 4.73189 22.8193 4.31115 23.0244 3.8189C23.1949 3.40964 23.2613 2.96493 23.2175 2.52413C23.1738 2.08333 23.0213 1.66005 22.7736 1.29177C22.5259 0.92348 22.1906 0.621551 21.7974 0.412714C21.4043 0.203876 20.9653 0.0945734 20.5195 0.0944825C19.9832 0.0943919 19.4589 0.252315 19.013 0.548277C18.567 0.844238 18.2195 1.26494 18.0142 1.75717C17.809 2.2494 17.7553 2.79104 17.86 3.31359C17.9647 3.83613 18.223 4.3161 18.6022 4.69278C18.854 4.94292 19.1529 5.14133 19.4819 5.2767C19.8108 5.41207 20.1634 5.48173 20.5195 5.48172V5.48183ZM20.5195 4.356C20.2073 4.35596 19.9022 4.264 19.6427 4.09172C19.3832 3.91945 19.1809 3.67461 19.0614 3.38814C18.982 3.19792 18.9411 2.99402 18.9411 2.7881C18.9411 2.58218 18.982 2.37828 19.0614 2.18807C19.1406 1.99783 19.2569 1.82498 19.4034 1.67939C19.55 1.53379 19.7239 1.41832 19.9154 1.33956C20.1311 1.25083 20.3638 1.21071 20.5969 1.22209C20.8301 1.23348 21.0577 1.29607 21.2636 1.40538C21.4694 1.51469 21.6483 1.66799 21.7873 1.85423C21.9263 2.04048 22.0221 2.25504 22.0676 2.48246C22.1131 2.70988 22.1073 2.9445 22.0506 3.16942C21.9939 3.39435 21.8877 3.60398 21.7396 3.78322C21.5916 3.96246 21.4053 4.10685 21.1943 4.20599C20.9834 4.30513 20.7529 4.35655 20.5195 4.35655V4.356ZM20.9336 24.0654C20.425 24.1745 19.8936 24.0784 19.4562 23.7984C19.13 23.5895 18.8734 23.2892 18.719 22.9354C18.5646 22.5817 18.5193 22.1904 18.5888 21.811C18.6582 21.4317 18.8394 21.0813 19.1093 20.8043C19.3792 20.5273 19.7258 20.336 20.1052 20.2546C20.6103 20.1544 21.1349 20.2554 21.5657 20.536C21.9965 20.8167 22.299 21.2543 22.4078 21.7545C22.5165 22.2548 22.4228 22.7774 22.147 23.2097C21.8712 23.6419 21.4354 23.9491 20.9336 24.0649V24.0654Z" fill="white"/>
</g>
<defs>
<clipPath id="clip0_2219_704">
<rect width="42" height="42" fill="white"/>
</clipPath>
</defs>
</svg>
