<svg width="42" height="42" viewBox="0 0 42 42" fill="none" xmlns="http://www.w3.org/2000/svg">
<path d="M23.5623 35H39.1756C39.6714 35.0001 40.1587 34.8707 40.5881 34.6249C41.0176 34.3792 41.3741 34.0257 41.622 33.5999C41.8699 33.1743 42.0002 32.6913 42 32.1999C41.9998 31.7084 41.869 31.2256 41.6207 30.8001L31.1354 12.8001C30.8876 12.3745 30.5311 12.0211 30.1017 11.7754C29.6723 11.5296 29.1852 11.4003 28.6894 11.4003C28.1936 11.4003 27.7066 11.5296 27.2772 11.7754C26.8478 12.0211 26.4913 12.3745 26.2434 12.8001L23.5623 17.4057L18.3205 8.39967C18.0724 7.9741 17.7157 7.62071 17.2862 7.37503C16.8568 7.12934 16.3696 7 15.8737 7C15.3778 7 14.8907 7.12934 14.4612 7.37503C14.0317 7.62072 13.675 7.9741 13.427 8.39967L0.379239 30.8001C0.131019 31.2256 0.000210253 31.7084 2.53304e-07 32.1999C-0.000209747 32.6913 0.130158 33.1743 0.378007 33.5999C0.625856 34.0257 0.982443 34.3792 1.4119 34.6249C1.84136 34.8707 2.32854 35.0001 2.82445 35H12.6251C16.5082 35 19.3719 33.3095 21.3424 30.0114L26.1263 21.8001L28.6887 17.4057L36.3789 30.6055H26.1263L23.5623 35ZM12.4653 30.6011L5.62572 30.5995L15.8783 13.0007L20.9939 21.8001L17.5688 27.6815C16.2602 29.8214 14.7736 30.6011 12.4653 30.6011Z" fill="white"/>
</svg>
