<svg width="42" height="42" viewBox="0 0 42 42" fill="none" xmlns="http://www.w3.org/2000/svg">
<path d="M2.98487 20.9994C2.98487 28.1305 7.12875 34.2925 13.1377 37.213L4.54452 13.6678C3.51439 15.9747 2.98292 18.473 2.98487 20.9994V20.9994ZM33.1606 20.0903C33.1606 17.8639 32.3609 16.322 31.675 15.1219C30.7618 13.638 29.9062 12.3813 29.9062 10.8974C29.9062 9.24137 31.1618 7.69984 32.9309 7.69984C33.0108 7.69984 33.0865 7.70978 33.1647 7.71424C29.9593 4.7779 25.6893 2.98511 20.9994 2.98511C14.7059 2.98511 9.16898 6.21419 5.94787 11.1051C6.37052 11.1178 6.76917 11.1264 7.10715 11.1264C8.99142 11.1264 11.9081 10.8977 11.9081 10.8977C12.8792 10.8405 12.9937 12.2668 12.024 12.3817C12.024 12.3817 11.0478 12.4965 9.96183 12.5534L16.522 32.0667L20.4646 20.2429L17.6576 12.5531C16.6875 12.4962 15.7685 12.3813 15.7685 12.3813C14.7978 12.3244 14.9116 10.8401 15.8823 10.8974C15.8823 10.8974 18.8573 11.126 20.6275 11.126C22.5114 11.126 25.4285 10.8974 25.4285 10.8974C26.4002 10.8401 26.5144 12.2665 25.544 12.3813C25.544 12.3813 24.566 12.4962 23.4821 12.5531L29.9922 31.9186L31.7888 25.914C32.5679 23.4223 33.1606 21.6325 33.1606 20.0903V20.0903Z" fill="white"/>
<path d="M21.3156 22.5751L15.9106 38.2811C17.5631 38.768 19.2769 39.0153 20.9996 39.0153C23.0974 39.0153 25.1092 38.6523 26.9818 37.9941C26.9316 37.9155 26.8887 37.8324 26.8536 37.746L21.3156 22.5751ZM36.8066 12.3562C36.8841 12.93 36.9279 13.5464 36.9279 14.2086C36.9279 16.0367 36.5865 18.0918 35.5582 20.6613L30.0555 36.5712C35.4111 33.4481 39.0134 27.6457 39.0134 20.9993C39.0182 17.9783 38.2591 15.0051 36.8066 12.3562V12.3562Z" fill="white"/>
<path d="M20.9995 0C9.42067 0 0 9.42021 0 20.9993C0 32.5798 9.42032 42 20.9995 42C32.578 42 42 32.5801 42 20.9993C41.9997 9.42021 32.578 0 20.9995 0ZM20.9995 41.0371C9.95164 41.0371 0.962874 32.0481 0.962874 20.9993C0.962874 9.95154 9.95129 0.96324 20.9995 0.96324C32.047 0.96324 41.0351 9.95154 41.0351 20.9993C41.0351 32.0481 32.0467 41.0371 20.9995 41.0371Z" fill="white"/>
</svg>
